<svg xmlns="http://www.w3.org/2000/svg" xmlns:xlink="http://www.w3.org/1999/xlink" width="500" zoomAndPan="magnify" viewBox="0 0 375 374.999991" height="500" preserveAspectRatio="xMidYMid meet" version="1.0"><path fill="#3287c1" d="M 274.40625 21.453125 C 274.46875 21.484375 274.515625 21.515625 274.5625 21.546875 C 274.828125 21.6875 275.125 21.796875 275.40625 21.9375 Z M 274.40625 21.453125 " fill-opacity="1" fill-rule="nonzero"/><path fill="#3287c1" d="M 324.4375 315.828125 L 324.34375 315.921875 Z M 324.4375 315.828125 " fill-opacity="1" fill-rule="nonzero"/><path fill="#3287c1" d="M 31.125 84.75 L 31.140625 84.734375 C 31.28125 84.515625 31.40625 84.296875 31.546875 84.078125 Z M 31.125 84.75 " fill-opacity="1" fill-rule="nonzero"/><path fill="#3287c1" d="M 238.859375 145.703125 L 219.75 145.703125 L 219.765625 176.734375 L 175.546875 212.59375 L 166.015625 204.21875 L 176.3125 196.484375 C 190.765625 185.21875 205.140625 173.875 210.1875 169.59375 C 205.796875 166 201.4375 162.40625 197.046875 158.84375 L 152.875 193.46875 L 143.328125 185.109375 L 187.5 151.671875 C 183.109375 148.09375 178.75 144.5 174.359375 140.9375 L 127.8125 176.734375 C 125.484375 168.03125 120.4375 160.0625 113.375 154.4375 C 106.65625 149.046875 98.171875 145.796875 88.90625 145.703125 L 54.9375 145.703125 L 54.9375 228.109375 L 84.390625 228.109375 C 87.265625 228.109375 90.140625 228.1875 93 227.84375 C 97.96875 227.28125 102.84375 225.828125 107.296875 223.53125 C 117.59375 218.3125 125.546875 208.453125 127.796875 197.0625 L 174.375 232.875 C 189.90625 220.953125 205.40625 208.984375 220.953125 197.0625 L 220.953125 228.109375 L 273.484375 228.109375 L 273.484375 211.390625 L 238.859375 211.390625 Z M 103.953125 204.390625 L 103.921875 204.4375 C 100.125 209.21875 94.328125 212.34375 87.765625 212.5625 L 72.875 212.578125 L 72.875 162.40625 L 83.625 162.40625 C 86.265625 162.4375 88.953125 162.28125 91.546875 162.90625 L 91.703125 162.9375 C 98.203125 164.546875 103.609375 168.90625 106.734375 174.796875 C 108.734375 178.578125 109.875 182.890625 109.875 187.453125 C 109.875 193.875 107.640625 199.78125 103.953125 204.390625 Z M 103.953125 204.390625 " fill-opacity="1" fill-rule="nonzero"/><path fill="#3287c1" d="M 299.765625 145.6875 L 280.671875 145.6875 L 280.671875 228.09375 L 333.203125 228.09375 L 333.203125 211.375 L 299.765625 211.375 Z M 299.765625 145.6875 " fill-opacity="1" fill-rule="nonzero"/><path fill="#3287c1" d="M 375 184.6875 L 375 184.546875 C 374.40625 144.125 360.9375 106.8125 338.875 77.03125 L 338.515625 76.515625 C 321.875 54.015625 300.375 35.359375 274.5625 21.546875 C 249.28125 8.1875 220.578125 0.421875 189.953125 0 L 184.53125 0 C 155.453125 0.484375 128.015625 7.65625 104.71875 19.5625 L 103.640625 20.0625 C 74.5 34.921875 49.6875 57.03125 31.140625 84.734375 C 12.046875 113.390625 0.65625 147.65625 0 184.6875 L 0 190.484375 C 0.3125 209.90625 3.59375 228.609375 9 244.84375 L 9.375 246.171875 C 18.453125 273.46875 33.59375 297.984375 53.15625 318.09375 L 53.203125 318.140625 C 71.53125 337.015625 93.796875 352.0625 119.9375 362.40625 C 140.03125 370.1875 161.78125 374.65625 184.703125 375 L 190.46875 375 C 243.234375 374.296875 290.6875 351.75 324.359375 315.90625 C 355.25 283.03125 374.375 238.96875 375 190.3125 Z M 352.828125 219.75 L 352.65625 220.8125 C 346.453125 251.96875 331.625 280 310.859375 302.25 L 310.765625 302.34375 C 289.921875 324.71875 263.0625 341.390625 231.5625 350.078125 C 209.359375 356.078125 185.9375 357.40625 163.1875 354.140625 L 162.28125 354.03125 C 134.734375 349.96875 109.390625 339.1875 88.40625 323.734375 L 87.9375 323.40625 C 64.359375 306.109375 45.453125 282.796875 33.015625 254.6875 C 24.109375 234.0625 19.125 211.359375 19.125 187.46875 C 19.125 166.015625 23.09375 145.5 29.96875 127.765625 L 30.359375 126.609375 C 41.0625 99.046875 58.828125 75 81.734375 56.40625 C 109.25 34.125 143.96875 20.390625 182.078125 19.234375 L 182.03125 19.234375 C 182.046875 19.234375 182.078125 19.234375 182.09375 19.234375 C 182.15625 19.234375 182.21875 19.21875 182.296875 19.21875 L 182.3125 19.234375 C 184.140625 19.171875 185.96875 19.140625 187.8125 19.140625 C 206.46875 19.140625 224.421875 22.171875 240.015625 27.4375 L 241.203125 27.78125 C 294.8125 45.765625 336.359375 90 350.859375 146.375 C 354.125 159.5625 355.90625 173.3125 355.90625 187.515625 C 355.90625 198.921875 354.78125 210.0625 352.828125 219.75 Z M 352.828125 219.75 " fill-opacity="1" fill-rule="nonzero"/><path fill="#3287c1" d="M 113.328125 154.40625 L 113.359375 154.4375 L 113.40625 154.46875 Z M 113.328125 154.40625 " fill-opacity="1" fill-rule="nonzero"/></svg>