<svg xmlns="http://www.w3.org/2000/svg" xmlns:xlink="http://www.w3.org/1999/xlink" width="1584" zoomAndPan="magnify" viewBox="0 0 1188 296.999993" height="396" preserveAspectRatio="xMidYMid meet" version="1.0"><defs><g/><clipPath id="5c5e7753e6"><path d="M 44.527344 44 L 188 44 L 188 253.96875 L 44.527344 253.96875 Z M 44.527344 44 " clip-rule="nonzero"/></clipPath></defs><g fill="#27408b" fill-opacity="1"><g transform="translate(245.592028, 194.413835)"><g><path d="M 28.078125 0.9375 C 19.984375 0.9375 13.671875 -0.570312 9.140625 -3.59375 C 4.617188 -6.625 2.359375 -10.738281 2.359375 -15.9375 C 2.359375 -16.875 2.398438 -17.578125 2.484375 -18.046875 L 2.484375 -18.640625 C 2.710938 -20.140625 3.535156 -20.890625 4.953125 -20.890625 L 21.234375 -20.890625 C 22.648438 -20.890625 23.359375 -20.691406 23.359375 -20.296875 L 23.25 -19.59375 C 23.09375 -18.332031 23.640625 -17.304688 24.890625 -16.515625 C 26.148438 -15.734375 27.84375 -15.34375 29.96875 -15.34375 C 31.695312 -15.34375 33.113281 -15.632812 34.21875 -16.21875 C 35.320312 -16.8125 35.875 -17.617188 35.875 -18.640625 C 35.875 -19.585938 35.265625 -20.296875 34.046875 -20.765625 C 32.828125 -21.234375 30.835938 -21.664062 28.078125 -22.0625 C 25.253906 -22.457031 22.71875 -22.929688 20.46875 -23.484375 C 18.226562 -24.035156 16.085938 -24.859375 14.046875 -25.953125 C 8.691406 -28.867188 6.015625 -33.195312 6.015625 -38.9375 C 6.015625 -43.65625 7.253906 -47.785156 9.734375 -51.328125 C 12.210938 -54.867188 15.65625 -57.582031 20.0625 -59.46875 C 24.46875 -61.351562 29.421875 -62.296875 34.921875 -62.296875 C 42.316406 -62.296875 48.195312 -60.625 52.5625 -57.28125 C 56.9375 -53.945312 59.125 -49.445312 59.125 -43.78125 C 59.125 -43.144531 59.039062 -42.203125 58.875 -40.953125 C 58.875 -40.554688 58.65625 -40.238281 58.21875 -40 C 57.789062 -39.757812 57.265625 -39.640625 56.640625 -39.640625 L 40.953125 -39.640625 C 40.316406 -39.640625 39.800781 -39.71875 39.40625 -39.875 C 39.019531 -40.039062 38.828125 -40.203125 38.828125 -40.359375 L 38.9375 -40.953125 C 39.09375 -42.285156 38.660156 -43.320312 37.640625 -44.0625 C 36.617188 -44.8125 35.125 -45.1875 33.15625 -45.1875 C 31.34375 -45.1875 29.828125 -44.851562 28.609375 -44.1875 C 27.390625 -43.519531 26.78125 -42.632812 26.78125 -41.53125 C 26.78125 -40.4375 27.46875 -39.648438 28.84375 -39.171875 C 30.226562 -38.703125 32.453125 -38.269531 35.515625 -37.875 C 35.910156 -37.800781 37.347656 -37.566406 39.828125 -37.171875 C 42.304688 -36.773438 44.6875 -36.144531 46.96875 -35.28125 C 50.507812 -33.945312 53.179688 -32.15625 54.984375 -29.90625 C 56.796875 -27.664062 57.703125 -24.816406 57.703125 -21.359375 C 57.703125 -20.253906 57.660156 -19.390625 57.578125 -18.765625 C 56.796875 -12.316406 53.75 -7.421875 48.4375 -4.078125 C 43.125 -0.734375 36.335938 0.9375 28.078125 0.9375 Z M 28.078125 0.9375 "/></g></g></g><g fill="#27408b" fill-opacity="1"><g transform="translate(304.828075, 194.413835)"><g><path d="M 44.25 -59.125 C 44.332031 -59.832031 44.585938 -60.378906 45.015625 -60.765625 C 45.453125 -61.160156 46.023438 -61.359375 46.734375 -61.359375 L 63.84375 -61.359375 C 64.550781 -61.359375 65.0625 -61.160156 65.375 -60.765625 C 65.6875 -60.378906 65.800781 -59.832031 65.71875 -59.125 L 58.765625 -2.234375 C 58.679688 -1.535156 58.421875 -0.988281 57.984375 -0.59375 C 57.554688 -0.195312 56.988281 0 56.28125 0 L 39.171875 0 C 38.460938 0 37.953125 -0.195312 37.640625 -0.59375 C 37.328125 -0.988281 37.207031 -1.535156 37.28125 -2.234375 L 37.53125 -4.71875 L 37.53125 -4.953125 C 37.53125 -5.265625 37.429688 -5.421875 37.234375 -5.421875 C 37.035156 -5.421875 36.816406 -5.265625 36.578125 -4.953125 C 33.117188 -1.023438 28.554688 0.9375 22.890625 0.9375 C 17.859375 0.9375 13.492188 -0.734375 9.796875 -4.078125 C 6.097656 -7.421875 3.738281 -11.960938 2.71875 -17.703125 C 2.394531 -19.671875 2.234375 -21.875 2.234375 -24.3125 C 2.234375 -26.59375 2.351562 -28.796875 2.59375 -30.921875 C 3.382812 -36.660156 4.878906 -41.691406 7.078125 -46.015625 C 9.441406 -50.816406 12.765625 -54.726562 17.046875 -57.75 C 21.335938 -60.78125 26.195312 -62.296875 31.625 -62.296875 C 36.96875 -62.296875 40.742188 -60.644531 42.953125 -57.34375 C 43.191406 -57.113281 43.390625 -57 43.546875 -57 C 43.859375 -57 44.015625 -57.269531 44.015625 -57.8125 Z M 38 -22.0625 C 39.414062 -24.34375 40.316406 -27.175781 40.703125 -30.5625 C 40.867188 -32.132812 40.953125 -33.273438 40.953125 -33.984375 C 40.953125 -36.109375 40.632812 -37.992188 40 -39.640625 C 38.976562 -42.085938 37.128906 -43.3125 34.453125 -43.3125 C 31.703125 -43.3125 29.539062 -42.007812 27.96875 -39.40625 C 26.625 -37.207031 25.679688 -34.257812 25.140625 -30.5625 C 24.972656 -29.144531 24.890625 -28.082031 24.890625 -27.375 C 24.890625 -25.40625 25.207031 -23.597656 25.84375 -21.953125 C 26.863281 -19.347656 28.710938 -18.046875 31.390625 -18.046875 C 33.984375 -18.046875 36.1875 -19.382812 38 -22.0625 Z M 38 -22.0625 "/></g></g></g><g fill="#27408b" fill-opacity="1"><g transform="translate(369.374121, 194.413835)"><g><path d="M 79.53125 -62.296875 C 84.882812 -62.296875 89.015625 -60.78125 91.921875 -57.75 C 94.828125 -54.726562 96.28125 -50.425781 96.28125 -44.84375 C 96.28125 -43.425781 96.164062 -41.890625 95.9375 -40.234375 L 91.21875 -2.234375 C 91.132812 -1.535156 90.875 -0.988281 90.4375 -0.59375 C 90.007812 -0.195312 89.484375 0 88.859375 0 L 71.625 0 C 71 0 70.507812 -0.195312 70.15625 -0.59375 C 69.800781 -0.988281 69.660156 -1.535156 69.734375 -2.234375 L 73.875 -35.40625 C 73.945312 -35.71875 73.984375 -36.226562 73.984375 -36.9375 C 73.984375 -38.90625 73.507812 -40.457031 72.5625 -41.59375 C 71.625 -42.738281 70.367188 -43.3125 68.796875 -43.3125 C 66.984375 -43.3125 65.425781 -42.582031 64.125 -41.125 C 62.832031 -39.664062 62.03125 -37.757812 61.71875 -35.40625 L 57.578125 -2.234375 C 57.503906 -1.535156 57.25 -0.988281 56.8125 -0.59375 C 56.382812 -0.195312 55.851562 0 55.21875 0 L 38 0 C 37.289062 0 36.773438 -0.195312 36.453125 -0.59375 C 36.140625 -0.988281 36.023438 -1.535156 36.109375 -2.234375 L 40.125 -35.40625 C 40.195312 -35.71875 40.234375 -36.1875 40.234375 -36.8125 C 40.234375 -38.78125 39.738281 -40.351562 38.75 -41.53125 C 37.769531 -42.71875 36.414062 -43.3125 34.6875 -43.3125 C 33.113281 -43.3125 31.71875 -42.796875 30.5 -41.765625 C 29.28125 -40.742188 28.359375 -39.367188 27.734375 -37.640625 C 27.578125 -37.015625 27.5 -36.625 27.5 -36.46875 L 23.25 -2.234375 C 23.164062 -1.535156 22.90625 -0.988281 22.46875 -0.59375 C 22.039062 -0.195312 21.515625 0 20.890625 0 L 3.65625 0 C 2.945312 0 2.4375 -0.195312 2.125 -0.59375 C 1.8125 -0.988281 1.691406 -1.535156 1.765625 -2.234375 L 8.734375 -59.125 C 8.972656 -60.613281 9.796875 -61.359375 11.203125 -61.359375 L 28.3125 -61.359375 C 29.019531 -61.359375 29.53125 -61.160156 29.84375 -60.765625 C 30.164062 -60.378906 30.285156 -59.832031 30.203125 -59.125 L 29.734375 -54.515625 L 29.734375 -54.28125 C 29.734375 -53.96875 29.832031 -53.8125 30.03125 -53.8125 C 30.226562 -53.8125 30.445312 -53.96875 30.6875 -54.28125 C 34.21875 -59.625 39.328125 -62.296875 46.015625 -62.296875 C 49.867188 -62.296875 53.113281 -61.410156 55.75 -59.640625 C 58.382812 -57.878906 60.296875 -55.34375 61.484375 -52.03125 C 61.554688 -51.71875 61.710938 -51.5625 61.953125 -51.5625 C 62.265625 -51.5625 62.5 -51.757812 62.65625 -52.15625 C 66.351562 -58.914062 71.976562 -62.296875 79.53125 -62.296875 Z M 79.53125 -62.296875 "/></g></g></g><g fill="#27408b" fill-opacity="1"><g transform="translate(466.134191, 194.413835)"><g><path d="M -0.125 23.484375 C -0.664062 23.484375 -0.859375 22.734375 -0.703125 21.234375 L 1.0625 7.546875 C 1.144531 6.921875 1.28125 6.390625 1.46875 5.953125 C 1.664062 5.523438 1.84375 5.3125 2 5.3125 L 2.59375 5.3125 C 7.550781 5.3125 11.109375 5.015625 13.265625 4.421875 C 15.429688 3.835938 16.789062 2.5625 17.34375 0.59375 C 17.425781 0.113281 17.425781 -0.28125 17.34375 -0.59375 L 6.71875 -58.765625 L 6.71875 -59.234375 C 6.71875 -60.648438 7.425781 -61.359375 8.84375 -61.359375 L 27.265625 -61.359375 C 28.515625 -61.359375 29.21875 -60.691406 29.375 -59.359375 L 31.734375 -32.328125 C 31.734375 -31.929688 31.894531 -31.734375 32.21875 -31.734375 C 32.445312 -31.734375 32.679688 -31.972656 32.921875 -32.453125 L 41.65625 -59.359375 C 41.96875 -60.691406 42.832031 -61.359375 44.25 -61.359375 L 62.65625 -61.359375 C 63.832031 -61.359375 64.421875 -60.882812 64.421875 -59.9375 C 64.421875 -59.46875 64.34375 -59.078125 64.1875 -58.765625 L 38.46875 0.234375 C 35.71875 6.296875 33.023438 10.898438 30.390625 14.046875 C 27.753906 17.191406 24.15625 19.550781 19.59375 21.125 C 15.03125 22.695312 8.734375 23.484375 0.703125 23.484375 Z M -0.125 23.484375 "/></g></g></g><g fill="#27408b" fill-opacity="1"><g transform="translate(527.258236, 194.413835)"><g><path d="M 42.828125 -59.125 C 43.066406 -60.613281 43.894531 -61.359375 45.3125 -61.359375 L 62.421875 -61.359375 C 63.910156 -61.359375 64.578125 -60.613281 64.421875 -59.125 L 57.34375 -2.234375 C 57.269531 -1.535156 57.015625 -0.988281 56.578125 -0.59375 C 56.148438 -0.195312 55.617188 0 54.984375 0 L 37.765625 0 C 36.347656 0 35.71875 -0.742188 35.875 -2.234375 L 36.21875 -5.078125 L 36.21875 -5.3125 C 36.21875 -5.625 36.117188 -5.800781 35.921875 -5.84375 C 35.734375 -5.882812 35.476562 -5.742188 35.15625 -5.421875 C 31.625 -1.179688 26.628906 0.9375 20.171875 0.9375 C 14.984375 0.9375 10.929688 -0.613281 8.015625 -3.71875 C 5.109375 -6.820312 3.65625 -11.164062 3.65625 -16.75 C 3.65625 -18.644531 3.734375 -20.101562 3.890625 -21.125 L 8.5 -59.125 C 8.726562 -60.613281 9.550781 -61.359375 10.96875 -61.359375 L 28.078125 -61.359375 C 29.578125 -61.359375 30.25 -60.613281 30.09375 -59.125 L 25.953125 -25.953125 C 25.878906 -25.640625 25.84375 -25.171875 25.84375 -24.546875 C 25.84375 -22.578125 26.332031 -21 27.3125 -19.8125 C 28.300781 -18.632812 29.660156 -18.046875 31.390625 -18.046875 C 33.035156 -18.046875 34.46875 -18.554688 35.6875 -19.578125 C 36.914062 -20.609375 37.800781 -21.988281 38.34375 -23.71875 C 38.507812 -23.957031 38.59375 -24.171875 38.59375 -24.359375 C 38.59375 -24.554688 38.628906 -24.734375 38.703125 -24.890625 Z M 42.828125 -59.125 "/></g></g></g><g fill="#27408b" fill-opacity="1"><g transform="translate(590.388281, 194.413835)"><g><path d="M 3.65625 0 C 2.945312 0 2.4375 -0.195312 2.125 -0.59375 C 1.8125 -0.988281 1.691406 -1.535156 1.765625 -2.234375 L 11.328125 -80.359375 C 11.566406 -81.847656 12.394531 -82.59375 13.8125 -82.59375 L 30.921875 -82.59375 C 32.410156 -82.59375 33.078125 -81.847656 32.921875 -80.359375 L 28.90625 -47.671875 L 28.90625 -47.4375 C 28.90625 -47.125 29.003906 -46.945312 29.203125 -46.90625 C 29.398438 -46.863281 29.65625 -47 29.96875 -47.3125 L 40.59375 -59.9375 C 41.300781 -60.882812 42.207031 -61.359375 43.3125 -61.359375 L 62.890625 -61.359375 C 64.066406 -61.359375 64.65625 -60.96875 64.65625 -60.1875 C 64.65625 -59.789062 64.421875 -59.273438 63.953125 -58.640625 L 47.4375 -38.9375 C 47.195312 -38.539062 47.117188 -38.109375 47.203125 -37.640625 L 59.359375 -2.59375 C 59.429688 -2.351562 59.46875 -2.078125 59.46875 -1.765625 C 59.46875 -0.585938 58.800781 0 57.46875 0 L 39.53125 0 C 38.351562 0 37.566406 -0.585938 37.171875 -1.765625 L 30.921875 -23.59375 C 30.835938 -23.988281 30.65625 -24.1875 30.375 -24.1875 C 30.101562 -24.1875 29.890625 -24.03125 29.734375 -23.71875 L 25.484375 -17.8125 L 25.015625 -16.640625 L 23.25 -2.234375 C 23.164062 -1.535156 22.90625 -0.988281 22.46875 -0.59375 C 22.039062 -0.195312 21.515625 0 20.890625 0 Z M 3.65625 0 "/></g></g></g><g fill="#27408b" fill-opacity="1"><g transform="translate(653.872336, 194.413835)"><g><path d="M 46.015625 -45.90625 C 45.941406 -45.195312 45.6875 -44.644531 45.25 -44.25 C 44.820312 -43.851562 44.253906 -43.65625 43.546875 -43.65625 L 34.921875 -43.65625 C 34.378906 -43.65625 34.023438 -43.34375 33.859375 -42.71875 L 31.734375 -25.25 C 31.660156 -24.851562 31.625 -24.265625 31.625 -23.484375 C 31.625 -20.734375 32.800781 -19.359375 35.15625 -19.359375 L 38.9375 -19.359375 C 39.570312 -19.359375 40.066406 -19.160156 40.421875 -18.765625 C 40.773438 -18.367188 40.910156 -17.816406 40.828125 -17.109375 L 39.0625 -2.828125 C 38.820312 -1.410156 38.035156 -0.664062 36.703125 -0.59375 C 33.785156 -0.351562 31.03125 -0.234375 28.4375 -0.234375 C 22.144531 -0.234375 17.460938 -1.117188 14.390625 -2.890625 C 11.328125 -4.660156 9.796875 -7.945312 9.796875 -12.75 C 9.796875 -13.375 9.875 -14.472656 10.03125 -16.046875 L 13.21875 -42.71875 L 13.21875 -42.953125 C 13.21875 -43.421875 12.984375 -43.65625 12.515625 -43.65625 L 7.078125 -43.65625 C 6.367188 -43.65625 5.859375 -43.851562 5.546875 -44.25 C 5.234375 -44.644531 5.113281 -45.195312 5.1875 -45.90625 L 6.84375 -59.125 C 6.925781 -59.832031 7.179688 -60.378906 7.609375 -60.765625 C 8.046875 -61.160156 8.578125 -61.359375 9.203125 -61.359375 L 14.625 -61.359375 C 15.175781 -61.359375 15.53125 -61.671875 15.6875 -62.296875 L 17.34375 -75.640625 C 17.425781 -76.347656 17.679688 -76.894531 18.109375 -77.28125 C 18.546875 -77.675781 19.078125 -77.875 19.703125 -77.875 L 35.984375 -77.875 C 36.691406 -77.875 37.203125 -77.675781 37.515625 -77.28125 C 37.835938 -76.894531 37.957031 -76.347656 37.875 -75.640625 L 36.21875 -62.296875 C 36.21875 -61.671875 36.492188 -61.359375 37.046875 -61.359375 L 45.78125 -61.359375 C 46.414062 -61.359375 46.910156 -61.160156 47.265625 -60.765625 C 47.617188 -60.378906 47.753906 -59.832031 47.671875 -59.125 Z M 46.015625 -45.90625 "/></g></g></g><g fill="#27408b" fill-opacity="1"><g transform="translate(698.594388, 194.413835)"><g><path d="M 44.25 -59.125 C 44.332031 -59.832031 44.585938 -60.378906 45.015625 -60.765625 C 45.453125 -61.160156 46.023438 -61.359375 46.734375 -61.359375 L 63.84375 -61.359375 C 64.550781 -61.359375 65.0625 -61.160156 65.375 -60.765625 C 65.6875 -60.378906 65.800781 -59.832031 65.71875 -59.125 L 58.765625 -2.234375 C 58.679688 -1.535156 58.421875 -0.988281 57.984375 -0.59375 C 57.554688 -0.195312 56.988281 0 56.28125 0 L 39.171875 0 C 38.460938 0 37.953125 -0.195312 37.640625 -0.59375 C 37.328125 -0.988281 37.207031 -1.535156 37.28125 -2.234375 L 37.53125 -4.71875 L 37.53125 -4.953125 C 37.53125 -5.265625 37.429688 -5.421875 37.234375 -5.421875 C 37.035156 -5.421875 36.816406 -5.265625 36.578125 -4.953125 C 33.117188 -1.023438 28.554688 0.9375 22.890625 0.9375 C 17.859375 0.9375 13.492188 -0.734375 9.796875 -4.078125 C 6.097656 -7.421875 3.738281 -11.960938 2.71875 -17.703125 C 2.394531 -19.671875 2.234375 -21.875 2.234375 -24.3125 C 2.234375 -26.59375 2.351562 -28.796875 2.59375 -30.921875 C 3.382812 -36.660156 4.878906 -41.691406 7.078125 -46.015625 C 9.441406 -50.816406 12.765625 -54.726562 17.046875 -57.75 C 21.335938 -60.78125 26.195312 -62.296875 31.625 -62.296875 C 36.96875 -62.296875 40.742188 -60.644531 42.953125 -57.34375 C 43.191406 -57.113281 43.390625 -57 43.546875 -57 C 43.859375 -57 44.015625 -57.269531 44.015625 -57.8125 Z M 38 -22.0625 C 39.414062 -24.34375 40.316406 -27.175781 40.703125 -30.5625 C 40.867188 -32.132812 40.953125 -33.273438 40.953125 -33.984375 C 40.953125 -36.109375 40.632812 -37.992188 40 -39.640625 C 38.976562 -42.085938 37.128906 -43.3125 34.453125 -43.3125 C 31.703125 -43.3125 29.539062 -42.007812 27.96875 -39.40625 C 26.625 -37.207031 25.679688 -34.257812 25.140625 -30.5625 C 24.972656 -29.144531 24.890625 -28.082031 24.890625 -27.375 C 24.890625 -25.40625 25.207031 -23.597656 25.84375 -21.953125 C 26.863281 -19.347656 28.710938 -18.046875 31.390625 -18.046875 C 33.984375 -18.046875 36.1875 -19.382812 38 -22.0625 Z M 38 -22.0625 "/></g></g></g><g fill="#27408b" fill-opacity="1"><g transform="translate(763.140434, 194.413835)"><g><path d="M 65.140625 -43.65625 C 65.453125 -41.769531 65.609375 -39.566406 65.609375 -37.046875 C 65.609375 -34.921875 65.488281 -32.71875 65.25 -30.4375 C 64.46875 -24.78125 63.015625 -19.75 60.890625 -15.34375 C 58.453125 -10.539062 55.085938 -6.625 50.796875 -3.59375 C 46.515625 -0.570312 41.65625 0.9375 36.21875 0.9375 C 30.875 0.9375 27.097656 -0.710938 24.890625 -4.015625 C 24.660156 -4.242188 24.46875 -4.359375 24.3125 -4.359375 C 24 -4.359375 23.84375 -4.085938 23.84375 -3.546875 L 21 19 C 20.925781 19.707031 20.671875 20.253906 20.234375 20.640625 C 19.804688 21.035156 19.238281 21.234375 18.53125 21.234375 L 1.421875 21.234375 C 0.710938 21.234375 0.203125 21.035156 -0.109375 20.640625 C -0.429688 20.253906 -0.550781 19.707031 -0.46875 19 L 9.09375 -59.125 C 9.320312 -60.613281 10.144531 -61.359375 11.5625 -61.359375 L 28.671875 -61.359375 C 29.378906 -61.359375 29.890625 -61.160156 30.203125 -60.765625 C 30.523438 -60.378906 30.644531 -59.832031 30.5625 -59.125 L 30.328125 -56.640625 L 30.328125 -56.40625 C 30.328125 -56.09375 30.425781 -55.9375 30.625 -55.9375 C 30.820312 -55.9375 31.035156 -56.09375 31.265625 -56.40625 C 34.734375 -60.332031 39.296875 -62.296875 44.953125 -62.296875 C 49.992188 -62.296875 54.363281 -60.625 58.0625 -57.28125 C 61.757812 -53.945312 64.117188 -49.40625 65.140625 -43.65625 Z M 39.890625 -21.953125 C 41.222656 -24.148438 42.164062 -27.097656 42.71875 -30.796875 C 42.875 -32.210938 42.953125 -33.273438 42.953125 -33.984375 C 42.953125 -35.953125 42.640625 -37.757812 42.015625 -39.40625 C 40.984375 -42.007812 39.132812 -43.3125 36.46875 -43.3125 C 33.863281 -43.3125 31.660156 -41.972656 29.859375 -39.296875 C 28.441406 -37.015625 27.535156 -34.179688 27.140625 -30.796875 C 26.984375 -29.222656 26.90625 -28.082031 26.90625 -27.375 C 26.90625 -25.25 27.21875 -23.363281 27.84375 -21.71875 C 28.863281 -19.269531 30.710938 -18.046875 33.390625 -18.046875 C 36.148438 -18.046875 38.316406 -19.347656 39.890625 -21.953125 Z M 39.890625 -21.953125 "/></g></g></g><g fill="#27408b" fill-opacity="1"><g transform="translate(828.040457, 194.413835)"><g><path d="M 42.59375 -62.1875 C 44.957031 -62.1875 46.847656 -61.753906 48.265625 -60.890625 C 48.890625 -60.492188 49.203125 -59.941406 49.203125 -59.234375 C 49.203125 -59.078125 49.125 -58.6875 48.96875 -58.0625 L 44.125 -40.703125 C 43.8125 -39.296875 42.945312 -38.785156 41.53125 -39.171875 C 40.664062 -39.410156 39.601562 -39.53125 38.34375 -39.53125 C 37.25 -39.53125 36.148438 -39.410156 35.046875 -39.171875 C 33.003906 -38.785156 31.195312 -37.941406 29.625 -36.640625 C 28.050781 -35.335938 27.144531 -33.585938 26.90625 -31.390625 L 23.25 -2.234375 C 23.164062 -1.535156 22.90625 -0.988281 22.46875 -0.59375 C 22.039062 -0.195312 21.515625 0 20.890625 0 L 3.65625 0 C 2.945312 0 2.4375 -0.195312 2.125 -0.59375 C 1.8125 -0.988281 1.691406 -1.535156 1.765625 -2.234375 L 8.734375 -59.125 C 8.972656 -60.613281 9.796875 -61.359375 11.203125 -61.359375 L 28.3125 -61.359375 C 29.019531 -61.359375 29.53125 -61.160156 29.84375 -60.765625 C 30.164062 -60.378906 30.285156 -59.832031 30.203125 -59.125 L 30.09375 -57.46875 C 30.007812 -57.070312 30.046875 -56.796875 30.203125 -56.640625 C 30.359375 -56.484375 30.597656 -56.5625 30.921875 -56.875 C 34.222656 -60.414062 38.113281 -62.1875 42.59375 -62.1875 Z M 42.59375 -62.1875 "/></g></g></g><g fill="#27408b" fill-opacity="1"><g transform="translate(873.352524, 194.413835)"><g><path d="M 44.25 -59.125 C 44.332031 -59.832031 44.585938 -60.378906 45.015625 -60.765625 C 45.453125 -61.160156 46.023438 -61.359375 46.734375 -61.359375 L 63.84375 -61.359375 C 64.550781 -61.359375 65.0625 -61.160156 65.375 -60.765625 C 65.6875 -60.378906 65.800781 -59.832031 65.71875 -59.125 L 58.765625 -2.234375 C 58.679688 -1.535156 58.421875 -0.988281 57.984375 -0.59375 C 57.554688 -0.195312 56.988281 0 56.28125 0 L 39.171875 0 C 38.460938 0 37.953125 -0.195312 37.640625 -0.59375 C 37.328125 -0.988281 37.207031 -1.535156 37.28125 -2.234375 L 37.53125 -4.71875 L 37.53125 -4.953125 C 37.53125 -5.265625 37.429688 -5.421875 37.234375 -5.421875 C 37.035156 -5.421875 36.816406 -5.265625 36.578125 -4.953125 C 33.117188 -1.023438 28.554688 0.9375 22.890625 0.9375 C 17.859375 0.9375 13.492188 -0.734375 9.796875 -4.078125 C 6.097656 -7.421875 3.738281 -11.960938 2.71875 -17.703125 C 2.394531 -19.671875 2.234375 -21.875 2.234375 -24.3125 C 2.234375 -26.59375 2.351562 -28.796875 2.59375 -30.921875 C 3.382812 -36.660156 4.878906 -41.691406 7.078125 -46.015625 C 9.441406 -50.816406 12.765625 -54.726562 17.046875 -57.75 C 21.335938 -60.78125 26.195312 -62.296875 31.625 -62.296875 C 36.96875 -62.296875 40.742188 -60.644531 42.953125 -57.34375 C 43.191406 -57.113281 43.390625 -57 43.546875 -57 C 43.859375 -57 44.015625 -57.269531 44.015625 -57.8125 Z M 38 -22.0625 C 39.414062 -24.34375 40.316406 -27.175781 40.703125 -30.5625 C 40.867188 -32.132812 40.953125 -33.273438 40.953125 -33.984375 C 40.953125 -36.109375 40.632812 -37.992188 40 -39.640625 C 38.976562 -42.085938 37.128906 -43.3125 34.453125 -43.3125 C 31.703125 -43.3125 29.539062 -42.007812 27.96875 -39.40625 C 26.625 -37.207031 25.679688 -34.257812 25.140625 -30.5625 C 24.972656 -29.144531 24.890625 -28.082031 24.890625 -27.375 C 24.890625 -25.40625 25.207031 -23.597656 25.84375 -21.953125 C 26.863281 -19.347656 28.710938 -18.046875 31.390625 -18.046875 C 33.984375 -18.046875 36.1875 -19.382812 38 -22.0625 Z M 38 -22.0625 "/></g></g></g><g fill="#27408b" fill-opacity="1"><g transform="translate(937.89857, 194.413835)"><g><path d="M 64.546875 -46.015625 C 65.253906 -43.578125 65.609375 -40.628906 65.609375 -37.171875 C 65.609375 -35.128906 65.488281 -33.046875 65.25 -30.921875 C 64.78125 -26.273438 63.679688 -21.867188 61.953125 -17.703125 C 59.585938 -11.960938 56.144531 -7.421875 51.625 -4.078125 C 47.101562 -0.734375 42.285156 0.9375 37.171875 0.9375 C 31.503906 0.9375 27.453125 -1.023438 25.015625 -4.953125 C 24.859375 -5.347656 24.660156 -5.503906 24.421875 -5.421875 C 24.191406 -5.347656 24.035156 -5.113281 23.953125 -4.71875 L 23.59375 -2.234375 C 23.519531 -1.535156 23.265625 -0.988281 22.828125 -0.59375 C 22.398438 -0.195312 21.832031 0 21.125 0 L 4.015625 0 C 3.304688 0 2.789062 -0.195312 2.46875 -0.59375 C 2.15625 -0.988281 2.039062 -1.535156 2.125 -2.234375 L 11.6875 -80.359375 C 11.914062 -81.847656 12.738281 -82.59375 14.15625 -82.59375 L 31.265625 -82.59375 C 31.972656 -82.59375 32.484375 -82.394531 32.796875 -82 C 33.117188 -81.613281 33.238281 -81.066406 33.15625 -80.359375 L 30.4375 -57.8125 L 30.4375 -57.578125 C 30.4375 -57.265625 30.535156 -57.085938 30.734375 -57.046875 C 30.929688 -57.015625 31.1875 -57.113281 31.5 -57.34375 C 34.414062 -60.644531 38.585938 -62.296875 44.015625 -62.296875 C 49.441406 -62.296875 53.925781 -60.78125 57.46875 -57.75 C 61.007812 -54.726562 63.367188 -50.816406 64.546875 -46.015625 Z M 39.890625 -21.953125 C 41.304688 -24.148438 42.25 -27.019531 42.71875 -30.5625 C 42.875 -32.132812 42.953125 -33.234375 42.953125 -33.859375 C 42.953125 -35.910156 42.640625 -37.757812 42.015625 -39.40625 C 40.984375 -42.007812 39.132812 -43.3125 36.46875 -43.3125 C 33.863281 -43.3125 31.738281 -42.085938 30.09375 -39.640625 C 27.96875 -36.421875 26.90625 -32.296875 26.90625 -27.265625 C 26.90625 -25.140625 27.179688 -23.40625 27.734375 -22.0625 C 28.753906 -19.382812 30.640625 -18.046875 33.390625 -18.046875 C 36.066406 -18.046875 38.234375 -19.347656 39.890625 -21.953125 Z M 39.890625 -21.953125 "/></g></g></g><g fill="#27408b" fill-opacity="1"><g transform="translate(1002.798593, 194.413835)"><g><path d="M 44.84375 -62.296875 C 50.113281 -62.296875 54.398438 -60.664062 57.703125 -57.40625 C 61.003906 -54.144531 62.65625 -49.640625 62.65625 -43.890625 C 62.65625 -43.179688 62.578125 -41.960938 62.421875 -40.234375 L 57.703125 -2.234375 C 57.617188 -1.535156 57.359375 -0.988281 56.921875 -0.59375 C 56.492188 -0.195312 55.96875 0 55.34375 0 L 38.109375 0 C 37.398438 0 36.890625 -0.195312 36.578125 -0.59375 C 36.265625 -0.988281 36.144531 -1.535156 36.21875 -2.234375 L 40.234375 -35.40625 C 40.316406 -35.71875 40.359375 -36.1875 40.359375 -36.8125 C 40.359375 -38.78125 39.863281 -40.351562 38.875 -41.53125 C 37.894531 -42.71875 36.539062 -43.3125 34.8125 -43.3125 C 32.84375 -43.3125 31.1875 -42.582031 29.84375 -41.125 C 28.507812 -39.664062 27.6875 -37.757812 27.375 -35.40625 L 23.25 -2.234375 C 23.164062 -1.535156 22.90625 -0.988281 22.46875 -0.59375 C 22.039062 -0.195312 21.515625 0 20.890625 0 L 3.65625 0 C 2.945312 0 2.4375 -0.195312 2.125 -0.59375 C 1.8125 -0.988281 1.691406 -1.535156 1.765625 -2.234375 L 11.328125 -80.359375 C 11.566406 -81.847656 12.394531 -82.59375 13.8125 -82.59375 L 30.921875 -82.59375 C 32.410156 -82.59375 33.078125 -81.847656 32.921875 -80.359375 L 29.859375 -56.046875 L 29.859375 -55.8125 C 29.859375 -55.5 29.953125 -55.300781 30.140625 -55.21875 C 30.335938 -55.144531 30.554688 -55.265625 30.796875 -55.578125 C 34.253906 -60.054688 38.9375 -62.296875 44.84375 -62.296875 Z M 44.84375 -62.296875 "/></g></g></g><g fill="#27408b" fill-opacity="1"><g transform="translate(1065.928671, 194.413835)"><g><path d="M 42.828125 -59.125 C 43.066406 -60.613281 43.894531 -61.359375 45.3125 -61.359375 L 62.421875 -61.359375 C 63.910156 -61.359375 64.578125 -60.613281 64.421875 -59.125 L 57.34375 -2.234375 C 57.269531 -1.535156 57.015625 -0.988281 56.578125 -0.59375 C 56.148438 -0.195312 55.617188 0 54.984375 0 L 37.765625 0 C 36.347656 0 35.71875 -0.742188 35.875 -2.234375 L 36.21875 -5.078125 L 36.21875 -5.3125 C 36.21875 -5.625 36.117188 -5.800781 35.921875 -5.84375 C 35.734375 -5.882812 35.476562 -5.742188 35.15625 -5.421875 C 31.625 -1.179688 26.628906 0.9375 20.171875 0.9375 C 14.984375 0.9375 10.929688 -0.613281 8.015625 -3.71875 C 5.109375 -6.820312 3.65625 -11.164062 3.65625 -16.75 C 3.65625 -18.644531 3.734375 -20.101562 3.890625 -21.125 L 8.5 -59.125 C 8.726562 -60.613281 9.550781 -61.359375 10.96875 -61.359375 L 28.078125 -61.359375 C 29.578125 -61.359375 30.25 -60.613281 30.09375 -59.125 L 25.953125 -25.953125 C 25.878906 -25.640625 25.84375 -25.171875 25.84375 -24.546875 C 25.84375 -22.578125 26.332031 -21 27.3125 -19.8125 C 28.300781 -18.632812 29.660156 -18.046875 31.390625 -18.046875 C 33.035156 -18.046875 34.46875 -18.554688 35.6875 -19.578125 C 36.914062 -20.609375 37.800781 -21.988281 38.34375 -23.71875 C 38.507812 -23.957031 38.59375 -24.171875 38.59375 -24.359375 C 38.59375 -24.554688 38.628906 -24.734375 38.703125 -24.890625 Z M 42.828125 -59.125 "/></g></g></g><path fill="#27408b" d="M 219.617188 169.625 C 219.617188 163.136719 214.691406 157.851562 208.613281 157.851562 L 120.710938 157.851562 C 114.632812 157.851562 109.707031 163.136719 109.707031 169.625 C 109.707031 176.113281 114.625 181.394531 120.710938 181.394531 L 208.613281 181.394531 C 214.691406 181.402344 219.617188 176.121094 219.617188 169.625 Z M 219.617188 169.625 " fill-opacity="1" fill-rule="nonzero"/><g clip-path="url(#5c5e7753e6)"><path fill="#27408b" d="M 57.878906 203.132812 L 95.546875 241.269531 C 104.046875 249.832031 115.792969 253.96875 128.765625 253.96875 C 141.734375 253.96875 153.480469 249.488281 161.996094 240.902344 L 184.601562 217.84375 C 189.054688 213.347656 188.898438 205.90625 184.261719 201.226562 C 179.621094 196.546875 172.25 196.390625 167.804688 200.886719 L 144.433594 223.683594 C 140.398438 227.769531 134.808594 229.472656 128.632812 229.472656 C 122.457031 229.472656 116.878906 227.769531 112.824219 223.683594 L 75.285156 185.53125 C 71.242188 181.445312 69.207031 175.472656 69.207031 169.238281 C 69.207031 163.003906 71.242188 157.371094 75.285156 153.289062 L 112.710938 114.984375 C 116.753906 110.902344 122.457031 109.34375 128.625 109.34375 C 134.789062 109.34375 140.378906 111.050781 144.425781 115.132812 L 167.796875 137.921875 C 172.25 142.425781 179.621094 142.269531 184.261719 137.589844 C 188.898438 132.902344 189.054688 125.460938 184.601562 120.96875 L 161.996094 97.917969 C 156.328125 92.265625 149.148438 88.15625 141.105469 86.285156 L 140.808594 86.222656 L 162.179688 64.335938 C 166.652344 59.839844 166.496094 52.390625 161.859375 47.710938 C 157.21875 43.035156 149.839844 42.886719 145.375 47.378906 L 57.878906 135.703125 C 49.378906 144.289062 44.933594 156.140625 44.933594 169.238281 C 44.933594 182.339844 49.378906 194.5625 57.878906 203.132812 Z M 57.878906 203.132812 " fill-opacity="1" fill-rule="nonzero"/></g></svg>