<svg xmlns="http://www.w3.org/2000/svg" xmlns:xlink="http://www.w3.org/1999/xlink" width="1584" zoomAndPan="magnify" viewBox="0 0 1188 296.999993" height="396" preserveAspectRatio="xMidYMid meet" version="1.0"><defs><g/><clipPath id="1145a45a1c"><path d="M 106 35.054688 L 1079 35.054688 L 1079 267.554688 L 106 267.554688 Z M 106 35.054688 " clip-rule="nonzero"/></clipPath><clipPath id="531584c55a"><path d="M 1074 88 L 1096.804688 88 L 1096.804688 108 L 1074 108 Z M 1074 88 " clip-rule="nonzero"/></clipPath><clipPath id="9429190c04"><path d="M 100.054688 152 L 103 152 L 103 155 L 100.054688 155 Z M 100.054688 152 " clip-rule="nonzero"/></clipPath></defs><g clip-path="url(#1145a45a1c)"><path fill="#ffffff" d="M 148.085938 175.117188 C 147.621094 176.496094 149.523438 176.808594 149.988281 178.246094 L 147.402344 179.046875 C 144.726562 177.578125 143.710938 175.199219 142.71875 172.84375 L 140.136719 175.125 C 139.777344 172.882812 139.472656 171.007812 139.140625 168.933594 L 132.03125 168.933594 L 128.046875 172.84375 C 127.78125 172.050781 127.449219 171.285156 127.046875 170.554688 C 126.136719 169.191406 125.105469 167.902344 123.980469 166.390625 C 123.207031 168.023438 122.546875 169.410156 121.925781 170.714844 L 119.449219 170.714844 L 118.085938 166.820312 L 113.972656 166.527344 L 106.117188 159.390625 C 106.195312 158.539062 106.257812 157.894531 106.355469 156.832031 C 109.226562 155.96875 112.335938 156.566406 115.390625 156.363281 L 118 158.703125 L 119.085938 152.949219 C 120.554688 151.625 122.390625 152.6875 123.902344 152.273438 L 126.070312 150.390625 L 128.6875 152.515625 C 129.03125 150.191406 129.3125 148.304688 129.589844 146.410156 C 133.125 147.546875 133.984375 151.628906 137.535156 152.300781 C 138.5625 154.128906 138.5625 154.128906 141.101562 153.929688 C 141.308594 153.667969 141.6875 153.429688 141.691406 153.15625 C 141.730469 149.757812 141.714844 146.359375 141.714844 143.175781 L 139.613281 140.816406 C 139.640625 139.320312 139.582031 137.894531 141.832031 137.964844 C 143.601562 137.964844 146.496094 141.1875 148.617188 145.746094 C 149.558594 145.984375 150.515625 146.191406 151.4375 146.488281 C 151.742188 146.585938 151.9375 146.929688 152.183594 147.128906 L 152.183594 149.234375 L 155.140625 152.136719 C 157.816406 150.957031 158.226562 148.1875 159.59375 146.082031 C 161.085938 143.769531 164.078125 143.824219 166.105469 142.386719 L 167.601562 143.851562 C 169.488281 143.421875 169.242188 141.808594 168.664062 140.9375 C 167.765625 139.574219 166.089844 138.652344 167.136719 136.609375 C 169.296875 135.113281 171.773438 136.207031 174.085938 135.917969 L 176.28125 133.921875 C 178.429688 133.070312 179.148438 135.253906 180.554688 135.683594 L 183.246094 133.507812 L 186.832031 135.644531 L 189.46875 133.261719 C 189.234375 132.765625 189.136719 132.148438 188.761719 131.859375 C 185.578125 129.425781 181.996094 127.96875 178.015625 127.492188 C 176.457031 125.363281 177.609375 122.925781 177.246094 120.503906 L 173.125 118.605469 L 173.125 116.429688 C 176.195312 112.703125 181.300781 112.269531 184.808594 109.214844 L 197.210938 109.214844 L 199.125 107.34375 L 213.761719 107.34375 L 215.609375 105.53125 C 218.746094 104.425781 222.332031 106.242188 225.726562 104.035156 C 222.4375 102.5 219.308594 103.296875 216.292969 103.167969 C 213.164062 103.03125 210.023438 103.136719 206.882812 103.136719 L 188.765625 103.136719 L 186.730469 101.140625 L 149.175781 101.140625 C 148.394531 100.433594 147.644531 99.746094 146.875 99.035156 L 130.183594 99.035156 L 128.335938 97.226562 L 122.058594 97.226562 L 120.066406 95.265625 L 115.007812 94.683594 L 114.140625 91.007812 L 110.109375 87.898438 C 110.667969 84.082031 113.820312 82.804688 115.761719 80.546875 L 119.746094 80.546875 L 121.929688 78.703125 L 128.085938 78.703125 L 130.738281 80.738281 C 131.03125 79.34375 131.234375 78.410156 131.460938 77.308594 C 133.40625 75.515625 135.941406 76.902344 138.347656 76.515625 L 140.628906 78.511719 L 143.460938 73.179688 L 137.519531 67.292969 L 144.273438 60.679688 C 146.207031 59.644531 148.300781 60.34375 150.75 60.089844 L 153.433594 58.148438 L 161.480469 58.148438 L 163.695312 55.976562 L 182.519531 55.976562 L 184.457031 54.082031 L 205.214844 54.082031 L 207.601562 51.972656 L 236.722656 51.972656 L 238.96875 49.976562 L 241.566406 52.269531 L 245.398438 50.339844 L 247.238281 51.738281 L 249.355469 50.035156 L 251.472656 51.867188 L 252.917969 50.542969 C 253.175781 50.324219 253.417969 49.921875 253.691406 49.921875 C 267.644531 49.890625 281.550781 49.894531 295.410156 49.894531 C 295.972656 49.34375 296.460938 48.859375 296.953125 48.398438 C 297.230469 48.21875 297.503906 47.898438 297.777344 47.898438 C 317.269531 47.898438 336.753906 47.898438 356.058594 47.898438 L 358.089844 45.90625 L 389.675781 45.90625 C 390.074219 44.964844 390.320312 44.382812 390.570312 43.910156 C 395.960938 43.789062 401.347656 43.558594 406.730469 43.296875 C 406.875 43.296875 407 42.851562 407.136719 42.617188 C 399.285156 41.390625 396.171875 41.417969 390.570312 43.910156 C 389.539062 43.816406 388.503906 43.78125 387.46875 43.800781 L 385.277344 41.804688 C 383.003906 40.996094 382.3125 43.234375 380.292969 44.011719 L 376.421875 41.941406 L 353.78125 41.941406 L 351.785156 43.890625 L 297.414062 43.890625 L 295.585938 45.679688 C 293.242188 45.839844 290.875 46.328125 288.363281 45.257812 C 288.296875 44.414062 288.226562 43.488281 288.167969 42.703125 C 288.566406 42.3125 288.8125 41.859375 289.058594 41.859375 C 300.1875 41.824219 311.324219 41.828125 322.398438 41.828125 L 324.679688 39.769531 L 326.855469 41.679688 L 328.679688 39.890625 L 330.953125 41.59375 L 337.484375 41.59375 C 338.351562 41.394531 338.941406 38.960938 341.320312 39.792969 L 343.484375 41.589844 L 345.664062 39.632812 L 418.734375 39.632812 C 419.480469 38.964844 420.226562 38.304688 420.949219 37.636719 L 422.789062 39.4375 L 425.058594 37.777344 L 433.640625 37.777344 L 435.394531 39.492188 L 437.585938 37.710938 L 439.710938 39.59375 L 441.167969 38.230469 C 441.761719 38.027344 442.371094 37.632812 442.976562 37.632812 C 466.300781 37.609375 489.589844 37.597656 512.851562 37.597656 L 515.042969 35.679688 L 517.195312 37.503906 C 519.636719 38.347656 520.1875 35.800781 522.523438 35.453125 L 525.550781 37.324219 L 527.375 35.78125 L 751.5625 35.78125 L 753.335938 37.523438 L 755.558594 35.566406 L 761.75 35.566406 L 763.933594 37.5625 L 768.035156 37.5625 L 770.222656 35.65625 L 784.894531 35.65625 L 786.617188 37.34375 L 790.035156 35.292969 L 793.242188 37.363281 C 793.785156 36.863281 794.507812 36.253906 795.292969 35.578125 L 799.386719 35.578125 L 801.554688 37.511719 L 804.171875 35.222656 L 807.886719 37.128906 L 810.949219 35.292969 L 814.089844 37.316406 L 817.273438 35.101562 L 820.394531 37.503906 C 821.15625 36.828125 821.917969 36.164062 822.996094 35.222656 L 827.535156 37.550781 L 851.878906 37.550781 C 852.269531 38.484375 852.519531 39.050781 852.761719 39.652344 L 847.585938 39.652344 L 845.371094 41.648438 L 843.875 40.152344 C 828.730469 39.179688 803.667969 39.386719 796.457031 40.550781 C 796.609375 40.796875 796.714844 41.167969 796.953125 41.25 C 797.558594 41.503906 798.191406 41.652344 798.847656 41.695312 C 810.988281 41.71875 823.132812 41.695312 835.035156 41.695312 L 837.101562 43.722656 L 858.035156 43.722656 L 860.21875 45.855469 L 887.40625 45.855469 L 889.578125 47.984375 L 920.878906 47.984375 L 922.765625 49.828125 L 935.183594 49.828125 L 937.5 51.925781 L 945.773438 51.925781 L 948.0625 54.015625 L 962.597656 54.015625 L 964.433594 55.8125 C 967.792969 56.421875 971.578125 55.703125 975.289062 56.207031 L 977.121094 58.003906 L 991.765625 58.003906 L 993.757812 60 L 995.957031 58.261719 L 998.132812 60.105469 L 1008.644531 60.105469 L 1011.296875 63.15625 C 1011.109375 63.390625 1010.796875 64.15625 1010.449219 64.191406 C 1006.296875 64.316406 1002.136719 64.308594 997.988281 64.394531 C 997.738281 64.394531 997.492188 64.84375 997.261719 65.074219 C 997.730469 66.800781 999.378906 66.042969 1000.4375 66.53125 L 1004.253906 70.261719 L 1006.507812 68.40625 L 1016.871094 68.40625 L 1019.054688 70.402344 L 1025.230469 70.402344 L 1027.539062 72.503906 L 1031.523438 72.503906 L 1033.925781 74.609375 L 1040.007812 74.609375 C 1040.964844 76.410156 1041.859375 78.101562 1042.796875 79.855469 L 1041.039062 81.753906 C 1042.445312 83.4375 1044.324219 82.382812 1046.023438 82.75 L 1050.417969 78.65625 L 1054.570312 78.65625 C 1056.976562 80.835938 1055.101562 82.1875 1053.34375 83.898438 C 1055.953125 85.316406 1058.550781 84.730469 1060.96875 84.515625 L 1063.5 82.570312 C 1063.722656 84.019531 1063.863281 84.941406 1064.039062 86.0625 L 1060.015625 87.445312 C 1060.515625 88.394531 1061.011719 89.308594 1061.550781 90.261719 C 1060.054688 91.757812 1058.203125 90.351562 1056.828125 91.046875 L 1054.214844 88.753906 L 1053.34375 91.660156 C 1055.753906 92.945312 1058.328125 93.757812 1059.820312 96.320312 C 1058.578125 96.746094 1057.171875 96.910156 1056.203125 97.640625 C 1055.09375 98.480469 1054.210938 99.46875 1052.5 99.054688 C 1050.261719 97.820312 1052.191406 95.355469 1051.007812 93.566406 C 1050.039062 92.355469 1048.515625 93.261719 1047.238281 93 L 1047.238281 87.570312 L 1044.824219 86.667969 C 1042.214844 87.511719 1041.65625 90.550781 1038.964844 90.867188 C 1036.691406 91.144531 1035.640625 92.863281 1034.695312 94.546875 C 1034.460938 97.777344 1038.824219 98.101562 1038.875 101.097656 L 1035.507812 101.097656 C 1035.308594 101.976562 1035.035156 102.828125 1034.6875 103.660156 C 1034.128906 104.644531 1033.507812 105.589844 1032.835938 106.5 L 1035.769531 109.144531 L 1038.898438 106.277344 L 1038.898438 101.097656 L 1040.835938 101.875 L 1040.835938 108.472656 C 1040.625 109.394531 1037.984375 109.898438 1039.523438 112.902344 L 1041.636719 115.082031 C 1043.785156 114.664062 1044.316406 112.351562 1047.257812 111.414062 L 1050.179688 111.414062 L 1052.609375 109.234375 C 1053.609375 110.5 1054.796875 111.6875 1055.601562 113.089844 C 1056.683594 115.011719 1057.199219 117.261719 1058.425781 119.078125 C 1059.558594 120.746094 1061.300781 122.011719 1062.871094 123.570312 L 1069.441406 123.570312 L 1072.855469 127.773438 L 1075.773438 127.773438 C 1076.085938 128.609375 1076.40625 129.496094 1076.898438 130.839844 L 1072.410156 134.222656 L 1072.410156 138.941406 L 1070.417969 141.101562 L 1072.359375 143.222656 C 1072.660156 144.976562 1071.808594 146.773438 1073.453125 148.324219 C 1074.160156 146.828125 1074.8125 145.472656 1075.5 144.023438 L 1078.332031 149.445312 C 1077.964844 149.859375 1077.335938 150.5625 1076.695312 151.285156 L 1078.691406 153.40625 L 1078.691406 157.480469 C 1078.117188 157.820312 1077.5625 158.433594 1077.007812 158.433594 C 1068.722656 158.5 1060.433594 158.480469 1052.585938 158.480469 L 1050.339844 160.679688 L 1041.40625 160.679688 C 1041.800781 163.175781 1043.898438 163.878906 1045.003906 165.410156 C 1044.6875 165.824219 1044.359375 166.613281 1044.007812 166.617188 C 1038.460938 166.691406 1032.914062 166.671875 1027.371094 166.671875 L 1025.085938 171.21875 L 1017.027344 167.160156 L 1008.8125 171.25 L 1006.640625 166.703125 L 1004.433594 166.703125 C 1002.664062 168.015625 1003.730469 169.863281 1003.351562 171.734375 L 1000.660156 174.554688 L 995.871094 175.097656 C 995.578125 175.382812 995.125 175.621094 995.117188 175.867188 C 995.066406 178.582031 995.082031 181.304688 995.082031 183.996094 L 993.03125 186.191406 L 996.019531 189.136719 L 998.234375 187.144531 C 999.933594 187.144531 1001.667969 187.144531 1003.082031 187.078125 C 1003.726562 187.996094 1004.304688 189.074219 1004.90625 189.097656 C 1006.441406 189.144531 1008.207031 189.828125 1009.574219 188.289062 C 1007.847656 186.105469 1005.4375 187.542969 1003.097656 187.078125 C 1004.28125 185.304688 1005.3125 183.445312 1006.1875 181.5 L 1009.371094 180.402344 C 1009.546875 178.871094 1009.734375 177.265625 1009.925781 175.648438 C 1011.339844 174.152344 1013.195312 175.207031 1014.808594 174.847656 L 1017.089844 176.917969 L 1021.457031 176.917969 C 1021.765625 177.753906 1022.089844 178.640625 1022.601562 180.042969 L 1015.933594 185.28125 L 1015.933594 188.214844 C 1017.324219 189.84375 1019.167969 189.019531 1020.800781 189.160156 C 1022.179688 189.273438 1023.582031 189.183594 1024.972656 189.183594 L 1030.023438 189.183594 C 1030.359375 186.375 1028.320312 187.6875 1026.535156 185.191406 C 1026.835938 186.054688 1026.535156 184.832031 1025.976562 183.769531 C 1025.742188 183.339844 1024.851562 183.269531 1024.253906 183.015625 L 1024.253906 175.9375 L 1021.761719 173.378906 L 1025.84375 172.6875 C 1026.117188 174.054688 1026.304688 174.980469 1026.527344 176.054688 L 1031.34375 180.78125 L 1034.609375 181.414062 L 1034.609375 187.972656 L 1037.785156 191.21875 L 1041.992188 191.21875 C 1044.480469 189.089844 1042.09375 186.082031 1043.378906 183.734375 L 1045.144531 183.03125 L 1045.144531 188.050781 L 1047.332031 190.347656 L 1042.523438 194.460938 C 1043.246094 195.664062 1043.9375 196.671875 1044.46875 197.761719 C 1044.996094 198.847656 1045.363281 200.035156 1045.777344 201.121094 C 1047.855469 201.851562 1048.070312 201.746094 1049.328125 199.417969 C 1049.90625 199.191406 1050.90625 199.0625 1050.984375 198.726562 C 1051.269531 197.5 1050.34375 197.296875 1049.328125 197.371094 C 1049.121094 195.207031 1051.667969 195.027344 1052.105469 193.105469 C 1053.832031 194.691406 1055.292969 196.027344 1056.78125 197.40625 L 1061.421875 197.40625 C 1061.578125 198.539062 1061.734375 199.699219 1061.890625 200.898438 C 1056 201.667969 1051.292969 203.753906 1048.027344 207.984375 L 1042.484375 205.289062 C 1039.121094 207.695312 1042.917969 211.601562 1039.851562 213.691406 L 1036.890625 210.796875 C 1037.65625 209.433594 1039.933594 208.757812 1038.273438 206.039062 C 1036.023438 204.863281 1032.871094 205.894531 1029.195312 205.480469 L 1026.464844 208.179688 C 1025.871094 212.109375 1029.457031 212.402344 1030.042969 215.164062 L 1027.875 217.441406 C 1023.828125 219.707031 1021.125 214.425781 1016.160156 216.640625 L 1013.792969 218.3125 L 1010.402344 215.839844 L 1004.605469 215.839844 L 1001.894531 217.867188 C 999.109375 217.921875 998.332031 214.535156 995.460938 216.265625 L 994.808594 218.84375 L 998.203125 221.808594 C 1001.191406 223.359375 1003.386719 220.078125 1006.175781 219.777344 L 1008.550781 221.9375 L 1010.738281 219.941406 C 1013.667969 219.355469 1015.132812 223.675781 1019.503906 221.328125 L 1020.925781 220.261719 L 1024.316406 222.257812 L 1027.640625 220.027344 C 1028.289062 220.90625 1029.078125 221.984375 1029.980469 223.214844 L 1026.492188 224.863281 C 1026.988281 226.578125 1028.683594 225.765625 1029.691406 226.359375 C 1030.40625 226.84375 1031.078125 227.378906 1031.714844 227.964844 L 1033.511719 226.199219 L 1036.128906 228.390625 L 1045.996094 228.390625 L 1036.597656 231.054688 L 1040.824219 233.050781 C 1039.5 235.773438 1036.128906 232.878906 1034.460938 235.675781 C 1037.878906 236.886719 1041.324219 236.054688 1044.640625 236.3125 C 1047.582031 236.542969 1050.667969 235.710938 1054.769531 237.476562 C 1050.527344 238.789062 1047.421875 238.164062 1044.480469 238.359375 L 1040.53125 241.261719 C 1044.332031 243.757812 1048.082031 241.167969 1051.328125 243.257812 C 1050.691406 244.007812 1050.109375 244.699219 1049.390625 245.546875 L 1053.484375 247.445312 L 1053.484375 249.597656 L 1047.59375 252.59375 L 1042.335938 252.59375 L 1039.910156 254.699219 L 1019.175781 254.699219 L 1016.871094 256.800781 L 973.015625 256.800781 C 972.515625 257.296875 972.019531 257.796875 971.054688 258.71875 C 965.035156 259.089844 958.488281 258.628906 951.992188 258.953125 L 950.128906 260.78125 L 906.214844 260.78125 C 905.355469 261.617188 904.863281 262.097656 904.015625 262.9375 L 828.714844 262.9375 L 826.539062 265.0625 L 598.582031 265.0625 L 596.667969 266.9375 L 529.714844 266.9375 L 527.609375 265.101562 L 524.394531 267.492188 L 520.988281 264.9375 L 320.453125 264.9375 L 318.558594 263.082031 L 285.097656 263.082031 L 282.886719 260.914062 L 270.335938 260.914062 L 268.34375 258.972656 L 253.28125 258.972656 L 248.074219 252.636719 L 238.894531 252.636719 C 236.402344 250.367188 238.488281 249.074219 239.945312 247.605469 L 239.945312 243.5625 C 242.566406 241.566406 243.816406 237.808594 248.070312 238.164062 C 247.78125 235.949219 246.195312 234.601562 245.027344 234.421875 C 242.941406 234.101562 242.261719 233.597656 241.910156 231.476562 C 241.683594 230.132812 239.839844 229.042969 239.089844 228.230469 C 235.066406 227.5 236.421875 230.910156 234.867188 232.0625 L 232.625 230.1875 L 226.484375 230.1875 C 225.332031 230.605469 224.988281 232.484375 223.253906 232.179688 C 223.027344 231.613281 222.890625 230.628906 222.546875 230.554688 C 221.296875 230.277344 221.085938 231.183594 221.160156 232.179688 C 219.890625 231.945312 219.226562 232.710938 219.113281 233.734375 C 218.953125 235.105469 219.203125 236.421875 221.160156 236.277344 C 221.40625 236.851562 221.621094 237.917969 221.882812 237.929688 C 224.875 238.0625 226.773438 241.707031 231.414062 239.878906 L 233.820312 237.582031 L 231.457031 234.730469 L 234.589844 234.113281 C 237.183594 236.109375 234.738281 238.753906 235.804688 240.859375 L 237.988281 244.210938 L 233.003906 244.210938 C 228.980469 247.453125 234.996094 248.851562 233.710938 251.390625 C 231.378906 252.933594 231.375 252.941406 228.726562 250.890625 L 225.484375 252.886719 L 221.101562 250.394531 L 217.832031 252.546875 C 217.578125 251.871094 216.859375 250.945312 217.074219 250.335938 C 217.746094 248.472656 218.9375 246.898438 221.0625 246.261719 C 221.402344 247.5625 221.25 249.152344 223.054688 247.757812 C 222.429688 247.210938 221.765625 246.710938 221.0625 246.261719 C 221.9375 243.269531 218.9375 241.335938 218.214844 238.574219 C 217.902344 237.386719 217.140625 236.308594 216.363281 234.730469 C 215.648438 234.488281 214.214844 234.335938 213.296875 233.578125 C 212.175781 232.65625 211.214844 231.871094 209.710938 232.246094 L 203.578125 226.195312 L 201.441406 227.835938 C 199.21875 228.179688 196.8125 228.742188 195.148438 226.132812 L 188.816406 226.132812 L 186.53125 228.128906 C 185.730469 227.132812 184.894531 226.085938 183.664062 224.53125 L 183.664062 220.734375 L 179.371094 217.597656 L 179.371094 212.003906 L 172.71875 206.652344 C 173.21875 205.273438 173.523438 204.386719 173.867188 203.40625 L 176.222656 205.472656 L 178.386719 203.601562 L 181.417969 206.570312 L 181.417969 208.648438 L 186.597656 213.597656 C 187.769531 213.226562 188.09375 211.367188 189.792969 211.699219 C 189.71875 213.769531 191.691406 214.394531 192.820312 215.539062 C 193.273438 215.996094 194.613281 215.613281 195.375 215.613281 C 196.992188 212.617188 195.5 210.488281 194.3125 208.289062 C 195.808594 206.90625 197.625 207.984375 199.234375 207.574219 C 200.796875 205.105469 201.226562 201.832031 205.621094 200.589844 L 200.914062 199.046875 C 200.46875 197.863281 200.03125 196.6875 199.546875 195.40625 C 198.992188 195.902344 198.261719 196.207031 198.214844 196.613281 C 198.121094 197.882812 198.101562 199.152344 198.15625 200.425781 C 196.597656 202.195312 194.734375 201.128906 193.066406 201.480469 L 190.804688 199.425781 L 182.542969 199.425781 L 180.359375 197.460938 L 178.183594 199.3125 C 176.855469 198.015625 175.746094 195.988281 174.371094 195.792969 C 172.175781 195.484375 171.054688 193.628906 169.121094 193.300781 C 168.046875 193.203125 166.972656 193.191406 165.898438 193.269531 L 163.589844 195.316406 L 161.65625 195.316406 C 160.960938 195.28125 160.265625 195.289062 159.574219 195.34375 C 159.292969 195.386719 159.074219 195.800781 158.796875 195.960938 C 156.867188 197.042969 154.921875 198.105469 152.960938 199.183594 L 151.328125 197.585938 L 145.945312 197.585938 L 139.671875 194.222656 C 141.664062 192.285156 144.382812 190.675781 145.359375 188.351562 C 146.335938 186.023438 147.441406 184.390625 149.347656 183.027344 C 151.679688 182.761719 152.519531 183.835938 152.101562 186.160156 L 155.25 188.945312 L 161.925781 188.945312 C 162.421875 187.53125 162.871094 186.34375 163.359375 184.996094 L 165.773438 187.109375 L 172.078125 187.109375 L 174.992188 184.050781 L 171.078125 182.183594 C 171.480469 180.90625 173.398438 180.59375 173.074219 178.929688 C 176.296875 179.632812 178.28125 176.804688 180.988281 176.246094 C 180.324219 174.644531 179.742188 172.988281 178.9375 171.445312 C 178.726562 171.039062 177.832031 170.949219 177.375 171.023438 C 177.03125 169.71875 177.183594 168.136719 175.355469 169.527344 C 175.992188 170.078125 176.664062 170.574219 177.375 171.023438 C 177.261719 172.015625 177.222656 173.015625 177.253906 174.015625 C 175.96875 175.222656 174.503906 176.566406 173.09375 177.960938 C 172.925781 178.132812 173.09375 178.601562 173.09375 178.929688 L 167.613281 178.929688 L 166.445312 182.375 C 164.550781 183.339844 162.671875 183.472656 160.648438 182.167969 L 162.441406 180.058594 C 161.851562 178.722656 159.738281 177.992188 160.558594 175.933594 L 162.632812 173.765625 L 162.632812 168.6875 C 163.320312 168.746094 163.984375 168.652344 164.625 168.402344 C 164.96875 169.707031 164.816406 171.292969 166.621094 169.898438 C 165.992188 169.351562 165.328125 168.851562 164.625 168.402344 C 165.414062 167.492188 166.09375 166.507812 166.664062 165.445312 L 159.214844 158.199219 C 157.777344 160.722656 158.898438 163.476562 157.953125 165.832031 C 157.289062 166.902344 156.539062 168.015625 156.417969 169.1875 C 156.316406 170.152344 157.140625 170.972656 158.410156 170.738281 C 158.15625 172.664062 159.015625 174.730469 157.589844 176.769531 L 155.375 175.019531 L 153.164062 176.800781 L 151.304688 172.929688 C 150.144531 173.527344 149.070312 174.253906 148.085938 175.113281 C 147.742188 173.8125 147.894531 172.230469 146.066406 173.617188 C 146.699219 174.167969 147.375 174.667969 148.085938 175.117188 Z M 983.933594 185.308594 C 985.558594 184.859375 987.175781 185.007812 985.757812 183.214844 C 985.261719 183.773438 984.761719 184.332031 985.101562 184.84375 C 983.480469 185.296875 981.863281 185.148438 983.28125 186.933594 C 983.765625 186.375 984.253906 185.820312 983.933594 185.308594 Z M 202.105469 139.445312 C 202.566406 141.03125 202.414062 142.617188 204.242188 141.226562 C 203.667969 140.753906 203.101562 140.277344 202.578125 140.585938 C 202.117188 138.996094 202.269531 137.414062 200.445312 138.800781 C 201.011719 139.273438 201.582031 139.753906 202.105469 139.445312 Z M 997.066406 103.148438 C 998.40625 102.773438 1000.296875 104.144531 1001.054688 101.949219 C 998.289062 101.050781 998.289062 101.050781 997.269531 103.332031 L 996.863281 102.933594 L 995.152344 104.359375 L 995.8125 105.007812 C 996.347656 104.46875 996.769531 103.847656 997.066406 103.148438 Z M 187.941406 142.632812 C 187.476562 141.046875 187.632812 139.460938 185.800781 140.851562 C 186.359375 141.375 186.992188 141.777344 187.699219 142.0625 L 187.699219 147.242188 L 193.714844 150.136719 L 193.714844 144.90625 L 190.851562 142.0625 C 189.765625 142.0625 188.765625 142.0625 187.941406 142.632812 Z M 204.339844 213.757812 C 207.773438 213.390625 205.527344 217.296875 207.6875 217.847656 C 209.285156 217.492188 211.125 218.566406 212.535156 217.089844 C 212.625 216.441406 212.714844 215.796875 212.808594 215.09375 C 211.242188 212.007812 207.75 211.625 204.710938 209.691406 C 204.570312 211.1875 204.457031 212.46875 204.429688 213.746094 C 202.292969 214.957031 202.292969 214.957031 203.210938 217.667969 C 205.441406 216.914062 204.046875 215.0625 204.339844 213.757812 Z M 226.574219 134.160156 C 228.542969 133.324219 230.386719 131.832031 232.054688 132 C 234.355469 132.234375 235.457031 130.464844 237.234375 130.144531 L 238.730469 131.589844 L 262.277344 131.589844 L 265.3125 128.386719 L 264.316406 125.695312 L 262.003906 125.695312 L 259.769531 127.726562 L 228.507812 127.726562 C 227.511719 129.03125 225.71875 129.71875 225.269531 131.871094 Z M 209.628906 136.15625 C 212.121094 132.308594 215.773438 134.769531 218.371094 133.1875 L 223.464844 130.582031 C 223.164062 129.585938 222.890625 128.6875 222.621094 127.808594 L 218.511719 130.121094 L 215.890625 127.726562 L 209.699219 127.726562 L 207.53125 129.640625 L 205.5625 128.015625 L 202.074219 130.132812 L 199.414062 128.023438 C 198.414062 128.578125 197.417969 129.351562 196.296875 129.710938 C 195.0625 130.105469 193.695312 130.09375 192.394531 130.320312 C 192.261719 130.320312 192.207031 130.769531 192.136719 130.949219 L 194.988281 133.855469 L 199.160156 133.855469 L 201.328125 135.800781 L 203.585938 133.847656 C 205.683594 133.992188 207.945312 133.179688 209.609375 136.171875 Z M 229.136719 201.746094 C 227.191406 202.539062 226.015625 203.007812 224.851562 203.503906 C 222.632812 204.4375 221.5 202.144531 219.453125 201.75 C 219.292969 202.75 219.144531 203.652344 219.015625 204.472656 C 220.355469 205.78125 221.738281 206.851562 222.726562 208.203125 C 223.429688 209.171875 223.597656 210.511719 224.097656 211.953125 L 228.972656 211.953125 C 229.46875 213.453125 229.894531 214.640625 230.109375 215.253906 L 233.816406 213.023438 C 233.691406 210.78125 233.621094 209.488281 233.566406 208.480469 C 231.464844 206.371094 229.210938 204.800781 229.136719 201.746094 Z M 1010.621094 121.589844 C 1009.046875 121.933594 1007.230469 120.890625 1005.316406 122.691406 C 1006.277344 124.058594 1004.222656 126.183594 1006.539062 127.714844 L 1012.710938 127.714844 L 1014.878906 125.785156 L 1017.214844 127.78125 C 1018.621094 127.683594 1019.976562 127.628906 1021.324219 127.46875 C 1021.589844 127.441406 1021.820312 127.019531 1022.113281 126.726562 C 1019.867188 124.902344 1018.582031 121.867188 1015.203125 121.410156 L 1012.78125 123.515625 Z M 238.910156 209.664062 C 241.277344 209.394531 243.679688 210.269531 246.070312 208.953125 C 245.417969 207.953125 244.539062 207.039062 244.230469 205.988281 C 243.789062 204.492188 244.820312 202.660156 243.070312 201.457031 C 240.789062 201.722656 238.386719 200.847656 236 202.160156 L 236 206.652344 Z M 990.410156 176.234375 C 990.644531 173.367188 987.363281 175.992188 986.953125 174.144531 C 986.570312 172.976562 986.183594 171.8125 985.804688 170.652344 C 983.917969 171.078125 982.117188 170.03125 980.292969 171.769531 C 980.402344 173.023438 980.503906 174.601562 980.699219 176.171875 C 980.734375 176.441406 981.128906 176.671875 981.3125 176.871094 C 984.144531 176.871094 986.886719 176.871094 989.621094 176.839844 C 989.878906 176.851562 990.152344 176.464844 990.410156 176.242188 Z M 1053.527344 134.949219 C 1053.847656 135.871094 1052.683594 137.636719 1052.808594 137.632812 L 1060.132812 132.96875 C 1059.441406 130.789062 1060.578125 128.890625 1058.636719 127.71875 C 1057.035156 128.078125 1055.183594 126.996094 1053.78125 128.472656 C 1052.71875 130.542969 1054.28125 131.566406 1055.535156 132.769531 Z M 991.777344 88.808594 C 992.722656 87.660156 994.304688 87.015625 994.664062 85.1875 C 993.140625 84.6875 992.800781 82.460938 990.730469 82.640625 C 985.992188 86.132812 985.589844 86.957031 987.742188 88.804688 Z M 1027.394531 127.726562 L 1031.878906 127.726562 C 1032.375 127.179688 1032.875 126.226562 1033.71875 125.730469 C 1034.558594 125.230469 1036.378906 126.386719 1036.519531 123.617188 C 1032.839844 123.617188 1029.183594 123.582031 1025.523438 123.671875 C 1025.164062 123.671875 1024.832031 124.445312 1024.488281 124.855469 Z M 968.847656 176.886719 C 970.457031 176.519531 972.289062 177.589844 973.757812 176.171875 C 973.5625 174.175781 971.867188 175.097656 970.808594 174.71875 C 968.878906 172.828125 966.925781 170.90625 964.945312 169.011719 C 964.835938 168.910156 964.449219 169.066406 964.230469 169.101562 C 963.742188 171.84375 963.742188 171.84375 968.847656 176.886719 Z M 1043.257812 126.867188 L 1042.390625 122.617188 L 1038.898438 126.742188 C 1039.492188 127.265625 1047.039062 131.867188 1047.371094 131.785156 C 1047.980469 131.585938 1048.558594 131.324219 1049.113281 131.003906 C 1048.210938 128.097656 1044.910156 128.402344 1043.257812 126.867188 Z M 197.597656 185.074219 C 192.023438 185.105469 192.023438 185.105469 189.738281 186.683594 C 191.019531 186.863281 191.972656 187.152344 192.902344 187.09375 C 195.214844 186.941406 197.617188 187.726562 199.828125 186.550781 C 200.246094 184.625 201.011719 182.707031 199.039062 180.820312 C 198.609375 182.089844 198.238281 183.226562 197.597656 185.074219 Z M 177.238281 183.980469 C 178.40625 184.917969 179.070312 186.472656 181.425781 186.902344 C 181.425781 184.574219 181.480469 182.332031 181.371094 180.097656 C 181.371094 179.769531 180.5625 179.472656 180.125 179.160156 C 179.253906 180.542969 177.230469 181.03125 177.238281 183.980469 Z M 999.160156 169.714844 L 996.300781 166.917969 C 994.414062 166.796875 992.398438 165.789062 990.644531 167.84375 C 991.914062 168.253906 993.214844 168.4375 994.226562 169.066406 C 995.238281 169.695312 995.984375 171.0625 997.621094 170.707031 Z M 1007.632812 89.714844 C 1008.628906 90.808594 1009.363281 92.246094 1011.121094 92.53125 L 1013.613281 89.902344 L 1010.753906 86.703125 Z M 213.101562 205.378906 L 212.3125 201.332031 L 208.394531 202.050781 C 208.664062 203.429688 208.84375 204.339844 209.042969 205.378906 Z M 408.785156 42.902344 C 413.832031 43.835938 413.828125 43.789062 415.304688 42.367188 C 413.449219 41.339844 411.601562 41.339844 408.785156 42.902344 Z M 1020.753906 101.617188 C 1021.976562 99.898438 1023.648438 99.320312 1023.882812 97.625 C 1022.664062 96.714844 1021.507812 96.625 1020.023438 98.035156 C 1020.207031 98.925781 1020.433594 100.058594 1020.753906 101.617188 Z M 988.421875 166.246094 C 984.113281 164.507812 984.117188 164.554688 982.59375 166.246094 C 983.59375 166.425781 984.601562 166.546875 985.613281 166.601562 C 986.558594 166.542969 987.492188 166.425781 988.421875 166.246094 Z M 1003.371094 212.726562 C 1001.25 211.011719 999.160156 211.011719 997.035156 212.726562 C 999.160156 214.441406 1001.25 214.441406 1003.371094 212.722656 Z M 226.210938 222.203125 C 227.835938 220.496094 227.75 219.363281 226.519531 217.828125 L 224.203125 218.175781 C 224.816406 219.410156 225.496094 220.78125 226.210938 222.203125 Z M 959.816406 84.421875 L 961.144531 84.351562 C 961.269531 83.445312 961.441406 82.542969 961.476562 81.628906 C 961.476562 81.402344 960.980469 80.929688 960.808594 80.976562 C 960.3125 81.113281 959.507812 81.421875 959.488281 81.703125 C 959.511719 82.625 959.621094 83.535156 959.816406 84.433594 Z M 970.039062 83.679688 C 968.140625 82.351562 966.808594 81.757812 965.941406 83.976562 C 967.167969 85.101562 968.324219 85.03125 970.039062 83.6875 Z M 1026.636719 93.285156 C 1026.636719 93.71875 1026.671875 94.152344 1026.691406 94.582031 C 1027.621094 94.699219 1028.550781 94.875 1029.484375 94.910156 C 1029.714844 94.910156 1030.199219 94.410156 1030.152344 94.257812 C 1030.007812 93.757812 1029.695312 92.980469 1029.40625 92.964844 C 1028.472656 92.984375 1027.546875 93.09375 1026.636719 93.292969 Z M 1032.617188 100.0625 C 1031.21875 98.589844 1029.820312 98.589844 1028.425781 100.0625 C 1029.824219 101.539062 1031.222656 101.542969 1032.625 100.074219 Z M 1039.175781 132.199219 C 1039.175781 132.632812 1039.210938 133.0625 1039.230469 133.496094 C 1040.160156 133.617188 1041.089844 133.792969 1042.023438 133.828125 C 1042.25 133.828125 1042.738281 133.328125 1042.691406 133.171875 C 1042.546875 132.675781 1042.234375 131.894531 1041.945312 131.882812 C 1041.015625 131.902344 1040.09375 132.011719 1039.183594 132.210938 Z M 226.390625 246.679688 C 227.746094 244.820312 228.351562 243.515625 226.085938 242.6875 C 224.949219 243.867188 225.023438 245 226.390625 246.679688 Z M 255.667969 205.554688 C 254.171875 206.921875 254.171875 208.289062 255.667969 209.660156 C 257.175781 208.289062 257.175781 206.921875 255.667969 205.554688 Z M 984.511719 161.523438 C 985.910156 162.992188 987.308594 162.992188 988.703125 161.523438 C 987.308594 160.066406 985.910156 160.066406 984.511719 161.523438 Z M 1035.007812 158.839844 L 1035.066406 160.136719 C 1036 160.253906 1036.925781 160.425781 1037.859375 160.460938 C 1038.089844 160.460938 1038.570312 159.960938 1038.527344 159.8125 C 1038.386719 159.3125 1038.074219 158.535156 1037.785156 158.515625 C 1036.847656 158.535156 1035.921875 158.640625 1035.007812 158.839844 Z M 953.449219 81.9375 L 954.191406 82.667969 C 954.46875 82.234375 954.6875 81.773438 954.847656 81.289062 C 954.882812 81.121094 954.425781 80.84375 954.191406 80.617188 C 953.941406 81.066406 953.691406 81.503906 953.449219 81.9375 Z M 1038.171875 80.910156 L 1036.820312 81.644531 C 1037.054688 81.867188 1037.320312 82.316406 1037.511719 82.28125 C 1038.003906 82.121094 1038.472656 81.910156 1038.914062 81.644531 Z M 983.773438 86.492188 L 984.519531 85.765625 C 984.074219 85.496094 983.605469 85.28125 983.113281 85.121094 C 982.941406 85.085938 982.660156 85.535156 982.429688 85.765625 Z M 588.960938 88.078125 L 588.214844 86.761719 C 587.984375 86.988281 587.523438 87.261719 587.5625 87.4375 C 587.726562 87.917969 587.945312 88.375 588.214844 88.808594 Z M 1004.109375 88.511719 L 1005.460938 87.785156 C 1005.226562 87.554688 1004.960938 87.105469 1004.773438 87.148438 C 1004.277344 87.300781 1003.808594 87.515625 1003.367188 87.785156 Z M 1005.15625 102.417969 C 1004.917969 101.988281 1004.65625 101.546875 1004.414062 101.097656 C 1004.179688 101.328125 1003.71875 101.59375 1003.761719 101.769531 C 1003.917969 102.257812 1004.136719 102.714844 1004.414062 103.148438 Z M 369.347656 114.707031 L 368.605469 113.390625 C 368.371094 113.613281 367.914062 113.890625 367.953125 114.0625 C 368.113281 114.546875 368.332031 115.003906 368.605469 115.4375 Z M 329.167969 119.828125 L 327.824219 120.554688 C 328.058594 120.785156 328.324219 121.234375 328.511719 121.199219 C 329.003906 121.039062 329.472656 120.824219 329.917969 120.554688 Z M 282.554688 127.429688 L 283.90625 126.703125 C 283.671875 126.472656 283.410156 126.023438 283.21875 126.0625 C 282.726562 126.21875 282.257812 126.429688 281.8125 126.703125 Z M 174.851562 141.335938 C 174.609375 140.90625 174.355469 140.457031 174.105469 140.011719 C 173.875 140.242188 173.417969 140.511719 173.453125 140.6875 C 173.613281 141.171875 173.835938 141.632812 174.109375 142.0625 Z M 236.851562 142.0625 C 236.617188 142.289062 236.15625 142.5625 236.191406 142.738281 C 236.355469 143.222656 236.574219 143.679688 236.851562 144.109375 C 237.078125 143.886719 237.542969 143.609375 237.503906 143.4375 C 237.339844 142.953125 237.121094 142.496094 236.851562 142.0625 Z M 207.265625 144.410156 L 206.523438 145.136719 C 206.96875 145.402344 207.4375 145.617188 207.929688 145.777344 C 208.097656 145.8125 208.382812 145.363281 208.617188 145.136719 Z M 177.542969 151.574219 L 178.292969 152.300781 C 178.5625 151.871094 178.78125 151.414062 178.945312 150.929688 C 178.984375 150.761719 178.519531 150.480469 178.292969 150.257812 Z M 169.179688 155.671875 L 169.921875 156.398438 C 170.199219 155.96875 170.414062 155.511719 170.578125 155.027344 C 170.617188 154.855469 170.15625 154.578125 169.921875 154.351562 Z M 980.039062 159.765625 L 979.292969 158.449219 C 979.058594 158.679688 978.601562 158.949219 978.640625 159.121094 C 978.804688 159.605469 979.019531 160.0625 979.292969 160.496094 C 979.523438 160.269531 979.753906 160.039062 980.03125 159.765625 Z M 974.367188 171.464844 L 975.113281 172.789062 C 975.34375 172.558594 975.804688 172.289062 975.765625 172.113281 C 975.601562 171.628906 975.386719 171.171875 975.113281 170.738281 Z M 202.640625 181.710938 L 203.382812 183.027344 C 203.617188 182.796875 204.078125 182.527344 204.042969 182.351562 C 203.878906 181.867188 203.660156 181.410156 203.382812 180.980469 Z M 1009.914062 184.347656 L 1010.664062 185.078125 C 1010.933594 184.644531 1011.152344 184.183594 1011.316406 183.699219 C 1011.355469 183.53125 1010.890625 183.257812 1010.664062 183.027344 C 1010.410156 183.472656 1010.160156 183.917969 1009.914062 184.347656 Z M 252.230469 202.191406 C 251.953125 201.917969 251.730469 201.691406 251.488281 201.460938 C 251.214844 201.894531 251 202.351562 250.835938 202.835938 C 250.796875 203.003906 251.257812 203.285156 251.488281 203.507812 C 251.742188 203.0625 251.992188 202.621094 252.230469 202.191406 Z M 216.238281 205.265625 L 216.980469 204.535156 C 216.539062 204.265625 216.070312 204.050781 215.574219 203.890625 C 215.40625 203.855469 215.121094 204.304688 214.886719 204.535156 Z M 1015.570312 206.285156 C 1015.292969 206.011719 1015.074219 205.789062 1014.828125 205.558594 C 1014.554688 205.988281 1014.335938 206.445312 1014.175781 206.929688 C 1014.136719 207.101562 1014.59375 207.378906 1014.828125 207.605469 Z M 212.800781 208.632812 C 212.566406 208.402344 212.300781 207.953125 212.109375 207.988281 C 211.613281 208.148438 211.140625 208.359375 210.695312 208.632812 C 210.929688 208.855469 211.195312 209.304688 211.382812 209.269531 C 211.878906 209.113281 212.351562 208.898438 212.800781 208.632812 Z M 240.289062 221.207031 L 241.03125 221.933594 C 241.304688 221.5 241.523438 221.042969 241.683594 220.554688 C 241.726562 220.390625 241.265625 220.113281 241.03125 219.882812 C 240.78125 220.34375 240.527344 220.785156 240.289062 221.207031 Z M 240.289062 221.207031 " fill-opacity="1" fill-rule="nonzero"/></g><g clip-path="url(#531584c55a)"><path fill="#ffffff" d="M 1088.96875 98.871094 C 1089.074219 97.84375 1089.113281 96.816406 1089.085938 95.78125 L 1092.238281 94.554688 C 1093.636719 96.375 1095.078125 98.253906 1096.804688 100.492188 L 1095.582031 102.050781 C 1095.4375 103.390625 1095.265625 104.992188 1095.082031 106.878906 C 1094.085938 106.988281 1092.753906 107.53125 1092.261719 107.117188 C 1089.949219 105.167969 1087.867188 102.953125 1085.449219 100.585938 L 1081.308594 103.082031 L 1078.527344 99.089844 L 1075.085938 99.089844 L 1074.382812 95.824219 L 1078.371094 94.28125 C 1077.597656 92.9375 1076.875 91.648438 1076 90.140625 L 1079.6875 88.144531 L 1082.105469 92.601562 L 1080.773438 94.023438 C 1082.269531 94.765625 1083.765625 95.375 1085.105469 96.210938 C 1086.445312 97.050781 1087.183594 98.871094 1088.972656 98.871094 C 1089.316406 100.070312 1089.160156 101.652344 1090.964844 100.261719 C 1090.355469 99.714844 1089.691406 99.253906 1088.96875 98.871094 Z M 1088.96875 98.871094 " fill-opacity="1" fill-rule="nonzero"/></g><path fill="#ffffff" d="M 259.90625 45.800781 L 257.691406 47.796875 L 255.917969 46.058594 L 242.882812 46.058594 L 241.316406 47.574219 L 237.828125 45.546875 L 234.46875 47.800781 L 230.664062 47.800781 C 228.957031 46.558594 229.117188 45.1875 230.5625 43.808594 L 232.753906 45.761719 L 234.648438 43.898438 L 274.1875 43.898438 L 277.308594 41.402344 L 281.917969 44.042969 L 285.027344 41.953125 C 286.328125 42.640625 286.167969 43.839844 285.75 45.027344 C 285.433594 45.347656 285.191406 45.804688 284.953125 45.804688 C 276.582031 45.804688 268.21875 45.800781 259.90625 45.800781 Z M 259.90625 45.800781 " fill-opacity="1" fill-rule="nonzero"/><path fill="#ffffff" d="M 208.617188 47.84375 C 208.378906 48.417969 208.121094 48.992188 207.839844 49.742188 L 182.628906 49.742188 L 180.738281 51.59375 C 178.4375 52.550781 175.699219 51.628906 173.0625 51.941406 C 173.304688 51.363281 173.382812 50.496094 173.816406 50.265625 C 175.207031 49.527344 176.726562 49.03125 179.402344 47.960938 L 188.128906 47.960938 L 191.574219 45.582031 L 196.257812 48.113281 L 199.273438 45.929688 L 201.375 47.832031 Z M 208.617188 47.84375 " fill-opacity="1" fill-rule="nonzero"/><path fill="#ffffff" d="M 1072.773438 91.980469 L 1067.449219 95.75 L 1070.238281 100.558594 L 1070.238281 104.21875 L 1065.085938 109.269531 C 1063.882812 107.773438 1061.515625 107.078125 1061.949219 104.246094 L 1065.882812 102.355469 C 1067.082031 99.953125 1064.527344 98.917969 1063.644531 97.722656 C 1066.386719 93.234375 1068.046875 91.511719 1070.414062 90.9375 C 1070.890625 90.796875 1071.554688 91.390625 1072.773438 91.980469 Z M 1072.773438 91.980469 " fill-opacity="1" fill-rule="nonzero"/><path fill="#ffffff" d="M 867.398438 41.703125 L 870.484375 41.703125 L 872.691406 39.707031 C 873.230469 40.207031 873.71875 40.707031 874.546875 41.519531 L 895.476562 41.519531 C 896.972656 42.921875 897.046875 44.082031 895.976562 45.558594 L 891.238281 45.558594 L 889.398438 43.765625 L 868.285156 43.765625 Z M 867.398438 41.703125 " fill-opacity="1" fill-rule="nonzero"/><path fill="#ffffff" d="M 1080.722656 135.917969 L 1088.148438 135.917969 L 1091.265625 139.410156 L 1087.613281 141.671875 C 1086.765625 144.011719 1087.578125 145.589844 1085.535156 145.964844 L 1084.234375 142.367188 L 1079.453125 141.871094 C 1078.664062 141.097656 1078.664062 141.097656 1080.722656 138.964844 Z M 1080.722656 135.917969 " fill-opacity="1" fill-rule="nonzero"/><path fill="#ffffff" d="M 911.3125 45.195312 C 911.464844 44.023438 911.621094 42.875 911.808594 41.320312 L 914.4375 43.710938 L 916.574219 41.742188 L 918.378906 43.507812 C 921.867188 44.476562 926.007812 42.984375 930.113281 44.28125 C 926.902344 46.214844 925.265625 46.285156 911.3125 45.195312 Z M 911.3125 45.195312 " fill-opacity="1" fill-rule="nonzero"/><path fill="#ffffff" d="M 852.761719 39.652344 C 857.128906 39.652344 861.492188 39.59375 865.855469 39.699219 C 866.105469 39.691406 866.339844 39.738281 866.566406 39.847656 C 866.792969 39.953125 866.980469 40.105469 867.132812 40.300781 C 867.285156 40.5 867.386719 40.722656 867.433594 40.964844 C 867.480469 41.210938 867.46875 41.453125 867.398438 41.695312 L 864.363281 41.695312 C 863.6875 42.320312 862.96875 42.972656 862.210938 43.6875 L 859.875 41.574219 L 853.511719 41.574219 Z M 852.761719 39.652344 " fill-opacity="1" fill-rule="nonzero"/><path fill="#ffffff" d="M 130.347656 143.410156 L 125.816406 144.300781 L 124.054688 148.195312 L 121.859375 148.195312 C 119.644531 146.359375 123.0625 145.984375 122.902344 144.625 C 122.816406 143.429688 122.804688 142.234375 122.867188 141.035156 L 123.863281 140.070312 C 125.015625 141.804688 127.078125 141.925781 130.347656 143.410156 Z M 130.347656 143.410156 " fill-opacity="1" fill-rule="nonzero"/><path fill="#ffffff" d="M 227.820312 46.578125 C 226.769531 47.421875 226.515625 47.804688 226.253906 47.808594 C 222.816406 47.851562 219.375 47.851562 215.933594 47.808594 C 215.691406 47.808594 215.433594 47.367188 215.207031 47.128906 C 217.914062 45.53125 217.914062 45.53125 227.820312 46.578125 Z M 227.820312 46.578125 " fill-opacity="1" fill-rule="nonzero"/><path fill="#ffffff" d="M 152.148438 53.992188 C 150.304688 56.09375 146.734375 57.769531 144.234375 57.570312 C 144.300781 55.753906 146.082031 55.195312 146.945312 53.988281 Z M 152.148438 53.992188 " fill-opacity="1" fill-rule="nonzero"/><path fill="#ffffff" d="M 168.699219 113.089844 L 168.699219 117.082031 L 165.300781 117.714844 C 165.054688 116.445312 164.835938 115.296875 164.566406 113.878906 Z M 168.699219 113.089844 " fill-opacity="1" fill-rule="nonzero"/><path fill="#ffffff" d="M 1019.890625 61.886719 L 1019.890625 65.875 L 1016.492188 66.511719 C 1016.25 65.238281 1016.03125 64.089844 1015.761719 62.671875 Z M 1019.890625 61.886719 " fill-opacity="1" fill-rule="nonzero"/><path fill="#ffffff" d="M 152.167969 53.5625 C 154.832031 51.070312 157.597656 52.320312 160.371094 52.601562 C 157.867188 54.859375 154.839844 53.328125 152.167969 53.5625 Z M 152.167969 53.5625 " fill-opacity="1" fill-rule="nonzero"/><path fill="#ffffff" d="M 136.140625 140.316406 C 138.191406 140.488281 137.082031 142.1875 137.589844 143.066406 C 138.042969 143.84375 139.085938 144.308594 140.613281 145.53125 L 136.253906 146.171875 C 135.117188 143.929688 134.996094 142.125 136.140625 140.316406 Z M 136.140625 140.316406 " fill-opacity="1" fill-rule="nonzero"/><path fill="#ffffff" d="M 1067.796875 82.367188 L 1072.839844 83.300781 C 1071.15625 84.558594 1070.527344 86.136719 1068.5625 86.453125 C 1068.398438 85.519531 1068.21875 84.617188 1067.796875 82.367188 Z M 1067.796875 82.367188 " fill-opacity="1" fill-rule="nonzero"/><path fill="#ffffff" d="M 1047.332031 92.882812 C 1047.238281 94.121094 1047.148438 95.328125 1047.058594 96.566406 C 1044.726562 96.871094 1044.742188 94.464844 1043.167969 94.390625 C 1044.023438 91.894531 1045.921875 93.292969 1047.332031 92.882812 Z M 1047.332031 92.882812 " fill-opacity="1" fill-rule="nonzero"/><path fill="#ffffff" d="M 1047.109375 107.242188 C 1047.398438 105.40625 1047.578125 104.28125 1047.816406 102.753906 C 1048.957031 103.824219 1049.699219 104.445312 1050.34375 105.152344 C 1050.652344 105.582031 1050.90625 106.039062 1051.105469 106.53125 C 1050.539062 106.757812 1049.972656 107.027344 1049.386719 107.207031 C 1049.082031 107.320312 1048.722656 107.242188 1047.109375 107.242188 Z M 1047.109375 107.242188 " fill-opacity="1" fill-rule="nonzero"/><path fill="#ffffff" d="M 112.410156 152.308594 L 112.410156 149.4375 C 113.492188 147.441406 114.941406 148.46875 116.78125 148.199219 C 115.4375 150.546875 114.433594 152.003906 112.410156 152.308594 Z M 112.410156 152.308594 " fill-opacity="1" fill-rule="nonzero"/><path fill="#ffffff" d="M 212.800781 248.566406 L 209.867188 248.566406 C 208.0625 247.480469 208.175781 246.171875 209.371094 244.714844 C 211.003906 245.609375 212.488281 246.589844 212.800781 248.566406 Z M 212.800781 248.566406 " fill-opacity="1" fill-rule="nonzero"/><path fill="#ffffff" d="M 900.699219 42.726562 C 902.414062 41.382812 903.570312 41.3125 904.796875 42.421875 C 903.933594 44.648438 902.601562 44.046875 900.699219 42.726562 Z M 900.699219 42.726562 " fill-opacity="1" fill-rule="nonzero"/><path fill="#ffffff" d="M 208.441406 48.136719 C 209.855469 45.75 209.855469 45.75 212.625 46.636719 C 211.820312 48.773438 209.917969 47.347656 208.441406 48.136719 Z M 208.441406 48.136719 " fill-opacity="1" fill-rule="nonzero"/><path fill="#ffffff" d="M 173.0625 51.941406 C 171.828125 54.039062 171.828125 54.039062 169.078125 53.140625 C 169.828125 50.949219 171.71875 52.316406 173.0625 51.941406 Z M 173.0625 51.941406 " fill-opacity="1" fill-rule="nonzero"/><path fill="#ffffff" d="M 1030.238281 67.9375 C 1029.324219 68.132812 1028.402344 68.242188 1027.46875 68.261719 C 1027.179688 68.261719 1026.863281 67.449219 1026.71875 66.964844 C 1026.675781 66.816406 1027.164062 66.304688 1027.394531 66.316406 C 1028.324219 66.351562 1029.25 66.519531 1030.183594 66.640625 C 1030.203125 67.074219 1030.222656 67.535156 1030.238281 67.9375 Z M 1030.238281 67.9375 " fill-opacity="1" fill-rule="nonzero"/><path fill="#ffffff" d="M 1055.53125 102.167969 C 1057.179688 100.609375 1058.332031 101.027344 1059.648438 101.59375 C 1058.695312 104.046875 1057.363281 103.457031 1055.53125 102.167969 Z M 1055.53125 102.167969 " fill-opacity="1" fill-rule="nonzero"/><path fill="#ffffff" d="M 163.648438 121.578125 C 165.15625 122.945312 165.15625 124.3125 163.648438 125.683594 C 162.152344 124.3125 162.152344 122.945312 163.648438 121.578125 Z M 163.648438 121.578125 " fill-opacity="1" fill-rule="nonzero"/><path fill="#ffffff" d="M 157.371094 125.519531 C 158.734375 127.199219 158.808594 128.332031 157.671875 129.511719 C 155.417969 128.683594 156.023438 127.40625 157.371094 125.519531 Z M 157.371094 125.519531 " fill-opacity="1" fill-rule="nonzero"/><path fill="#ffffff" d="M 212.804688 241.402344 C 211.402344 242.871094 210.003906 242.871094 208.613281 241.402344 C 210 239.929688 211.398438 239.929688 212.804688 241.402344 Z M 212.804688 241.402344 " fill-opacity="1" fill-rule="nonzero"/><path fill="#ffffff" d="M 223.253906 232.179688 C 223.253906 233.105469 223.523438 234.140625 223.171875 234.914062 C 222.886719 235.535156 221.859375 235.832031 221.175781 236.277344 L 221.175781 232.179688 Z M 223.253906 232.179688 " fill-opacity="1" fill-rule="nonzero"/><path fill="#ffffff" d="M 189.792969 211.726562 L 189.792969 207.628906 C 191.757812 207.484375 192 208.800781 191.84375 210.171875 C 191.726562 211.171875 191.070312 211.933594 189.792969 211.726562 Z M 189.792969 211.726562 " fill-opacity="1" fill-rule="nonzero"/><path fill="#ffffff" d="M 189.792969 207.605469 C 187.652344 206.398438 187.652344 206.398438 188.566406 203.683594 C 190.804688 204.445312 189.410156 206.292969 189.792969 207.605469 Z M 189.792969 207.605469 " fill-opacity="1" fill-rule="nonzero"/><path fill="#ffffff" d="M 136.464844 191.214844 C 137.964844 192.589844 137.964844 193.957031 136.464844 195.320312 C 134.964844 193.949219 134.964844 192.582031 136.464844 191.214844 Z M 136.464844 191.214844 " fill-opacity="1" fill-rule="nonzero"/><path fill="#ffffff" d="M 139.601562 188.144531 C 138.207031 189.617188 136.808594 189.617188 135.410156 188.144531 C 136.8125 186.679688 138.210938 186.679688 139.601562 188.144531 Z M 139.601562 188.144531 " fill-opacity="1" fill-rule="nonzero"/><path fill="#ffffff" d="M 158.425781 182.003906 C 157.027344 183.476562 155.636719 183.476562 154.234375 182.003906 C 155.636719 180.53125 157.027344 180.53125 158.425781 182.003906 Z M 158.425781 182.003906 " fill-opacity="1" fill-rule="nonzero"/><path fill="#ffffff" d="M 137.507812 152.300781 C 137.894531 150.988281 136.511719 149.144531 138.730469 148.378906 C 139.648438 151.09375 139.648438 151.09375 137.507812 152.300781 Z M 137.507812 152.300781 " fill-opacity="1" fill-rule="nonzero"/><path fill="#ffffff" d="M 908.484375 41.996094 L 909.226562 42.726562 C 908.785156 42.996094 908.316406 43.207031 907.824219 43.363281 C 907.652344 43.40625 907.371094 42.949219 907.136719 42.726562 Z M 908.484375 41.996094 " fill-opacity="1" fill-rule="nonzero"/><path fill="#ffffff" d="M 934.023438 45.082031 L 933.28125 45.808594 C 933.007812 45.378906 932.789062 44.917969 932.625 44.433594 C 932.585938 44.261719 933.046875 43.988281 933.28125 43.757812 C 933.527344 44.191406 933.78125 44.636719 934.023438 45.082031 Z M 934.023438 45.082031 " fill-opacity="1" fill-rule="nonzero"/><path fill="#ffffff" d="M 164.398438 50.625 L 163.648438 51.941406 C 163.421875 51.710938 162.957031 51.441406 162.996094 51.269531 C 163.160156 50.785156 163.378906 50.328125 163.648438 49.894531 Z M 164.398438 50.625 " fill-opacity="1" fill-rule="nonzero"/><path fill="#ffffff" d="M 116.003906 76.753906 C 116.855469 75.753906 117.339844 75.21875 117.828125 74.664062 C 119.25 76.449219 117.632812 76.300781 116.003906 76.753906 Z M 116.003906 76.753906 " fill-opacity="1" fill-rule="nonzero"/><path fill="#ffffff" d="M 117.175781 76.289062 L 115.355469 78.378906 C 113.9375 76.589844 115.554688 76.738281 117.175781 76.289062 Z M 117.175781 76.289062 " fill-opacity="1" fill-rule="nonzero"/><path fill="#ffffff" d="M 1066.320312 93.476562 L 1064.183594 91.691406 C 1066.011719 90.304688 1065.859375 91.890625 1066.320312 93.476562 Z M 1066.320312 93.476562 " fill-opacity="1" fill-rule="nonzero"/><path fill="#ffffff" d="M 136.765625 117.1875 L 135.441406 116.457031 C 135.675781 116.234375 135.941406 115.78125 136.128906 115.820312 C 136.621094 115.980469 137.089844 116.191406 137.535156 116.457031 Z M 136.765625 117.1875 " fill-opacity="1" fill-rule="nonzero"/><path fill="#ffffff" d="M 150.292969 126.246094 L 148.160156 124.460938 C 149.984375 123.074219 149.835938 124.660156 150.292969 126.246094 Z M 150.292969 126.246094 " fill-opacity="1" fill-rule="nonzero"/><path fill="#ffffff" d="M 152.148438 127.726562 C 150.703125 127.78125 150.003906 127.097656 150.058594 125.679688 C 151.503906 125.625 152.199219 126.308594 152.148438 127.726562 Z M 152.148438 127.726562 " fill-opacity="1" fill-rule="nonzero"/><path fill="#ffffff" d="M 151.886719 127.15625 L 154.027344 128.9375 C 152.222656 130.328125 152.386719 128.742188 151.886719 127.15625 Z M 151.886719 127.15625 " fill-opacity="1" fill-rule="nonzero"/><path fill="#ffffff" d="M 1079.363281 129.480469 L 1078.621094 128.746094 C 1079.066406 128.480469 1079.535156 128.269531 1080.027344 128.109375 C 1080.195312 128.074219 1080.480469 128.523438 1080.714844 128.746094 Z M 1079.363281 129.480469 " fill-opacity="1" fill-rule="nonzero"/><path fill="#ffffff" d="M 1080.957031 136.492188 L 1078.824219 134.703125 C 1080.648438 133.316406 1080.5 134.890625 1080.957031 136.492188 Z M 1080.957031 136.492188 " fill-opacity="1" fill-rule="nonzero"/><path fill="#ffffff" d="M 150.359375 139.285156 L 151.101562 137.96875 C 151.335938 138.191406 151.792969 138.46875 151.757812 138.640625 C 151.59375 139.125 151.375 139.582031 151.101562 140.011719 Z M 150.359375 139.285156 " fill-opacity="1" fill-rule="nonzero"/><path fill="#ffffff" d="M 155.285156 146.160156 C 155.558594 146.59375 155.777344 147.050781 155.9375 147.53125 C 155.980469 147.703125 155.515625 147.980469 155.285156 148.207031 C 155.011719 147.773438 154.796875 147.316406 154.632812 146.832031 C 154.59375 146.664062 155.050781 146.363281 155.285156 146.160156 Z M 155.285156 146.160156 " fill-opacity="1" fill-rule="nonzero"/><g clip-path="url(#9429190c04)"><path fill="#ffffff" d="M 102.195312 154.921875 L 100.054688 153.140625 C 101.886719 151.75 101.730469 153.351562 102.195312 154.921875 Z M 102.195312 154.921875 " fill-opacity="1" fill-rule="nonzero"/></g><path fill="#ffffff" d="M 113.015625 152.074219 L 111.195312 154.164062 C 109.753906 152.351562 111.375 152.523438 113.015625 152.074219 Z M 113.015625 152.074219 " fill-opacity="1" fill-rule="nonzero"/><path fill="#ffffff" d="M 101.714844 153.777344 L 103.855469 155.566406 C 102.050781 156.953125 102.179688 155.371094 101.714844 153.777344 Z M 101.714844 153.777344 " fill-opacity="1" fill-rule="nonzero"/><path fill="#ffffff" d="M 162.601562 168.6875 L 160.515625 168.6875 C 160.742188 168.125 160.878906 167.140625 161.21875 167.066406 C 162.472656 166.785156 162.675781 167.695312 162.601562 168.6875 Z M 162.601562 168.6875 " fill-opacity="1" fill-rule="nonzero"/><path fill="#ffffff" d="M 160.515625 168.6875 C 160.570312 170.109375 159.871094 170.789062 158.421875 170.738281 C 158.367188 169.316406 159.0625 168.636719 160.515625 168.6875 Z M 160.515625 168.6875 " fill-opacity="1" fill-rule="nonzero"/><path fill="#ffffff" d="M 137.207031 174.105469 L 136.464844 174.835938 C 136.1875 174.402344 135.972656 173.941406 135.808594 173.457031 C 135.769531 173.292969 136.230469 173.011719 136.464844 172.789062 Z M 137.207031 174.105469 " fill-opacity="1" fill-rule="nonzero"/><path fill="#ffffff" d="M 1044.585938 183.285156 L 1046.40625 181.195312 C 1047.828125 182.957031 1046.207031 182.789062 1044.585938 183.285156 Z M 1044.585938 183.285156 " fill-opacity="1" fill-rule="nonzero"/><path fill="#ffffff" d="M 1000.503906 184.78125 L 999.160156 184.054688 C 999.390625 183.828125 999.660156 183.375 999.847656 183.414062 C 1000.339844 183.578125 1000.804688 183.789062 1001.25 184.054688 Z M 1000.503906 184.78125 " fill-opacity="1" fill-rule="nonzero"/><path fill="#ffffff" d="M 1024.835938 182.789062 L 1023.015625 184.882812 C 1021.597656 183.097656 1023.214844 183.246094 1024.835938 182.789062 Z M 1024.835938 182.789062 " fill-opacity="1" fill-rule="nonzero"/><path fill="#ffffff" d="M 1049.351562 199.410156 C 1048.355469 199.488281 1047.40625 199.28125 1047.691406 198.054688 C 1047.769531 197.71875 1048.773438 197.589844 1049.351562 197.367188 Z M 1049.351562 199.410156 " fill-opacity="1" fill-rule="nonzero"/><path fill="#ffffff" d="M 1035.753906 221.945312 C 1036.03125 222.375 1036.25 222.832031 1036.414062 223.316406 C 1036.449219 223.484375 1035.988281 223.765625 1035.753906 223.988281 C 1035.484375 223.558594 1035.265625 223.101562 1035.101562 222.617188 C 1035.0625 222.449219 1035.507812 222.171875 1035.753906 221.945312 Z M 1035.753906 221.945312 " fill-opacity="1" fill-rule="nonzero"/><path fill="#ffffff" d="M 212.558594 247.996094 L 214.699219 249.785156 C 212.867188 251.171875 213.023438 249.589844 212.558594 247.996094 Z M 212.558594 247.996094 " fill-opacity="1" fill-rule="nonzero"/><path fill="#ffffff" d="M 238.640625 203.808594 L 239.984375 204.535156 C 239.757812 204.761719 239.488281 205.210938 239.296875 205.175781 C 238.804688 205.015625 238.339844 204.800781 237.898438 204.535156 Z M 238.640625 203.808594 " fill-opacity="1" fill-rule="nonzero"/><g fill="#121416" fill-opacity="1"><g transform="translate(120.900615, 188.29742)"><g><path d="M 60.734375 -59.621094 C 61.722656 -60.113281 62.710938 -60.484375 63.453125 -61.226562 C 69.390625 -67.90625 75.453125 -74.585938 81.265625 -81.636719 C 84.484375 -85.597656 86.710938 -90.171875 88.070312 -95.246094 C 90.421875 -104.027344 86.957031 -109.964844 78.050781 -112.191406 C 77.308594 -112.4375 76.566406 -112.5625 75.824219 -112.5625 C 70.753906 -113.054688 65.679688 -112.933594 60.734375 -111.695312 C 51.085938 -109.222656 42.179688 -105.140625 34.015625 -99.820312 C 23.996094 -93.265625 14.71875 -85.84375 6.0625 -77.679688 C 3.339844 -75.082031 0.742188 -72.359375 -1.484375 -69.269531 C -3.214844 -66.917969 -4.453125 -64.074219 -5.566406 -61.351562 C -7.050781 -57.148438 -6.183594 -52.941406 -3.214844 -49.601562 C -0.988281 -47.128906 1.609375 -44.777344 4.328125 -43.046875 C 8.164062 -40.570312 12.246094 -38.46875 16.328125 -36.738281 C 24.492188 -33.148438 32.777344 -30.058594 40.941406 -26.59375 C 46.757812 -24.121094 52.695312 -21.523438 58.382812 -18.679688 C 61.351562 -17.070312 64.195312 -15.089844 66.671875 -12.863281 C 72.359375 -7.667969 73.472656 -0.867188 70.382812 6.183594 C 69.019531 9.402344 67.042969 11.257812 63.453125 12.121094 C 48.984375 15.460938 35.003906 20.65625 21.398438 26.71875 C 18.429688 28.078125 15.585938 29.4375 12.863281 31.046875 C 11.132812 32.160156 9.523438 33.644531 8.164062 35.128906 C 7.050781 36.367188 7.296875 38.222656 8.78125 39.085938 C 10.761719 40.078125 12.863281 41.066406 14.96875 41.191406 C 18.429688 41.5625 21.894531 41.683594 25.109375 41.066406 C 44.28125 37.480469 60.734375 28.820312 73.722656 14.347656 C 75.949219 11.875 78.175781 9.894531 81.761719 9.277344 C 80.523438 8.90625 79.78125 8.660156 78.667969 8.289062 C 79.039062 7.050781 79.410156 6.183594 79.78125 5.320312 C 83.617188 -3.957031 80.894531 -11.378906 74.09375 -16.824219 C 70.753906 -19.542969 67.042969 -22.015625 63.207031 -23.871094 C 56.527344 -27.210938 49.476562 -30.179688 42.550781 -33.148438 C 35.996094 -35.996094 29.316406 -38.46875 22.882812 -41.5625 C 18.800781 -43.417969 14.71875 -45.765625 11.132812 -48.363281 C 5.320312 -52.816406 4.207031 -58.507812 7.792969 -64.816406 C 9.648438 -68.15625 12 -71.125 14.597656 -73.84375 C 23.128906 -82.75 32.53125 -90.542969 42.675781 -97.472656 C 48.734375 -101.675781 55.292969 -105.015625 62.339844 -107.242188 C 64.816406 -107.984375 67.414062 -108.601562 70.011719 -108.851562 C 75.082031 -109.222656 78.421875 -106.128906 78.546875 -101.179688 C 78.667969 -99.078125 78.546875 -96.851562 77.804688 -94.996094 C 76.441406 -90.914062 74.957031 -86.832031 72.980469 -83 C 70.503906 -78.296875 67.535156 -73.96875 64.9375 -69.390625 C 63.207031 -66.546875 61.597656 -63.578125 59.992188 -60.609375 C 60.238281 -60.238281 60.484375 -59.867188 60.734375 -59.621094 Z M 17.8125 36.738281 C 17.195312 35.625 18.058594 35.003906 18.800781 34.511719 C 20.78125 33.027344 22.757812 31.542969 24.863281 30.429688 C 36.488281 24.121094 48.734375 19.171875 61.226562 15.089844 C 62.09375 14.84375 62.960938 14.597656 64.195312 14.347656 C 56.15625 26.46875 29.6875 39.085938 17.8125 36.738281 Z M 17.8125 36.738281 "/></g></g></g><g fill="#121416" fill-opacity="1"><g transform="translate(217.75278, 188.29742)"><g><path d="M 40.449219 -22.882812 C 41.191406 -26.839844 41.808594 -30.675781 42.304688 -34.632812 C 42.550781 -36.738281 41.4375 -37.726562 39.335938 -37.851562 C 37.726562 -37.972656 36.367188 -37.601562 35.128906 -36.488281 C 34.386719 -35.746094 33.519531 -35.003906 32.53125 -34.015625 C 32.40625 -34.882812 32.160156 -35.375 32.285156 -35.871094 C 32.65625 -40.199219 31.417969 -41.933594 27.335938 -42.179688 C 25.480469 -42.304688 23.5 -42.054688 21.894531 -41.3125 C 19.542969 -40.199219 17.195312 -38.839844 15.214844 -37.109375 C 7.667969 -29.933594 2.226562 -21.398438 -1.113281 -11.628906 C -1.730469 -9.894531 -1.980469 -7.917969 -2.101562 -6.0625 C -2.226562 -2.472656 -0.742188 -0.988281 2.96875 -0.867188 C 5.691406 -0.742188 8.289062 -1.730469 10.390625 -3.214844 C 13.234375 -5.320312 16.082031 -7.546875 18.679688 -10.019531 C 22.265625 -13.605469 25.605469 -17.441406 29.066406 -21.152344 C 30.058594 -22.265625 31.171875 -23.253906 32.65625 -24.738281 C 32.777344 -23.253906 32.902344 -22.636719 32.902344 -21.894531 C 32.40625 -17.8125 31.914062 -13.730469 31.417969 -9.648438 C 30.921875 -4.453125 31.292969 0.617188 32.285156 5.566406 C 33.398438 10.390625 35.128906 11.503906 40.449219 11.257812 C 38.097656 9.773438 37.355469 7.546875 37.355469 5.070312 C 37.480469 0.125 37.480469 -4.699219 37.972656 -9.648438 C 38.46875 -14.101562 39.707031 -18.429688 40.449219 -22.882812 Z M 4.578125 -4.949219 C 4.207031 -9.523438 6.183594 -12.742188 7.792969 -16.082031 C 12.988281 -26.097656 19.171875 -33.769531 24.984375 -37.355469 C 27.335938 -34.140625 24.242188 -30.179688 26.839844 -27.460938 C 21.644531 -18.429688 11.75 -8.289062 4.578125 -4.949219 Z M 4.578125 -4.949219 "/></g></g></g><g fill="#121416" fill-opacity="1"><g transform="translate(265.127476, 188.29742)"><g><path d="M 85.347656 -25.234375 C 84.234375 -24.242188 83 -23.128906 81.761719 -22.015625 C 77.554688 -18.308594 73.472656 -14.472656 69.144531 -10.761719 C 68.648438 -10.265625 67.785156 -10.019531 66.300781 -9.277344 C 66.792969 -11.503906 66.792969 -12.988281 67.289062 -14.347656 C 69.144531 -20.160156 71.125 -25.851562 72.980469 -31.542969 C 73.597656 -33.644531 74.214844 -35.871094 74.464844 -38.097656 C 74.710938 -39.828125 73.597656 -40.941406 71.988281 -41.3125 C 69.390625 -41.808594 67.042969 -41.683594 65.1875 -39.582031 C 63.207031 -37.601562 61.351562 -35.375 59.496094 -33.273438 C 55.414062 -28.574219 51.085938 -24.242188 45.890625 -20.53125 C 45.148438 -20.039062 44.40625 -18.925781 42.921875 -19.789062 C 43.292969 -23.378906 44.777344 -26.71875 45.765625 -30.058594 C 46.386719 -32.160156 47.003906 -34.386719 47.375 -36.613281 C 47.621094 -38.964844 46.632812 -40.324219 44.40625 -40.695312 C 42.675781 -41.066406 40.695312 -41.191406 38.964844 -40.695312 C 37.109375 -40.199219 35.375 -39.210938 34.015625 -37.972656 C 29.808594 -34.261719 25.726562 -30.304688 21.769531 -26.347656 C 17.070312 -21.644531 12.617188 -16.824219 8.039062 -12 C 7.296875 -11.257812 6.433594 -10.761719 4.578125 -9.402344 C 5.195312 -11.75 5.441406 -12.988281 5.9375 -14.226562 C 7.296875 -18.058594 8.78125 -21.894531 10.144531 -25.851562 C 10.761719 -27.335938 11.875 -29.066406 10.019531 -30.429688 C 8.78125 -31.417969 7.050781 -30.429688 5.691406 -27.953125 C 2.472656 -22.015625 0 -15.710938 -1.730469 -9.152344 C -1.980469 -8.410156 -2.101562 -7.667969 -2.101562 -6.925781 C -2.226562 -5.070312 -0.988281 -3.464844 0.867188 -3.585938 C 2.472656 -3.585938 4.207031 -3.957031 5.691406 -4.699219 C 7.296875 -5.566406 8.660156 -7.050781 10.019531 -8.289062 C 17.6875 -15.214844 25.355469 -22.265625 33.027344 -29.316406 C 34.386719 -30.550781 35.871094 -31.664062 38.097656 -33.644531 C 37.480469 -30.675781 36.859375 -28.945312 36.488281 -27.210938 C 35.746094 -24.367188 35.003906 -21.398438 34.757812 -18.429688 C 34.511719 -15.089844 36.117188 -13.605469 39.457031 -13.359375 C 42.054688 -13.234375 44.28125 -14.101562 46.386719 -15.585938 C 50.46875 -18.679688 54.425781 -21.769531 58.382812 -24.984375 C 59.867188 -26.097656 61.105469 -27.335938 63.332031 -29.4375 C 62.835938 -27.335938 62.710938 -26.46875 62.464844 -25.726562 C 61.351562 -22.511719 60.113281 -19.296875 59.25 -16.082031 C 58.628906 -13.730469 58.136719 -11.257812 58.011719 -8.78125 C 57.765625 -5.691406 59.496094 -3.957031 62.589844 -3.464844 C 65.558594 -2.96875 68.277344 -3.835938 70.503906 -5.8125 C 73.351562 -8.410156 76.320312 -11.132812 79.039062 -13.976562 C 81.636719 -16.824219 83.863281 -19.789062 86.214844 -22.757812 C 86.832031 -23.5 86.957031 -24.492188 85.347656 -25.234375 Z M 85.347656 -25.234375 "/></g></g></g><g fill="#121416" fill-opacity="1"><g transform="translate(345.652064, 188.29742)"><g><path d="M 59.992188 -11.132812 C 53.808594 -6.925781 47.621094 -2.472656 41.4375 1.730469 C 40.078125 2.84375 38.839844 4.453125 36.488281 4.578125 C 36.613281 3.710938 36.738281 2.96875 36.859375 2.226562 C 37.972656 -2.472656 39.210938 -7.175781 40.199219 -12 C 41.066406 -16.699219 41.3125 -21.398438 40.449219 -26.097656 C 39.582031 -31.171875 35.253906 -33.273438 30.675781 -30.921875 C 29.316406 -30.304688 28.078125 -29.316406 27.089844 -28.203125 C 24.738281 -25.605469 22.386719 -22.757812 20.410156 -19.914062 C 17.316406 -15.585938 14.597656 -11.007812 11.503906 -6.679688 C 9.648438 -3.957031 7.296875 -1.484375 5.070312 0.988281 C 4.453125 1.609375 3.585938 1.980469 2.351562 2.597656 C 1.980469 1.359375 1.359375 0.496094 1.484375 -0.246094 C 1.730469 -2.226562 2.226562 -4.328125 2.722656 -6.308594 C 4.578125 -12.492188 6.925781 -18.429688 10.019531 -24.121094 C 11.007812 -25.976562 12.371094 -27.832031 12.742188 -30.304688 C 10.390625 -31.417969 9.03125 -30.179688 7.917969 -28.449219 C 3.710938 -22.015625 0.125 -15.089844 -1.855469 -7.546875 C -2.351562 -5.8125 -2.84375 -3.957031 -2.96875 -2.101562 C -3.339844 2.84375 -0.742188 5.070312 4.082031 3.710938 C 5.070312 3.339844 6.183594 2.722656 7.050781 1.980469 C 9.03125 0.246094 11.007812 -1.359375 12.742188 -3.464844 C 15.832031 -7.175781 18.679688 -11.257812 21.644531 -15.089844 C 24.367188 -18.429688 27.089844 -21.769531 29.933594 -25.109375 C 30.550781 -25.976562 31.542969 -26.46875 32.777344 -27.460938 C 33.273438 -26.097656 33.769531 -25.355469 33.769531 -24.492188 C 33.890625 -22.386719 34.015625 -20.285156 33.769531 -18.308594 C 32.777344 -8.660156 30.800781 0.742188 27.832031 9.894531 C 26.964844 12.492188 25.605469 14.472656 23.5 16.328125 C 16.945312 21.769531 10.515625 27.089844 4.207031 32.902344 C -2.597656 39.085938 -9.152344 45.644531 -15.585938 52.199219 C -21.273438 58.011719 -26.097656 64.566406 -30.304688 71.617188 C -31.664062 73.96875 -32.777344 76.691406 -33.519531 79.410156 C -34.261719 81.886719 -32.777344 83.742188 -30.179688 84.234375 C -27.953125 84.605469 -25.605469 84.605469 -23.5 83.492188 C -21.027344 82.257812 -18.554688 80.894531 -16.203125 79.289062 C -10.265625 74.957031 -5.070312 69.761719 -0.125 64.195312 C 11.875 50.589844 22.015625 35.625 29.933594 19.296875 C 31.292969 16.453125 33.027344 14.101562 35.5 12.246094 C 45.519531 4.207031 55.414062 -3.835938 65.433594 -11.875 C 66.421875 -12.617188 67.660156 -12.988281 67.90625 -14.84375 C 64.691406 -14.226562 62.339844 -12.742188 59.992188 -11.132812 Z M -25.851562 80.402344 C -25.726562 79.410156 -25.851562 78.421875 -25.480469 77.804688 C -23.996094 75.082031 -22.511719 72.484375 -20.78125 70.011719 C -9.773438 54.425781 3.710938 40.941406 17.6875 28.078125 C 18.058594 27.707031 18.554688 27.460938 19.050781 27.210938 C 19.171875 27.210938 19.421875 27.210938 19.542969 27.335938 C 16.203125 40.570312 -7.546875 72.238281 -25.851562 80.402344 Z M -25.851562 80.402344 "/></g></g></g><g fill="#121416" fill-opacity="1"><g transform="translate(408.859549, 188.29742)"><g><path d="M 49.847656 -18.554688 C 45.890625 -15.460938 41.933594 -12.246094 37.972656 -9.03125 C 37.230469 -8.535156 36.488281 -7.792969 35.375 -8.535156 C 35.128906 -9.03125 34.882812 -9.523438 34.882812 -10.019531 C 34.882812 -11.628906 34.882812 -13.113281 35.003906 -14.597656 C 35.253906 -18.308594 35.746094 -22.140625 35.871094 -25.851562 C 35.996094 -28.449219 34.757812 -29.6875 32.285156 -30.058594 C 29.933594 -30.304688 27.707031 -29.933594 25.976562 -28.203125 C 24.613281 -26.839844 23.378906 -25.480469 22.140625 -23.996094 C 19.050781 -20.039062 15.957031 -15.957031 12.742188 -12 C 10.636719 -9.402344 8.164062 -6.925781 5.8125 -4.578125 C 5.320312 -4.082031 4.328125 -3.957031 2.96875 -3.585938 C 3.214844 -5.441406 3.09375 -6.679688 3.464844 -7.917969 C 4.824219 -13.855469 6.308594 -19.667969 7.667969 -25.480469 C 8.164062 -27.832031 9.152344 -30.179688 8.535156 -32.53125 C 6.308594 -33.519531 5.195312 -32.40625 4.578125 -30.921875 C 0.988281 -23.007812 -1.855469 -14.84375 -3.339844 -6.308594 C -4.082031 -1.730469 -1.980469 0.496094 2.722656 0.246094 C 4.328125 0.125 6.0625 -0.125 7.546875 -0.867188 C 9.523438 -1.855469 11.503906 -3.09375 13.113281 -4.699219 C 16.699219 -8.289062 20.039062 -12.121094 23.5 -15.832031 C 24.492188 -16.945312 25.355469 -18.058594 27.210938 -20.039062 C 26.964844 -17.441406 26.839844 -15.957031 26.839844 -14.597656 C 26.71875 -12.988281 26.59375 -11.503906 26.71875 -10.019531 C 27.210938 -5.070312 30.304688 -2.597656 35.253906 -3.339844 C 36.738281 -3.585938 38.222656 -4.082031 39.457031 -4.824219 C 45.394531 -8.90625 50.714844 -13.605469 54.921875 -19.542969 C 55.292969 -20.039062 55.292969 -20.78125 55.414062 -21.894531 C 52.695312 -21.523438 51.457031 -19.789062 49.847656 -18.554688 Z M 49.847656 -18.554688 "/></g></g></g><g fill="#121416" fill-opacity="1"><g transform="translate(458.337017, 188.29742)"><g><path d="M 9.402344 -38.222656 C 9.894531 -40.570312 11.132812 -42.304688 12.863281 -43.910156 C 23.5 -53.683594 32.65625 -64.816406 40.820312 -76.9375 C 48.117188 -87.945312 53.558594 -100.066406 57.023438 -113.054688 C 58.261719 -117.757812 59 -122.582031 58.507812 -127.40625 C 57.765625 -135.074219 52.445312 -138.535156 45.519531 -135.941406 C 42.796875 -134.949219 40.570312 -132.972656 38.59375 -130.746094 C 34.511719 -126.042969 30.800781 -120.972656 27.953125 -115.28125 C 24.984375 -109.34375 22.015625 -103.160156 19.542969 -96.976562 C 12.617188 -80.03125 8.164062 -62.21875 4.453125 -44.160156 C 1.238281 -28.820312 -1.730469 -13.484375 -4.824219 1.980469 C -4.949219 2.597656 -4.824219 3.339844 -4.699219 3.835938 C -3.214844 5.195312 -1.609375 5.195312 -0.246094 4.578125 C 0.867188 3.957031 1.730469 2.722656 2.472656 1.609375 C 3.585938 0 4.207031 -2.101562 5.9375 -3.585938 C 6.183594 -2.96875 6.554688 -2.472656 6.679688 -1.980469 C 7.667969 3.710938 9.894531 8.90625 12.617188 13.855469 C 16.453125 21.027344 20.410156 28.078125 24.492188 35.128906 C 25.976562 37.851562 27.832031 40.449219 29.808594 42.921875 C 30.921875 44.40625 32.285156 45.765625 33.769531 47.003906 C 35.996094 48.859375 38.59375 49.230469 41.3125 47.375 C 39.210938 46.878906 37.972656 45.519531 36.859375 43.910156 C 35.871094 42.425781 34.882812 40.941406 34.015625 39.457031 C 28.203125 29.066406 22.882812 18.308594 18.308594 7.050781 C 17.441406 4.824219 16.699219 2.351562 15.957031 0 C 13.855469 -7.050781 15.214844 -12.988281 20.78125 -17.6875 C 23.007812 -19.667969 25.355469 -21.398438 27.582031 -23.253906 C 29.933594 -24.984375 32.285156 -26.71875 34.386719 -28.695312 C 35.871094 -29.933594 37.109375 -31.417969 38.34375 -32.902344 C 39.210938 -34.015625 39.953125 -35.253906 39.210938 -36.738281 C 38.59375 -38.34375 37.109375 -38.59375 35.746094 -38.46875 C 33.644531 -38.34375 31.417969 -38.097656 29.4375 -37.355469 C 27.460938 -36.738281 25.726562 -35.625 23.996094 -34.511719 C 18.308594 -30.921875 13.484375 -26.347656 9.03125 -21.152344 C 8.289062 -20.410156 7.421875 -19.789062 6.308594 -18.800781 C 6.183594 -19.914062 6.0625 -20.410156 6.183594 -20.902344 C 7.175781 -26.71875 8.289062 -32.53125 9.402344 -38.222656 Z M 11.628906 -49.105469 C 15.832031 -67.90625 20.902344 -86.339844 28.574219 -104.027344 C 31.789062 -111.324219 35.253906 -118.375 39.953125 -124.683594 C 41.5625 -126.785156 43.292969 -128.765625 45.023438 -130.746094 C 46.136719 -131.980469 47.375 -133.34375 49.355469 -133.464844 C 51.210938 -131.980469 51.582031 -129.753906 51.703125 -127.40625 C 51.953125 -122.828125 51.085938 -118.5 49.972656 -114.167969 C 47.25 -104.148438 43.539062 -94.625 38.714844 -85.597656 C 31.914062 -72.730469 23.625 -61.105469 14.84375 -49.847656 C 14.226562 -48.984375 13.484375 -48.242188 12.742188 -47.621094 C 12.492188 -47.375 12.121094 -47.5 11.628906 -47.5 C 11.628906 -47.992188 11.503906 -48.613281 11.628906 -49.105469 Z M 31.542969 -32.285156 C 28.945312 -28.203125 25.605469 -26.222656 22.015625 -24.492188 C 25.109375 -28.695312 27.210938 -30.429688 31.542969 -32.285156 Z M 31.542969 -32.285156 "/></g></g></g><g fill="#121416" fill-opacity="1"><g transform="translate(495.81622, 188.29742)"><g><path d="M 64.9375 -79.164062 C 60.734375 -79.535156 56.652344 -79.90625 52.445312 -79.660156 C 43.292969 -79.410156 34.015625 -78.792969 24.863281 -78.296875 C 23.625 -78.296875 22.386719 -78.546875 20.902344 -78.667969 C 21.769531 -82.007812 22.511719 -84.976562 23.253906 -87.824219 C 23.996094 -90.667969 25.726562 -93.265625 25.605469 -96.480469 C 22.636719 -97.71875 20.53125 -96.730469 19.296875 -94.378906 C 17.8125 -91.535156 16.574219 -88.566406 15.460938 -85.597656 C 14.597656 -83 13.855469 -80.277344 12.988281 -77.433594 C 9.402344 -76.9375 6.0625 -76.566406 2.722656 -76.070312 C -2.96875 -75.328125 -8.535156 -74.585938 -14.101562 -73.597656 C -16.203125 -73.226562 -18.554688 -73.101562 -20.039062 -70.875 C -17.070312 -69.269531 -17.070312 -69.269531 -15.339844 -69.515625 C -7.421875 -70.503906 0.371094 -71.496094 8.164062 -72.484375 C 9.152344 -72.609375 10.265625 -72.238281 11.503906 -72.113281 C 11.132812 -70.257812 10.761719 -68.773438 10.390625 -67.414062 C 5.8125 -49.726562 1.484375 -31.914062 -2.101562 -14.101562 C -4.824219 -0.988281 -7.421875 12.121094 -8.90625 25.480469 C -9.03125 27.335938 -9.03125 29.191406 -8.90625 31.046875 C -8.78125 31.914062 -8.289062 32.902344 -6.679688 32.65625 C -6.308594 31.171875 -5.8125 29.6875 -5.441406 28.078125 C -4.824219 24.738281 -4.207031 21.398438 -3.585938 18.058594 C 2.84375 -11.75 11.378906 -41.066406 18.800781 -70.628906 C 19.050781 -71.742188 19.667969 -72.609375 20.160156 -73.597656 C 36.117188 -75.082031 51.703125 -76.9375 67.660156 -77.925781 C 66.792969 -78.421875 65.804688 -79.164062 64.9375 -79.164062 Z M 64.9375 -79.164062 "/></g></g></g><g fill="#121416" fill-opacity="1"><g transform="translate(516.225666, 188.29742)"><g><path d="M 35.996094 -129.753906 C 34.261719 -130.25 32.65625 -130.125 31.914062 -128.148438 C 31.171875 -126.167969 30.550781 -124.1875 29.933594 -122.210938 C 26.347656 -111.199219 22.757812 -100.066406 19.050781 -88.9375 C 10.265625 -62.710938 1.359375 -36.613281 -7.421875 -10.390625 C -8.039062 -8.78125 -8.535156 -7.050781 -8.90625 -5.441406 C -9.277344 -3.464844 -8.535156 -2.472656 -6.679688 -1.980469 C -3.835938 -1.359375 -1.359375 -2.101562 0.617188 -4.453125 C 3.464844 -8.039062 6.308594 -11.628906 9.277344 -15.214844 C 13.113281 -19.789062 17.070312 -24.242188 20.902344 -28.820312 C 21.523438 -29.4375 22.265625 -29.808594 23.871094 -30.921875 C 22.386719 -25.976562 21.273438 -22.140625 20.160156 -18.183594 C 17.9375 -10.636719 16.945312 -2.96875 17.441406 4.824219 C 17.566406 7.050781 17.9375 9.277344 18.554688 11.378906 C 18.925781 12.617188 19.667969 13.855469 20.410156 14.96875 C 21.769531 16.699219 23.75 17.316406 25.851562 17.195312 C 27.582031 17.195312 29.4375 17.195312 30.550781 15.214844 C 26.097656 13.976562 25.851562 13.605469 25.480469 9.402344 C 25.355469 8.039062 25.355469 6.554688 25.355469 5.195312 C 25.355469 -0.988281 26.59375 -7.050781 28.078125 -13.113281 C 29.4375 -18.429688 30.800781 -23.75 32.035156 -29.066406 C 32.40625 -30.921875 32.65625 -32.902344 32.65625 -34.757812 C 32.777344 -37.851562 31.664062 -38.964844 28.574219 -39.335938 C 25.480469 -39.582031 22.882812 -38.714844 20.65625 -36.613281 C 16.453125 -32.53125 12.371094 -28.449219 8.289062 -24.367188 C 7.175781 -23.128906 6.0625 -21.894531 4.207031 -19.789062 C 4.578125 -22.015625 4.699219 -23.128906 5.070312 -24.242188 C 8.660156 -35.5 12.246094 -46.757812 15.957031 -58.011719 C 21.894531 -75.949219 28.078125 -93.761719 32.902344 -112.066406 C 34.140625 -116.394531 35.128906 -120.726562 36.242188 -125.054688 C 36.488281 -126.539062 37.109375 -128.148438 35.996094 -129.753906 Z M 35.996094 -129.753906 "/></g></g></g><g fill="#121416" fill-opacity="1"><g transform="translate(552.34423, 188.29742)"><g><path d="M 40.449219 -22.882812 C 41.191406 -26.839844 41.808594 -30.675781 42.304688 -34.632812 C 42.550781 -36.738281 41.4375 -37.726562 39.335938 -37.851562 C 37.726562 -37.972656 36.367188 -37.601562 35.128906 -36.488281 C 34.386719 -35.746094 33.519531 -35.003906 32.53125 -34.015625 C 32.40625 -34.882812 32.160156 -35.375 32.285156 -35.871094 C 32.65625 -40.199219 31.417969 -41.933594 27.335938 -42.179688 C 25.480469 -42.304688 23.5 -42.054688 21.894531 -41.3125 C 19.542969 -40.199219 17.195312 -38.839844 15.214844 -37.109375 C 7.667969 -29.933594 2.226562 -21.398438 -1.113281 -11.628906 C -1.730469 -9.894531 -1.980469 -7.917969 -2.101562 -6.0625 C -2.226562 -2.472656 -0.742188 -0.988281 2.96875 -0.867188 C 5.691406 -0.742188 8.289062 -1.730469 10.390625 -3.214844 C 13.234375 -5.320312 16.082031 -7.546875 18.679688 -10.019531 C 22.265625 -13.605469 25.605469 -17.441406 29.066406 -21.152344 C 30.058594 -22.265625 31.171875 -23.253906 32.65625 -24.738281 C 32.777344 -23.253906 32.902344 -22.636719 32.902344 -21.894531 C 32.40625 -17.8125 31.914062 -13.730469 31.417969 -9.648438 C 30.921875 -4.453125 31.292969 0.617188 32.285156 5.566406 C 33.398438 10.390625 35.128906 11.503906 40.449219 11.257812 C 38.097656 9.773438 37.355469 7.546875 37.355469 5.070312 C 37.480469 0.125 37.480469 -4.699219 37.972656 -9.648438 C 38.46875 -14.101562 39.707031 -18.429688 40.449219 -22.882812 Z M 4.578125 -4.949219 C 4.207031 -9.523438 6.183594 -12.742188 7.792969 -16.082031 C 12.988281 -26.097656 19.171875 -33.769531 24.984375 -37.355469 C 27.335938 -34.140625 24.242188 -30.179688 26.839844 -27.460938 C 21.644531 -18.429688 11.75 -8.289062 4.578125 -4.949219 Z M 4.578125 -4.949219 "/></g></g></g><g fill="#121416" fill-opacity="1"><g transform="translate(599.718926, 188.29742)"><g><path d="M 12.742188 -63.453125 C 11.007812 -63.703125 9.402344 -63.453125 8.535156 -62.339844 C 7.667969 -54.550781 6.925781 -47.25 6.183594 -39.828125 C 8.90625 -38.714844 10.265625 -39.582031 11.007812 -41.3125 C 13.605469 -46.757812 15.585938 -52.445312 16.574219 -58.507812 C 17.070312 -61.597656 15.710938 -63.207031 12.742188 -63.453125 Z M 12.742188 -63.453125 "/></g></g></g><g fill="#121416" fill-opacity="1"><g transform="translate(622.602258, 188.29742)"><g><path d="M 48.613281 -28.324219 C 46.261719 -26.71875 44.035156 -24.984375 41.933594 -23.128906 C 34.882812 -16.574219 27.953125 -9.894531 20.902344 -3.339844 C 19.542969 -2.101562 18.183594 -0.867188 16.574219 0.617188 C 13.605469 -3.710938 11.75 -8.164062 10.515625 -12.863281 C 9.402344 -16.945312 10.019531 -20.78125 11.875 -24.367188 C 14.472656 -29.5625 18.554688 -33.398438 23.996094 -35.746094 C 24.863281 -36.117188 25.976562 -35.746094 27.335938 -35.746094 C 26.839844 -32.902344 26.46875 -30.550781 25.851562 -27.089844 C 27.582031 -27.582031 29.066406 -27.582031 29.5625 -28.203125 C 31.171875 -30.058594 32.53125 -32.035156 33.644531 -34.261719 C 34.511719 -36.117188 33.769531 -37.972656 31.789062 -38.964844 C 30.675781 -39.457031 29.316406 -39.828125 28.078125 -39.953125 C 17.9375 -40.820312 5.9375 -33.027344 2.597656 -23.5 C 1.484375 -20.285156 0.867188 -16.824219 2.101562 -13.484375 C 3.214844 -10.019531 4.578125 -6.433594 6.183594 -3.09375 C 7.667969 0.125 9.402344 3.214844 11.007812 6.433594 C 9.523438 8.039062 8.289062 9.402344 7.050781 10.886719 C 4.578125 14.101562 1.980469 17.316406 -0.371094 20.78125 C -1.359375 22.265625 -1.855469 24.242188 -2.101562 26.097656 C -2.472656 28.695312 -0.988281 30.179688 1.855469 30.550781 C 4.082031 30.800781 6.308594 30.304688 8.410156 29.191406 C 11.503906 27.460938 14.347656 25.355469 16.699219 22.511719 C 19.421875 19.421875 20.902344 15.832031 20.285156 11.628906 C 20.160156 10.761719 20.039062 9.773438 19.914062 8.78125 C 21.398438 7.175781 22.757812 5.691406 24.121094 4.207031 C 32.902344 -4.699219 41.683594 -13.484375 50.34375 -22.386719 C 51.703125 -23.75 53.066406 -24.984375 54.300781 -26.46875 C 54.796875 -27.089844 54.921875 -27.953125 55.292969 -28.820312 C 52.570312 -30.179688 50.46875 -29.808594 48.613281 -28.324219 Z M 12.742188 21.273438 C 11.257812 23.871094 9.152344 25.851562 5.8125 26.347656 C 7.546875 22.140625 10.265625 18.925781 13.730469 15.585938 C 14.71875 18.183594 13.730469 19.789062 12.742188 21.273438 Z M 12.742188 21.273438 "/></g></g></g><g fill="#121416" fill-opacity="1"><g transform="translate(666.266103, 188.29742)"><g/></g></g><g fill="#121416" fill-opacity="1"><g transform="translate(705.105898, 188.29742)"><g><path d="M 43.539062 -2.597656 C 43.910156 -2.597656 44.28125 -2.597656 44.652344 -2.597656 C 52.816406 -2.351562 60.238281 -4.824219 66.917969 -9.523438 C 74.585938 -15.089844 80.894531 -22.140625 86.089844 -30.058594 C 94.503906 -42.921875 100.933594 -56.652344 105.757812 -71.246094 C 108.230469 -78.792969 109.964844 -86.460938 110.828125 -94.378906 C 111.324219 -98.832031 111.570312 -103.40625 110.335938 -107.859375 C 108.851562 -113.054688 106.003906 -115.40625 100.5625 -115.777344 C 96.109375 -116.023438 91.90625 -114.789062 88.316406 -112.191406 C 85.347656 -110.085938 82.257812 -107.738281 79.78125 -104.890625 C 74.957031 -99.695312 70.257812 -94.253906 65.929688 -88.566406 C 57.519531 -77.308594 50.34375 -65.433594 43.539062 -53.1875 C 42.675781 -51.582031 41.933594 -49.726562 39.335938 -47.5 C 40.449219 -50.46875 41.066406 -52.199219 41.683594 -53.808594 C 44.53125 -61.597656 47.5 -69.390625 50.21875 -77.183594 C 51.085938 -79.410156 51.582031 -81.886719 51.703125 -84.359375 C 52.074219 -88.195312 50.21875 -90.421875 46.386719 -90.914062 C 43.292969 -91.285156 40.449219 -90.667969 37.726562 -89.058594 C 32.160156 -85.71875 27.707031 -81.144531 24.367188 -75.453125 C 23.378906 -73.84375 22.882812 -71.988281 22.386719 -70.257812 C 22.140625 -69.515625 22.140625 -68.648438 22.386719 -68.03125 C 22.636719 -67.535156 23.378906 -66.917969 23.996094 -66.671875 C 24.367188 -66.546875 25.109375 -66.917969 25.480469 -67.289062 C 25.851562 -67.660156 26.097656 -68.15625 26.347656 -68.648438 C 29.316406 -74.835938 34.015625 -79.410156 39.085938 -83.492188 C 39.953125 -84.234375 40.941406 -84.605469 42.179688 -85.347656 C 42.796875 -83 42.054688 -81.265625 41.4375 -79.535156 C 40.078125 -75.453125 38.59375 -71.246094 36.984375 -67.289062 C 27.582031 -43.789062 17.070312 -20.902344 6.433594 1.980469 C 3.585938 7.917969 0.867188 13.976562 -1.855469 19.914062 C -2.722656 22.015625 -3.464844 24.121094 -4.082031 26.347656 C -4.453125 27.953125 -3.585938 29.316406 -1.980469 29.808594 C 1.484375 30.800781 4.949219 30.550781 7.296875 27.460938 C 10.019531 23.871094 12.742188 20.285156 15.089844 16.453125 C 19.667969 8.78125 23.871094 0.988281 28.203125 -6.679688 C 29.066406 -8.164062 29.933594 -9.523438 31.417969 -12 C 33.148438 -4.949219 37.851562 -3.214844 43.539062 -2.597656 Z M 99.820312 -101.921875 C 99.945312 -94.503906 98.460938 -87.328125 96.605469 -80.277344 C 91.90625 -62.589844 84.605469 -46.136719 74.585938 -30.921875 C 70.503906 -24.738281 65.804688 -19.171875 60.238281 -14.347656 C 57.890625 -12.371094 55.414062 -10.761719 52.941406 -9.03125 C 50.46875 -7.421875 47.746094 -6.804688 44.902344 -6.679688 C 41.3125 -6.679688 38.59375 -8.90625 38.46875 -12.492188 C 38.34375 -14.84375 38.839844 -17.316406 39.335938 -19.667969 C 39.828125 -21.398438 40.820312 -23.128906 41.5625 -24.863281 C 40.941406 -26.347656 39.335938 -27.210938 40.449219 -29.316406 C 52.074219 -50.714844 63.578125 -72.113281 78.917969 -91.164062 C 82.75 -95.988281 87.082031 -100.4375 91.410156 -105.015625 C 92.769531 -106.5 94.503906 -107.613281 96.234375 -108.851562 C 96.730469 -109.222656 97.472656 -109.46875 98.089844 -109.714844 C 99.945312 -107.242188 99.820312 -104.519531 99.820312 -101.921875 Z M 99.820312 -101.921875 "/></g></g></g><g fill="#121416" fill-opacity="1"><g transform="translate(802.947588, 188.29742)"><g><path d="M 29.4375 -12.617188 C 27.089844 -11.875 24.738281 -11.132812 22.140625 -12.121094 C 22.882812 -13.976562 23.5 -15.710938 24.121094 -17.316406 C 25.605469 -21.398438 26.839844 -25.480469 26.964844 -29.808594 C 27.210938 -35.375 25.109375 -38.59375 21.152344 -39.085938 C 20.039062 -39.210938 18.925781 -39.085938 17.8125 -38.839844 C 14.347656 -38.097656 11.378906 -35.871094 8.660156 -32.902344 C 5.8125 -29.808594 3.710938 -26.222656 3.835938 -21.398438 C 2.472656 -19.171875 1.113281 -17.070312 -0.125 -14.96875 C -1.484375 -12.246094 -2.84375 -9.402344 -3.339844 -6.183594 C -3.957031 -1.730469 -2.84375 1.238281 0.246094 2.226562 C 2.101562 2.84375 4.207031 2.84375 6.0625 2.472656 C 9.03125 1.980469 11.75 0 14.226562 -2.472656 C 16.203125 -4.328125 18.183594 -6.308594 20.410156 -8.535156 C 28.695312 -8.78125 29.6875 -9.03125 32.777344 -12.121094 C 30.921875 -13.234375 30.921875 -13.234375 29.4375 -12.617188 Z M 3.835938 -0.246094 C 2.597656 -0.125 1.609375 -0.867188 1.609375 -2.597656 C 1.484375 -4.207031 1.609375 -5.9375 1.980469 -7.546875 C 2.84375 -10.761719 3.957031 -13.855469 5.9375 -16.824219 C 7.667969 -15.339844 8.90625 -14.101562 10.265625 -12.988281 C 11.628906 -12 13.113281 -11.007812 14.597656 -10.019531 C 12.492188 -5.691406 7.050781 -0.867188 3.835938 -0.246094 Z M 17.441406 -13.855469 C 14.472656 -15.339844 12.617188 -17.441406 11.75 -21.273438 C 11.257812 -23.5 11.257812 -25.234375 12.246094 -27.210938 C 14.347656 -31.171875 16.945312 -34.386719 20.410156 -35.746094 C 22.015625 -34.882812 22.265625 -32.902344 22.265625 -31.046875 C 22.265625 -24.738281 20.53125 -19.050781 17.441406 -13.855469 Z M 17.441406 -13.855469 "/></g></g></g><g fill="#121416" fill-opacity="1"><g transform="translate(832.386675, 188.29742)"><g><path d="M 36.242188 -35.003906 C 35.375 -38.222656 33.398438 -39.707031 30.058594 -39.457031 C 27.460938 -39.210938 25.355469 -38.222656 23.625 -36.242188 C 20.53125 -32.53125 17.441406 -28.695312 14.226562 -24.984375 C 13.484375 -23.996094 12.617188 -23.007812 11.007812 -21.273438 C 11.503906 -28.078125 14.71875 -33.148438 15.089844 -39.210938 C 12.617188 -40.078125 11.132812 -39.707031 10.144531 -37.972656 C 9.402344 -36.859375 8.78125 -35.625 8.289062 -34.511719 C 4.453125 -25.480469 0.617188 -16.453125 -3.214844 -7.421875 C -3.835938 -5.9375 -4.328125 -4.328125 -4.699219 -2.722656 C -5.320312 -0.125 -4.082031 1.359375 -1.359375 1.359375 C 0.496094 1.359375 2.351562 0.867188 3.710938 -0.617188 C 5.320312 -2.101562 6.925781 -3.710938 8.289062 -5.566406 C 11.132812 -9.152344 13.605469 -12.863281 16.328125 -16.453125 C 19.667969 -20.902344 23.128906 -25.355469 26.71875 -29.808594 C 27.460938 -30.800781 28.449219 -31.542969 29.808594 -32.65625 C 30.429688 -30.800781 30.921875 -29.4375 31.292969 -28.078125 C 31.664062 -26.964844 31.789062 -25.851562 32.40625 -24.863281 C 32.777344 -24.242188 33.769531 -23.625 34.511719 -23.5 C 34.882812 -23.5 35.746094 -24.367188 35.996094 -24.984375 C 36.984375 -28.324219 36.984375 -31.664062 36.242188 -35.003906 Z M 36.242188 -35.003906 "/></g></g></g><g fill="#121416" fill-opacity="1"><g transform="translate(875.679454, 188.29742)"><g><path d="M 64.9375 -79.164062 C 60.734375 -79.535156 56.652344 -79.90625 52.445312 -79.660156 C 43.292969 -79.410156 34.015625 -78.792969 24.863281 -78.296875 C 23.625 -78.296875 22.386719 -78.546875 20.902344 -78.667969 C 21.769531 -82.007812 22.511719 -84.976562 23.253906 -87.824219 C 23.996094 -90.667969 25.726562 -93.265625 25.605469 -96.480469 C 22.636719 -97.71875 20.53125 -96.730469 19.296875 -94.378906 C 17.8125 -91.535156 16.574219 -88.566406 15.460938 -85.597656 C 14.597656 -83 13.855469 -80.277344 12.988281 -77.433594 C 9.402344 -76.9375 6.0625 -76.566406 2.722656 -76.070312 C -2.96875 -75.328125 -8.535156 -74.585938 -14.101562 -73.597656 C -16.203125 -73.226562 -18.554688 -73.101562 -20.039062 -70.875 C -17.070312 -69.269531 -17.070312 -69.269531 -15.339844 -69.515625 C -7.421875 -70.503906 0.371094 -71.496094 8.164062 -72.484375 C 9.152344 -72.609375 10.265625 -72.238281 11.503906 -72.113281 C 11.132812 -70.257812 10.761719 -68.773438 10.390625 -67.414062 C 5.8125 -49.726562 1.484375 -31.914062 -2.101562 -14.101562 C -4.824219 -0.988281 -7.421875 12.121094 -8.90625 25.480469 C -9.03125 27.335938 -9.03125 29.191406 -8.90625 31.046875 C -8.78125 31.914062 -8.289062 32.902344 -6.679688 32.65625 C -6.308594 31.171875 -5.8125 29.6875 -5.441406 28.078125 C -4.824219 24.738281 -4.207031 21.398438 -3.585938 18.058594 C 2.84375 -11.75 11.378906 -41.066406 18.800781 -70.628906 C 19.050781 -71.742188 19.667969 -72.609375 20.160156 -73.597656 C 36.117188 -75.082031 51.703125 -76.9375 67.660156 -77.925781 C 66.792969 -78.421875 65.804688 -79.164062 64.9375 -79.164062 Z M 64.9375 -79.164062 "/></g></g></g><g fill="#121416" fill-opacity="1"><g transform="translate(896.0889, 188.29742)"><g><path d="M 33.769531 -24.613281 C 29.4375 -25.355469 25.109375 -25.480469 20.78125 -25.109375 C 16.945312 -24.738281 12.988281 -24.367188 8.164062 -23.996094 C 11.875 -32.65625 15.710938 -40.324219 19.296875 -48.117188 C 22.882812 -56.035156 26.46875 -64.074219 29.933594 -73.101562 C 28.203125 -72.609375 26.964844 -72.609375 26.347656 -71.988281 C 24.613281 -70.011719 22.882812 -68.03125 21.644531 -65.679688 C 14.71875 -53.066406 7.792969 -40.199219 1.113281 -27.335938 C -0.617188 -23.996094 -2.472656 -21.523438 -6.433594 -20.78125 C -8.535156 -20.285156 -10.636719 -19.050781 -12.492188 -17.8125 C -14.597656 -16.453125 -14.597656 -14.347656 -12.742188 -12.617188 C -11.378906 -11.257812 -9.773438 -10.265625 -8.164062 -9.03125 C -8.90625 -7.546875 -9.402344 -6.183594 -10.019531 -4.824219 C -12.246094 0.246094 -14.597656 5.070312 -16.824219 10.144531 C -21.644531 21.523438 -26.097656 33.148438 -29.066406 45.273438 C -30.304688 50.21875 -31.292969 55.167969 -30.921875 60.363281 C -30.550781 65.0625 -27.953125 67.042969 -23.253906 66.421875 C -21.152344 66.175781 -19.296875 65.308594 -17.9375 63.578125 C -16.328125 61.722656 -14.71875 59.867188 -13.359375 57.890625 C -5.195312 46.136719 0.742188 33.398438 4.824219 19.789062 C 5.8125 16.574219 6.554688 13.234375 6.925781 9.894531 C 7.917969 3.09375 7.050781 -3.339844 2.472656 -8.78125 C 2.101562 -9.152344 1.980469 -9.773438 1.730469 -10.515625 C 2.722656 -12.742188 3.835938 -15.089844 4.949219 -17.316406 C 5.691406 -17.6875 6.183594 -17.9375 6.804688 -18.058594 C 15.585938 -19.667969 24.367188 -22.140625 33.519531 -20.53125 C 35.003906 -20.285156 36.488281 -20.410156 37.355469 -22.265625 C 36.613281 -23.75 35.253906 -24.242188 33.769531 -24.613281 Z M 0.742188 5.691406 C 0.617188 9.03125 0.496094 12.492188 -0.371094 15.832031 C -4.082031 29.933594 -9.648438 43.167969 -18.058594 55.292969 C -19.050781 56.652344 -20.160156 57.890625 -21.152344 59.25 C -21.398438 59.496094 -21.769531 59.621094 -22.265625 59.742188 C -23.5 59.496094 -23.253906 58.261719 -23.128906 57.519531 C -22.511719 54.054688 -22.015625 50.46875 -21.152344 47.003906 C -17.195312 32.285156 -11.257812 18.183594 -5.070312 4.207031 C -4.207031 2.226562 -3.214844 0.246094 -1.855469 -2.722656 C 0.371094 0.496094 0.867188 3.09375 0.742188 5.691406 Z M 0.742188 5.691406 "/></g></g></g><g fill="#121416" fill-opacity="1"><g transform="translate(928.744053, 188.29742)"><g><path d="M 29.4375 -12.617188 C 27.089844 -11.875 24.738281 -11.132812 22.140625 -12.121094 C 22.882812 -13.976562 23.5 -15.710938 24.121094 -17.316406 C 25.605469 -21.398438 26.839844 -25.480469 26.964844 -29.808594 C 27.210938 -35.375 25.109375 -38.59375 21.152344 -39.085938 C 20.039062 -39.210938 18.925781 -39.085938 17.8125 -38.839844 C 14.347656 -38.097656 11.378906 -35.871094 8.660156 -32.902344 C 5.8125 -29.808594 3.710938 -26.222656 3.835938 -21.398438 C 2.472656 -19.171875 1.113281 -17.070312 -0.125 -14.96875 C -1.484375 -12.246094 -2.84375 -9.402344 -3.339844 -6.183594 C -3.957031 -1.730469 -2.84375 1.238281 0.246094 2.226562 C 2.101562 2.84375 4.207031 2.84375 6.0625 2.472656 C 9.03125 1.980469 11.75 0 14.226562 -2.472656 C 16.203125 -4.328125 18.183594 -6.308594 20.410156 -8.535156 C 28.695312 -8.78125 29.6875 -9.03125 32.777344 -12.121094 C 30.921875 -13.234375 30.921875 -13.234375 29.4375 -12.617188 Z M 3.835938 -0.246094 C 2.597656 -0.125 1.609375 -0.867188 1.609375 -2.597656 C 1.484375 -4.207031 1.609375 -5.9375 1.980469 -7.546875 C 2.84375 -10.761719 3.957031 -13.855469 5.9375 -16.824219 C 7.667969 -15.339844 8.90625 -14.101562 10.265625 -12.988281 C 11.628906 -12 13.113281 -11.007812 14.597656 -10.019531 C 12.492188 -5.691406 7.050781 -0.867188 3.835938 -0.246094 Z M 17.441406 -13.855469 C 14.472656 -15.339844 12.617188 -17.441406 11.75 -21.273438 C 11.257812 -23.5 11.257812 -25.234375 12.246094 -27.210938 C 14.347656 -31.171875 16.945312 -34.386719 20.410156 -35.746094 C 22.015625 -34.882812 22.265625 -32.902344 22.265625 -31.046875 C 22.265625 -24.738281 20.53125 -19.050781 17.441406 -13.855469 Z M 17.441406 -13.855469 "/></g></g></g><g fill="#121416" fill-opacity="1"><g transform="translate(958.18314, 188.29742)"><g><path d="M 11.875 -29.5625 C 19.050781 -53.1875 27.582031 -76.320312 36.738281 -99.324219 C 39.707031 -106.746094 43.292969 -114.046875 46.507812 -121.46875 C 46.757812 -121.960938 46.632812 -122.582031 46.757812 -123.199219 C 43.910156 -124.3125 41.808594 -123.074219 40.449219 -120.972656 C 38.59375 -118.128906 36.859375 -115.160156 35.375 -112.066406 C 23.5 -88.070312 13.855469 -63.207031 5.070312 -37.851562 C 1.730469 -28.078125 -1.484375 -18.183594 -2.96875 -7.917969 C -3.464844 -3.835938 -3.710938 0.371094 -3.339844 4.453125 C -2.84375 10.761719 0.617188 14.347656 6.804688 15.585938 C 9.03125 15.957031 11.378906 16.203125 13.484375 15.710938 C 25.851562 13.484375 33.890625 5.9375 38.964844 -5.195312 C 38.964844 -5.320312 38.839844 -5.566406 38.839844 -5.691406 C 37.601562 -6.804688 36.242188 -6.554688 35.253906 -5.441406 C 34.140625 -4.328125 33.148438 -2.84375 32.160156 -1.484375 C 28.820312 2.84375 24.863281 6.554688 19.914062 9.277344 C 18.183594 10.265625 16.203125 11.257812 14.347656 11.75 C 10.019531 12.988281 7.917969 11.628906 6.679688 7.546875 C 5.566406 3.957031 5.691406 0.496094 6.0625 -3.09375 C 6.925781 -12.246094 9.152344 -20.902344 11.875 -29.5625 Z M 11.875 -29.5625 "/></g></g></g><g fill="#121416" fill-opacity="1"><g transform="translate(1001.599592, 188.29742)"><g><path d="M 41.933594 -32.285156 C 39.457031 -31.292969 38.839844 -29.4375 37.851562 -27.953125 C 31.789062 -19.914062 24.613281 -13.113281 15.957031 -7.792969 C 13.605469 -6.308594 11.257812 -4.824219 7.917969 -4.578125 C 7.421875 -5.8125 6.804688 -6.925781 6.679688 -8.164062 C 6.679688 -9.648438 6.925781 -11.132812 7.296875 -12.617188 C 8.90625 -17.8125 10.515625 -23.007812 12.246094 -28.203125 C 12.742188 -29.933594 13.730469 -31.664062 13.484375 -33.519531 C 9.277344 -35.003906 8.039062 -34.757812 6.183594 -31.664062 C 2.722656 -25.605469 0 -19.171875 -1.609375 -12.371094 C -1.730469 -11.628906 -1.855469 -10.886719 -1.980469 -10.144531 C -2.722656 -4.082031 -0.125 -0.867188 6.0625 -0.617188 C 10.390625 -0.371094 14.226562 -1.484375 17.9375 -3.710938 C 26.46875 -9.03125 33.769531 -15.710938 39.210938 -24.367188 C 40.324219 -26.097656 41.191406 -27.953125 41.933594 -29.933594 C 42.179688 -30.429688 41.933594 -31.171875 41.933594 -32.285156 Z M 15.832031 -45.148438 C 16.453125 -45.644531 16.945312 -46.136719 17.316406 -46.757812 C 18.183594 -48.613281 18.925781 -50.46875 20.039062 -52.695312 C 16.574219 -53.683594 13.605469 -53.558594 10.761719 -51.953125 C 8.535156 -50.714844 7.792969 -47.871094 8.90625 -46.136719 C 10.390625 -43.910156 13.730469 -43.417969 15.832031 -45.148438 Z M 15.832031 -45.148438 "/></g></g></g><g fill="#121416" fill-opacity="1"><g transform="translate(1037.594435, 188.29742)"><g><path d="M 29.4375 -12.617188 C 27.089844 -11.875 24.738281 -11.132812 22.140625 -12.121094 C 22.882812 -13.976562 23.5 -15.710938 24.121094 -17.316406 C 25.605469 -21.398438 26.839844 -25.480469 26.964844 -29.808594 C 27.210938 -35.375 25.109375 -38.59375 21.152344 -39.085938 C 20.039062 -39.210938 18.925781 -39.085938 17.8125 -38.839844 C 14.347656 -38.097656 11.378906 -35.871094 8.660156 -32.902344 C 5.8125 -29.808594 3.710938 -26.222656 3.835938 -21.398438 C 2.472656 -19.171875 1.113281 -17.070312 -0.125 -14.96875 C -1.484375 -12.246094 -2.84375 -9.402344 -3.339844 -6.183594 C -3.957031 -1.730469 -2.84375 1.238281 0.246094 2.226562 C 2.101562 2.84375 4.207031 2.84375 6.0625 2.472656 C 9.03125 1.980469 11.75 0 14.226562 -2.472656 C 16.203125 -4.328125 18.183594 -6.308594 20.410156 -8.535156 C 28.695312 -8.78125 29.6875 -9.03125 32.777344 -12.121094 C 30.921875 -13.234375 30.921875 -13.234375 29.4375 -12.617188 Z M 3.835938 -0.246094 C 2.597656 -0.125 1.609375 -0.867188 1.609375 -2.597656 C 1.484375 -4.207031 1.609375 -5.9375 1.980469 -7.546875 C 2.84375 -10.761719 3.957031 -13.855469 5.9375 -16.824219 C 7.667969 -15.339844 8.90625 -14.101562 10.265625 -12.988281 C 11.628906 -12 13.113281 -11.007812 14.597656 -10.019531 C 12.492188 -5.691406 7.050781 -0.867188 3.835938 -0.246094 Z M 17.441406 -13.855469 C 14.472656 -15.339844 12.617188 -17.441406 11.75 -21.273438 C 11.257812 -23.5 11.257812 -25.234375 12.246094 -27.210938 C 14.347656 -31.171875 16.945312 -34.386719 20.410156 -35.746094 C 22.015625 -34.882812 22.265625 -32.902344 22.265625 -31.046875 C 22.265625 -24.738281 20.53125 -19.050781 17.441406 -13.855469 Z M 17.441406 -13.855469 "/></g></g></g></svg>