<svg width="254" height="49" viewBox="0 0 254 49" fill="none" xmlns="http://www.w3.org/2000/svg">
<path fill-rule="evenodd" clip-rule="evenodd" d="M31.2704 29.0751C34.6595 29.0751 36.2922 27.2603 37.3704 24.4299L44.2705 6.2764H38.3865L35.337 15.6907H35.2758L32.2259 6.2764H25.9726L32.2563 22.8597L32.1021 23.2603C31.8251 23.9991 31.3018 24.2143 30.5316 24.2143C28.8685 24.2143 27.5122 23.8451 27.0502 23.7211L25.7875 28.3982C26.7424 28.6759 28.3443 29.0751 31.2704 29.0751ZM244.509 18.1832C243.739 18.1832 243.154 17.8146 243.154 17.0143C243.154 15.7534 244.448 14.9841 247.404 14.8916V17.2298C246.882 17.7221 246.019 18.1832 244.509 18.1832ZM241.921 22.7069C244.355 22.7069 246.05 21.7522 247.404 20.0603C247.404 20.9833 247.559 21.7837 247.775 22.4603H253.812C253.473 21.6299 253.351 20.4299 253.351 18.4609V12.5845C253.351 7.93783 251.41 5.66116 246.543 5.66116C242.107 5.66116 239.519 7.16891 238.009 8.52172L240.504 11.9683C241.891 10.9838 243.678 10.1838 245.588 10.1838C247.005 10.1838 247.404 10.7686 247.404 11.5676V11.7832C240.629 12.0912 237.209 14.3379 237.209 18.03C237.209 21.2613 239.55 22.7069 241.921 22.7069ZM225.807 22.4603H231.906V12.4294C232.707 11.7833 233.877 10.9217 235.603 10.9217C236.034 10.9217 236.897 11.0143 237.143 11.0454V5.66116H237.081C234.063 5.66116 232.646 7.38445 231.937 8.52172H231.906V5.96929H225.807V22.4603ZM218.564 22.9832C219.766 22.9832 221.983 22.7995 222.291 22.7069V18.4609C222.014 18.5535 221.213 18.645 220.69 18.645C218.965 18.645 218.533 18.2143 218.533 16.4596V10.6459H222.753V6.2764H218.533V0.737901H212.434V6.2764V10.6459V17.8146C212.434 21.0147 212.957 22.9832 218.564 22.9832ZM193.922 22.768H200.022V12.1223C200.822 11.4751 201.716 10.9541 202.763 10.9541C203.78 10.9541 204.148 11.5991 204.148 12.7373V22.768H210.247V10.7386C210.247 7.19941 208.092 5.96932 205.504 5.96932C202.454 5.96932 200.729 7.69127 200.022 8.82978V6.2764H193.922V22.768ZM181.996 18.4913C181.226 18.4913 180.64 18.1227 180.64 17.3215C180.64 16.0612 181.935 15.2914 184.892 15.1994V17.5367C184.368 18.0301 183.505 18.4913 181.996 18.4913ZM179.409 23.0146C181.841 23.0146 183.537 22.0603 184.892 20.3675C184.892 21.2913 185.046 22.0907 185.262 22.768H191.299C190.961 21.9376 190.837 20.7379 190.837 18.769V12.8913C190.837 8.24603 188.896 5.96932 184.029 5.96932C179.594 5.96932 177.005 7.47602 175.497 8.82978L177.991 12.2765C179.378 11.292 181.164 10.492 183.074 10.492C184.491 10.492 184.892 11.0765 184.892 11.8757V12.0913C178.115 12.3994 174.696 14.646 174.696 18.3373C174.695 21.5684 177.037 23.0146 179.409 23.0146ZM147.954 22.768H153.437V8.36892H153.497C153.99 11.3524 154.268 12.3689 154.791 14.2142L157.132 22.768H162.554L164.958 14.2142C165.45 12.4608 165.819 11.0143 166.189 8.6757H166.25V22.768H172.135V0H163.787L160.183 15.4454H160.121L156.116 0H147.954V22.768H147.954ZM0 22.768H5.48317V8.36892H5.54474C6.03753 11.3524 6.31522 12.3689 6.83882 14.2142L9.1798 22.768H14.6014L17.0042 14.2142C17.4967 12.4608 17.8667 11.0143 18.2367 8.6757H18.2979V22.768H24.1815V0H15.8335L12.2296 15.4454H12.1677L8.16334 0H0V22.768Z" fill="#0D2333"/>
<path fill-rule="evenodd" clip-rule="evenodd" d="M133.286 29.0751C136.674 29.0751 138.308 27.2603 139.385 24.4299L146.286 6.2764H140.402L137.352 15.6907H137.291L134.241 6.2764H127.987L134.273 22.8597L134.118 23.2603C133.84 23.9991 133.317 24.2143 132.547 24.2143C130.884 24.2143 129.528 23.8451 129.065 23.7211L127.803 28.3982C128.757 28.6759 130.36 29.0751 133.286 29.0751ZM117.54 12.7987C117.91 10.9216 118.865 10.2148 120.066 10.2148C121.515 10.2148 122.408 10.8298 122.654 12.7987H117.54ZM120.313 23.1075C123.055 23.1075 125.612 22.4914 127.706 21.1373L125.52 17.4453C124.442 18.0907 122.5 18.9522 120.776 18.9522C118.988 18.9522 117.787 18.4298 117.479 16.2765H128.046V15.3528C128.046 7.13785 123.364 5.96932 120.098 5.96932C116.74 5.96932 111.41 7.93787 111.41 14.5535C111.41 21.2292 115.785 23.1075 120.313 23.1075ZM92.9239 22.768H99.023V12.1223C99.8239 11.4751 100.717 10.9541 101.765 10.9541C102.781 10.9541 103.15 11.5991 103.15 12.7373V22.768H109.25V10.7386C109.25 7.19941 107.094 5.96932 104.507 5.96932C101.457 5.96932 99.7316 7.69127 99.023 8.82978V6.2764H92.9239V22.768ZM81.7374 18.8919C79.6119 18.8919 79.027 16.9833 79.027 14.5835C79.027 11.9988 79.7356 10.338 81.7374 10.338C83.8321 10.338 84.4483 12.1839 84.4483 14.5835C84.4483 17.1988 83.7397 18.8919 81.7374 18.8919ZM81.7374 23.1075C85.711 23.1075 90.5471 21.3218 90.5471 14.5535C90.5471 7.69123 85.711 5.96929 81.7374 5.96929C77.733 5.96929 72.927 7.69123 72.927 14.5535C72.927 21.3218 77.7631 23.1075 81.7374 23.1075ZM45.938 22.768H51.4215V8.36892H51.4834C51.9756 11.3524 52.2532 12.3689 52.7771 14.2142L55.1184 22.768H60.5397L62.9425 14.2142C63.435 12.4608 63.8047 11.0143 64.1747 8.6757H64.2359V22.768H70.1199V0H61.7721L58.1679 15.4454H58.1063L54.1016 0H45.938V22.768H45.938Z" fill="#0D2333"/>
<path fill-rule="evenodd" clip-rule="evenodd" d="M174.803 41.5422C174.526 41.5588 174.26 41.6051 174.005 41.6805C173.75 41.7565 173.533 41.8707 173.354 42.0221C173.175 42.1743 173.086 42.3854 173.086 42.6561C173.086 42.949 173.211 43.1658 173.46 43.3065C173.71 43.4472 173.97 43.5177 174.241 43.5177C174.48 43.5177 174.711 43.4853 174.933 43.42C175.155 43.3553 175.353 43.2634 175.527 43.1436C175.701 43.025 175.839 42.8728 175.942 42.6884C176.045 42.5047 176.097 42.2877 176.097 42.0386V41.5182H175.495C175.31 41.5182 175.08 41.5263 174.803 41.5422Z" fill="#0D2333"/>
<path fill-rule="evenodd" clip-rule="evenodd" d="M223.148 39.0306C222.53 39.0306 222.05 39.2151 221.708 39.5835C221.366 39.9524 221.195 40.4347 221.195 41.0307C221.195 41.6266 221.366 42.109 221.708 42.4772C222.05 42.8456 222.53 43.03 223.148 43.03C223.767 43.03 224.247 42.8456 224.589 42.4772C224.93 42.109 225.101 41.6266 225.101 41.0307C225.101 40.4348 224.93 39.9524 224.589 39.5835C224.247 39.2151 223.767 39.0306 223.148 39.0306Z" fill="#0D2333"/>
<path fill-rule="evenodd" clip-rule="evenodd" d="M233.223 38.6409C232.952 38.6409 232.713 38.684 232.507 38.7708C232.3 38.8577 232.124 38.9686 231.978 39.1042C231.831 39.24 231.717 39.3965 231.636 39.5753C231.555 39.7547 231.508 39.941 231.498 40.1362H234.72C234.731 39.7248 234.595 39.3724 234.313 39.0796C234.031 38.7872 233.668 38.6409 233.223 38.6409Z" fill="#0D2333"/>
<path fill-rule="evenodd" clip-rule="evenodd" d="M208.81 38.6409C208.539 38.6409 208.3 38.684 208.094 38.7708C207.888 38.8577 207.711 38.9686 207.565 39.1042C207.419 39.24 207.305 39.3965 207.223 39.5753C207.142 39.7547 207.095 39.941 207.085 40.1362H210.307C210.318 39.7248 210.182 39.3724 209.9 39.0796C209.618 38.7872 209.255 38.6409 208.81 38.6409Z" fill="#0D2333"/>
<path fill-rule="evenodd" clip-rule="evenodd" d="M242.312 41.5422C242.036 41.5588 241.77 41.6051 241.515 41.6805C241.26 41.7565 241.043 41.8707 240.864 42.0221C240.685 42.1743 240.595 42.3854 240.595 42.6561C240.595 42.949 240.72 43.1658 240.97 43.3065C241.219 43.4472 241.479 43.5177 241.751 43.5177C241.989 43.5177 242.22 43.4853 242.443 43.42C242.665 43.3553 242.863 43.2634 243.037 43.1436C243.21 43.025 243.349 42.8728 243.452 42.6884C243.555 42.5047 243.606 42.2877 243.606 42.0386V41.5182H243.004C242.82 41.5182 242.589 41.5263 242.312 41.5422Z" fill="#0D2333"/>
<path fill-rule="evenodd" clip-rule="evenodd" d="M147.955 29.5093V48.4552H253.797V29.5093H147.955ZM159.854 43.1601C159.616 43.6374 159.293 44.0324 158.886 44.3468C158.479 44.6613 158.007 44.8944 157.47 45.046C156.933 45.1975 156.366 45.2735 155.769 45.2735C155.021 45.2735 154.326 45.1594 153.686 44.9319C153.046 44.7042 152.449 44.3359 151.896 43.827L153.702 41.8434C153.963 42.1902 154.291 42.4583 154.687 42.6479C155.083 42.838 155.493 42.9324 155.916 42.9324C156.122 42.9324 156.331 42.9084 156.542 42.8595C156.754 42.8108 156.944 42.7372 157.112 42.6396C157.28 42.5426 157.416 42.4177 157.519 42.2662C157.622 42.1142 157.674 41.9354 157.674 41.7292C157.674 41.3826 157.541 41.1093 157.275 40.9084C157.009 40.708 156.675 40.5375 156.274 40.3968C155.872 40.2561 155.438 40.1147 154.972 39.974C154.505 39.8333 154.071 39.6431 153.67 39.4047C153.268 39.1664 152.935 38.8519 152.669 38.4621C152.403 38.0716 152.27 37.5575 152.27 36.9179C152.27 36.2998 152.392 35.7579 152.636 35.2918C152.88 34.8259 153.206 34.4361 153.613 34.1216C154.02 33.8072 154.489 33.5713 155.021 33.4142C155.552 33.2577 156.1 33.1784 156.664 33.1784C157.316 33.1784 157.944 33.271 158.553 33.4548C159.16 33.6393 159.708 33.9486 160.196 34.3815L158.455 36.2839C158.248 36.0234 157.969 35.8313 157.616 35.7064C157.264 35.5822 156.93 35.5194 156.615 35.5194C156.431 35.5194 156.241 35.5417 156.046 35.5847C155.851 35.6279 155.666 35.6957 155.492 35.7875C155.319 35.8801 155.178 36.0019 155.069 36.1533C154.961 36.3054 154.907 36.4893 154.907 36.7061C154.907 37.0535 155.037 37.3184 155.297 37.5029C155.558 37.6873 155.886 37.8439 156.282 37.9746C156.678 38.1045 157.104 38.2345 157.56 38.3644C158.015 38.4943 158.441 38.6789 158.837 38.9171C159.233 39.1555 159.561 39.4756 159.822 39.8762C160.082 40.2775 160.212 40.8138 160.212 41.4858C160.212 42.1255 160.093 42.6834 159.854 43.1601ZM169.652 41.7947H163.988C164.086 42.2605 164.297 42.632 164.623 42.9084C164.948 43.1847 165.35 43.323 165.827 43.323C166.228 43.323 166.568 43.2329 166.844 43.0541C167.121 42.8754 167.363 42.6453 167.569 42.3639L169.278 43.6152C168.887 44.1141 168.393 44.4989 167.797 44.7695C167.2 45.0401 166.581 45.1759 165.941 45.1759C165.334 45.1759 164.761 45.0782 164.224 44.883C163.687 44.6884 163.22 44.4095 162.824 44.0462C162.428 43.683 162.116 43.2468 161.889 42.7372C161.661 42.2281 161.547 41.6589 161.547 41.0308C161.547 40.4019 161.661 39.8333 161.889 39.3236C162.116 38.8146 162.428 38.3784 162.824 38.0151C163.22 37.652 163.687 37.373 164.224 37.1778C164.761 36.9825 165.333 36.8848 165.941 36.8848C166.505 36.8848 167.018 36.9825 167.479 37.1778C167.94 37.373 168.331 37.652 168.651 38.0151C168.971 38.3784 169.218 38.8146 169.392 39.3236C169.565 39.8333 169.652 40.4019 169.652 41.0308V41.7947H169.652ZM178.343 44.9807H176.097V43.9892H176.064C175.793 44.4121 175.432 44.7157 174.982 44.8994C174.532 45.0839 174.057 45.1759 173.558 45.1759C173.189 45.1759 172.834 45.1245 172.492 45.0212C172.15 44.9185 171.849 44.7638 171.588 44.5578C171.328 44.3524 171.122 44.0976 170.97 43.7939C170.818 43.4909 170.742 43.1385 170.742 42.7371C170.742 42.282 170.826 41.8978 170.994 41.5834C171.163 41.2689 171.39 41.0091 171.678 40.8031C171.965 40.5971 172.294 40.4373 172.663 40.3232C173.031 40.2098 173.414 40.1254 173.81 40.0716C174.206 40.0171 174.602 39.9847 174.998 39.9739C175.394 39.9632 175.76 39.9575 176.097 39.9575C176.097 39.5245 175.942 39.1803 175.633 38.9255C175.324 38.6707 174.958 38.5433 174.535 38.5433C174.133 38.5433 173.767 38.6275 173.436 38.7956C173.105 38.9635 172.809 39.1936 172.549 39.4858L171.247 38.1534C171.702 37.7305 172.234 37.4136 172.842 37.2018C173.449 36.9907 174.079 36.8848 174.73 36.8848C175.446 36.8848 176.034 36.9742 176.496 37.1531C176.957 37.3324 177.326 37.5949 177.603 37.9415C177.879 38.289 178.072 38.7137 178.18 39.2176C178.289 39.7216 178.343 40.3042 178.343 40.9654V44.9807H178.343ZM182.347 44.9807H179.905V32.691H182.347V44.9807ZM194.309 39.0307H192.161V41.6647C192.161 41.8814 192.171 42.0792 192.193 42.258C192.215 42.4368 192.263 42.5914 192.34 42.7213C192.416 42.8513 192.532 42.9515 192.69 43.0219C192.847 43.0922 193.056 43.1278 193.316 43.1278C193.447 43.1278 193.617 43.1144 193.829 43.0872C194.041 43.0598 194.2 42.9978 194.309 42.9001V44.9319C194.038 45.0294 193.756 45.0947 193.463 45.1271C193.17 45.1594 192.882 45.1759 192.6 45.1759C192.188 45.1759 191.808 45.1322 191.461 45.046C191.113 44.9591 190.81 44.8209 190.549 44.6313C190.289 44.4418 190.085 44.1952 189.939 43.8915C189.792 43.5886 189.719 43.2197 189.719 42.786V39.0307H188.157V37.0802H189.719V34.7392H192.161V37.0802H194.309V39.0307H194.309ZM203.162 44.9807H200.721V41.1119C200.721 40.8842 200.713 40.6485 200.697 40.4044C200.681 40.161 200.632 39.9358 200.551 39.7299C200.469 39.5245 200.344 39.3559 200.176 39.2259C200.008 39.0959 199.766 39.0307 199.452 39.0307C199.137 39.0307 198.882 39.0877 198.687 39.2019C198.492 39.3154 198.342 39.4674 198.239 39.657C198.136 39.8466 198.068 40.0608 198.036 40.2992C198.003 40.5376 197.987 40.7867 197.987 41.0466V44.9807H195.546V32.691H197.987V38.1535H198.019C198.074 38.0012 198.166 37.8497 198.296 37.6982C198.426 37.5461 198.584 37.4111 198.768 37.2913C198.952 37.1727 199.17 37.0751 199.419 36.999C199.669 36.9229 199.94 36.8848 200.233 36.8848C200.851 36.8848 201.351 36.98 201.73 37.1695C202.11 37.3591 202.406 37.6221 202.617 37.9581C202.829 38.2942 202.973 38.6897 203.049 39.1448C203.124 39.6 203.162 40.0932 203.162 40.6243V44.9807H203.162ZM212.749 41.7947H207.085C207.182 42.2605 207.394 42.632 207.72 42.9084C208.045 43.1847 208.446 43.323 208.924 43.323C209.325 43.323 209.665 43.2329 209.941 43.0541C210.218 42.8754 210.459 42.6453 210.665 42.3639L212.374 43.6152C211.984 44.1141 211.49 44.4989 210.893 44.7695C210.296 45.0401 209.678 45.1759 209.038 45.1759C208.43 45.1759 207.858 45.0782 207.321 44.883C206.784 44.6884 206.317 44.4095 205.921 44.0462C205.525 43.683 205.213 43.2468 204.985 42.7372C204.757 42.2281 204.643 41.6589 204.643 41.0308C204.643 40.4019 204.757 39.8333 204.985 39.3236C205.213 38.8146 205.525 38.3784 205.921 38.0151C206.317 37.652 206.784 37.373 207.321 37.1778C207.858 36.9825 208.43 36.8848 209.038 36.8848C209.602 36.8848 210.115 36.9825 210.576 37.1778C211.037 37.373 211.428 37.652 211.748 38.0151C212.068 38.3784 212.315 38.8146 212.488 39.3236C212.662 39.8333 212.749 40.4019 212.749 41.0308V41.7947H212.749ZM227.347 44.9807H225.101V43.9404H225.069C224.971 44.0811 224.843 44.2251 224.686 44.3714C224.529 44.5172 224.345 44.6503 224.133 44.7695C223.921 44.8887 223.688 44.9864 223.433 45.0618C223.178 45.1378 222.915 45.1759 222.644 45.1759C222.058 45.1759 221.526 45.0757 221.049 44.8754C220.571 44.6745 220.162 44.3929 219.82 44.0298C219.478 43.6665 219.215 43.236 219.031 42.7371C218.846 42.239 218.754 41.6919 218.754 41.0954C218.754 40.5426 218.838 40.0146 219.006 39.5106C219.174 39.0066 219.413 38.5597 219.722 38.1692C220.031 37.7794 220.408 37.4681 220.853 37.2348C221.298 37.0015 221.803 36.8848 222.367 36.8848C222.877 36.8848 223.352 36.9642 223.791 37.1207C224.231 37.278 224.591 37.546 224.874 37.9258H224.906V32.6909H227.347V44.9807H227.347ZM237.162 41.7947H231.498C231.595 42.2605 231.807 42.632 232.133 42.9084C232.458 43.1847 232.859 43.323 233.337 43.323C233.738 43.323 234.077 43.2329 234.354 43.0541C234.631 42.8754 234.872 42.6453 235.078 42.3639L236.787 43.6152C236.396 44.1141 235.903 44.4989 235.306 44.7695C234.709 45.0401 234.091 45.1759 233.451 45.1759C232.843 45.1759 232.271 45.0782 231.734 44.883C231.196 44.6884 230.73 44.4095 230.334 44.0462C229.938 43.683 229.626 43.2468 229.398 42.7372C229.17 42.2281 229.056 41.6589 229.056 41.0308C229.056 40.4019 229.17 39.8333 229.398 39.3236C229.626 38.8146 229.938 38.3784 230.334 38.0151C230.73 37.652 231.196 37.373 231.734 37.1778C232.271 36.9825 232.843 36.8848 233.451 36.8848C234.015 36.8848 234.527 36.9825 234.989 37.1778C235.45 37.373 235.841 37.652 236.16 38.0151C236.481 38.3784 236.728 38.8146 236.901 39.3236C237.075 39.8333 237.162 40.4019 237.162 41.0308V41.7947H237.162ZM245.852 44.9807H243.606V43.9892H243.574C243.303 44.4121 242.942 44.7157 242.492 44.8994C242.041 45.0839 241.566 45.1759 241.067 45.1759C240.699 45.1759 240.343 45.1245 240.001 45.0212C239.66 44.9185 239.358 44.7638 239.098 44.5578C238.838 44.3524 238.631 44.0976 238.479 43.7939C238.327 43.4909 238.252 43.1385 238.252 42.7371C238.252 42.282 238.336 41.8978 238.504 41.5834C238.672 41.2689 238.9 41.0091 239.187 40.8031C239.475 40.5971 239.803 40.4373 240.172 40.3232C240.541 40.2098 240.924 40.1254 241.32 40.0716C241.716 40.0171 242.112 39.9847 242.508 39.9739C242.904 39.9632 243.27 39.9575 243.606 39.9575C243.606 39.5245 243.452 39.1803 243.143 38.9255C242.833 38.6707 242.467 38.5433 242.044 38.5433C241.642 38.5433 241.276 38.6275 240.945 38.7956C240.614 38.9635 240.319 39.1936 240.058 39.4858L238.756 38.1534C239.212 37.7305 239.743 37.4136 240.351 37.2018C240.959 36.9907 241.588 36.8848 242.239 36.8848C242.955 36.8848 243.544 36.9742 244.005 37.1531C244.466 37.3324 244.835 37.5949 245.112 37.9415C245.388 38.289 245.581 38.7137 245.69 39.2176C245.798 39.7216 245.852 40.3042 245.852 40.9654V44.9807H245.852ZM249.856 44.9807H247.415V32.691H249.856V44.9807Z" fill="#0D2333"/>
<path fill-rule="evenodd" clip-rule="evenodd" d="M165.713 38.6409C165.442 38.6409 165.203 38.684 164.997 38.7708C164.791 38.8577 164.615 38.9686 164.468 39.1042C164.322 39.24 164.208 39.3965 164.126 39.5753C164.045 39.7547 163.999 39.941 163.988 40.1362H167.211C167.221 39.7248 167.086 39.3724 166.804 39.0796C166.522 38.7872 166.158 38.6409 165.713 38.6409Z" fill="#0D2333"/>
<path fill-rule="evenodd" clip-rule="evenodd" d="M147.954 24.6713L155.053 30.8887H147.954V24.6713Z" fill="#0D2333"/>
</svg>
