<svg xmlns="http://www.w3.org/2000/svg" xmlns:xlink="http://www.w3.org/1999/xlink" width="1584" zoomAndPan="magnify" viewBox="0 0 1188 296.999993" height="396" preserveAspectRatio="xMidYMid meet" version="1.0"><defs><g/></defs><g fill="#ffffff" fill-opacity="1"><g transform="translate(20.707044, 159.378769)"><g><path d="M 4.75 -2.59375 C 7.488281 -1.152344 13.824219 2.160156 25.34375 2.160156 C 42.332031 2.160156 53.851562 -8.351562 53.851562 -23.328125 C 53.851562 -36.574219 43.773438 -44.351562 35.132812 -50.972656 C 26.496094 -57.308594 21.886719 -61.339844 21.886719 -67.820312 C 21.886719 -74.589844 25.773438 -78.476562 33.117188 -78.476562 C 40.75 -78.476562 47.949219 -73.4375 48.667969 -72.859375 L 48.667969 -86.972656 C 46.222656 -88.554688 39.453125 -91.578125 30.957031 -91.578125 C 16.992188 -91.578125 5.902344 -83.082031 5.902344 -68.828125 C 5.902344 -56.300781 13.390625 -48.8125 22.605469 -42.332031 C 29.230469 -37.4375 38.015625 -30.671875 38.015625 -23.328125 C 38.015625 -16.992188 33.261719 -11.230469 24.910156 -11.230469 C 14.832031 -11.230469 8.496094 -14.542969 4.75 -16.269531 Z M 4.75 -2.59375 "/></g></g></g><g fill="#ffffff" fill-opacity="1"><g transform="translate(78.446351, 159.378769)"><g><path d="M 53.277344 -9.503906 C 51.980469 -9.359375 50.542969 -9.214844 49.246094 -9.214844 C 46.652344 -9.214844 45.214844 -12.960938 45.214844 -16.992188 L 45.214844 -32.832031 C 45.214844 -44.0625 44.636719 -54.71875 28.941406 -54.71875 C 22.75 -54.71875 10.65625 -51.691406 4.320312 -48.382812 L 7.632812 -38.015625 C 13.824219 -41.324219 21.453125 -43.628906 25.488281 -43.628906 C 31.101562 -43.628906 31.390625 -38.15625 31.390625 -34.558594 L 31.390625 -33.117188 L 12.960938 -26.925781 C 4.609375 -24.046875 1.441406 -18.144531 1.441406 -10.945312 C 1.441406 -3.457031 7.34375 1.441406 16.558594 1.441406 C 23.039062 1.441406 29.085938 -1.152344 33.261719 -4.75 C 34.703125 -1.582031 37.726562 1.582031 42.910156 1.582031 C 48.238281 1.582031 51.550781 0.144531 53.277344 -0.863281 Z M 21.167969 -8.351562 C 16.703125 -8.351562 14.109375 -10.367188 14.109375 -14.109375 C 14.109375 -17.277344 16.128906 -18.574219 20.878906 -20.160156 L 31.390625 -23.472656 L 31.390625 -13.246094 C 28.796875 -10.65625 24.046875 -8.351562 21.167969 -8.351562 Z M 21.167969 -8.351562 "/></g></g></g><g fill="#ffffff" fill-opacity="1"><g transform="translate(136.041669, 159.378769)"><g><path d="M 8.351562 0 L 22.894531 0 L 22.894531 -25.34375 C 22.894531 -34.703125 27.503906 -42.621094 33.980469 -42.621094 C 39.597656 -42.621094 40.75 -37.4375 41.039062 -32.398438 L 41.039062 0 L 55.582031 0 L 55.582031 -25.34375 C 55.582031 -34.703125 60.1875 -42.621094 66.8125 -42.621094 C 73.722656 -42.621094 73.722656 -34.558594 73.722656 -28.222656 L 73.722656 0 L 88.265625 0 L 88.265625 -32.398438 C 88.265625 -40.894531 87.117188 -54.574219 71.851562 -54.574219 C 64.796875 -54.574219 57.886719 -49.246094 54.859375 -42.191406 C 53.566406 -49.246094 49.246094 -54.574219 40.03125 -54.574219 C 32.832031 -54.574219 26.0625 -49.101562 23.183594 -41.613281 L 23.183594 -52.84375 L 8.351562 -52.84375 Z M 8.351562 0 "/></g></g></g><g fill="#ffffff" fill-opacity="1"><g transform="translate(230.929961, 159.378769)"><g><path d="M 1.007812 -52.84375 L 24.046875 1.582031 L 13.246094 26.207031 L 28.65625 26.207031 L 62.0625 -52.703125 L 46.222656 -52.703125 L 31.679688 -13.824219 L 17.136719 -52.84375 Z M 1.007812 -52.84375 "/></g></g></g><g fill="#ffffff" fill-opacity="1"><g transform="translate(293.996836, 159.378769)"><g><path d="M 43.339844 -27.503906 C 43.339844 -18.144531 37.4375 -10.222656 30.238281 -10.222656 C 21.886719 -10.222656 21.167969 -18.144531 21.167969 -24.621094 L 21.167969 -52.84375 L 6.625 -52.84375 L 6.625 -20.445312 C 6.625 -11.953125 9.214844 1.726562 25.054688 1.726562 C 32.832031 1.726562 41.183594 -3.742188 44.0625 -11.230469 L 44.0625 0 L 58.027344 0 L 58.027344 -52.84375 L 43.339844 -52.84375 Z M 43.339844 -27.503906 "/></g></g></g><g fill="#ffffff" fill-opacity="1"><g transform="translate(360.375448, 159.378769)"><g><path d="M 37.148438 -30.957031 L 59.035156 -52.84375 L 41.902344 -52.84375 L 23.757812 -33.839844 L 23.757812 -92.300781 L 8.351562 -92.300781 L 8.351562 0 L 23.757812 0 L 23.757812 -25.054688 C 34.847656 -21.742188 41.902344 -15.261719 47.085938 0 L 62.347656 0 C 56.734375 -18.574219 47.660156 -27.789062 37.148438 -30.957031 Z M 37.148438 -30.957031 "/></g></g></g><g fill="#ffffff" fill-opacity="1"><g transform="translate(425.458177, 159.378769)"><g><path d="M 2.59375 -41.902344 L 9.792969 -41.902344 L 9.792969 -27.214844 C 9.792969 -8.785156 11.519531 1.582031 25.917969 1.582031 C 33.40625 1.582031 39.597656 -0.574219 43.773438 -3.3125 L 42.332031 -13.679688 C 39.023438 -11.808594 35.566406 -10.367188 31.824219 -10.367188 C 24.765625 -10.367188 24.480469 -15.839844 24.480469 -28.65625 L 24.480469 -41.902344 L 41.324219 -41.902344 L 41.324219 -52.84375 L 24.480469 -52.84375 L 24.480469 -74.445312 L 9.792969 -74.445312 L 9.792969 -52.84375 L 2.59375 -52.84375 Z M 2.59375 -41.902344 "/></g></g></g><g fill="#ffffff" fill-opacity="1"><g transform="translate(472.542372, 159.378769)"><g><path d="M 22.894531 -25.34375 C 22.894531 -34.703125 28.941406 -42.621094 36.140625 -42.621094 C 44.492188 -42.621094 45.214844 -34.558594 45.214844 -28.222656 L 45.214844 0 L 59.757812 0 L 59.757812 -32.398438 C 59.757812 -40.894531 57.019531 -54.574219 41.324219 -54.574219 C 33.40625 -54.574219 26.0625 -49.101562 23.183594 -41.613281 L 23.183594 -92.300781 L 8.351562 -92.300781 L 8.351562 0 L 22.894531 0 Z M 22.894531 -25.34375 "/></g></g></g><g fill="#ffffff" fill-opacity="1"><g transform="translate(538.920985, 159.378769)"><g><path d="M 53.277344 -9.503906 C 51.980469 -9.359375 50.542969 -9.214844 49.246094 -9.214844 C 46.652344 -9.214844 45.214844 -12.960938 45.214844 -16.992188 L 45.214844 -32.832031 C 45.214844 -44.0625 44.636719 -54.71875 28.941406 -54.71875 C 22.75 -54.71875 10.65625 -51.691406 4.320312 -48.382812 L 7.632812 -38.015625 C 13.824219 -41.324219 21.453125 -43.628906 25.488281 -43.628906 C 31.101562 -43.628906 31.390625 -38.15625 31.390625 -34.558594 L 31.390625 -33.117188 L 12.960938 -26.925781 C 4.609375 -24.046875 1.441406 -18.144531 1.441406 -10.945312 C 1.441406 -3.457031 7.34375 1.441406 16.558594 1.441406 C 23.039062 1.441406 29.085938 -1.152344 33.261719 -4.75 C 34.703125 -1.582031 37.726562 1.582031 42.910156 1.582031 C 48.238281 1.582031 51.550781 0.144531 53.277344 -0.863281 Z M 21.167969 -8.351562 C 16.703125 -8.351562 14.109375 -10.367188 14.109375 -14.109375 C 14.109375 -17.277344 16.128906 -18.574219 20.878906 -20.160156 L 31.390625 -23.472656 L 31.390625 -13.246094 C 28.796875 -10.65625 24.046875 -8.351562 21.167969 -8.351562 Z M 21.167969 -8.351562 "/></g></g></g><g fill="#ffffff" fill-opacity="1"><g transform="translate(596.516302, 159.378769)"><g><path d="M 7.199219 -89.417969 L 9.214844 -54.429688 L 19.007812 -54.429688 L 20.878906 -89.417969 Z M 7.199219 -89.417969 "/></g></g></g><g fill="#ffffff" fill-opacity="1"><g transform="translate(625.889897, 159.378769)"><g><path d="M 3.601562 -2.878906 C 4.320312 -2.59375 11.664062 1.726562 20.304688 1.726562 C 30.671875 1.726562 42.910156 -2.878906 42.910156 -15.839844 C 42.910156 -31.390625 19.4375 -32.6875 19.4375 -38.445312 C 19.4375 -41.613281 22.460938 -43.628906 26.351562 -43.628906 C 30.957031 -43.628906 35.277344 -41.613281 38.015625 -40.175781 L 40.75 -51.261719 C 39.742188 -51.835938 32.832031 -55.003906 25.34375 -55.003906 C 17.710938 -55.003906 5.328125 -50.109375 5.328125 -38.015625 C 5.328125 -23.613281 28.511719 -22.03125 28.511719 -15.984375 C 28.511719 -12.09375 25.34375 -10.078125 20.589844 -10.078125 C 14.109375 -10.078125 6.335938 -14.6875 5.183594 -15.261719 Z M 3.601562 -2.878906 "/></g></g></g><g fill="#ffffff" fill-opacity="1"><g transform="translate(672.398133, 159.378769)"><g/></g></g><g fill="#ffffff" fill-opacity="1"><g transform="translate(709.547117, 159.378769)"><g><path d="M 25.34375 -76.460938 L 34.847656 -76.460938 C 44.492188 -76.316406 50.828125 -72.140625 50.828125 -65.660156 C 50.828125 -57.308594 44.636719 -52.125 35.132812 -52.125 L 30.238281 -52.125 L 30.238281 -39.164062 L 35.421875 -39.164062 C 53.710938 -39.164062 65.371094 -49.246094 65.371094 -66.09375 C 65.371094 -80.492188 53.851562 -89.417969 34.847656 -89.417969 L 9.070312 -89.417969 L 9.070312 0 L 25.34375 0 Z M 25.34375 -76.460938 "/></g></g></g><g fill="#ffffff" fill-opacity="1"><g transform="translate(776.357675, 159.378769)"><g><path d="M 32.832031 1.726562 C 47.085938 1.726562 61.773438 -6.480469 61.773438 -26.636719 C 61.773438 -45.359375 47.660156 -54.574219 33.117188 -54.574219 C 18.863281 -54.574219 4.320312 -46.078125 4.320312 -26.351562 C 4.320312 -7.34375 18.285156 1.726562 32.832031 1.726562 Z M 18.429688 -26.207031 C 18.144531 -36.285156 25.054688 -42.191406 32.832031 -42.621094 C 40.605469 -42.910156 47.515625 -37.292969 47.804688 -26.636719 C 47.949219 -16.269531 41.324219 -10.65625 33.40625 -10.367188 C 25.34375 -10.078125 18.71875 -15.261719 18.429688 -26.207031 Z M 18.429688 -26.207031 "/></g></g></g><g fill="#ffffff" fill-opacity="1"><g transform="translate(842.448263, 159.378769)"><g><path d="M 37.148438 -54.71875 C 30.09375 -54.71875 24.765625 -48.382812 22.894531 -43.917969 L 22.894531 -52.84375 L 8.351562 -52.84375 L 8.351562 0 L 22.894531 0 L 22.894531 -25.054688 L 23.039062 -25.054688 C 23.039062 -30.671875 28.367188 -42.046875 37.007812 -42.046875 C 38.734375 -42.046875 40.460938 -41.757812 41.757812 -40.894531 L 42.191406 -53.566406 C 41.46875 -53.996094 39.453125 -54.71875 37.148438 -54.71875 Z M 37.148438 -54.71875 "/></g></g></g><g fill="#ffffff" fill-opacity="1"><g transform="translate(886.508654, 159.378769)"><g><path d="M 2.59375 -41.902344 L 9.792969 -41.902344 L 9.792969 -27.214844 C 9.792969 -8.785156 11.519531 1.582031 25.917969 1.582031 C 33.40625 1.582031 39.597656 -0.574219 43.773438 -3.3125 L 42.332031 -13.679688 C 39.023438 -11.808594 35.566406 -10.367188 31.824219 -10.367188 C 24.765625 -10.367188 24.480469 -15.839844 24.480469 -28.65625 L 24.480469 -41.902344 L 41.324219 -41.902344 L 41.324219 -52.84375 L 24.480469 -52.84375 L 24.480469 -74.445312 L 9.792969 -74.445312 L 9.792969 -52.84375 L 2.59375 -52.84375 Z M 2.59375 -41.902344 "/></g></g></g><g fill="#ffffff" fill-opacity="1"><g transform="translate(933.592849, 159.378769)"><g><path d="M 40.605469 -80.492188 L 41.613281 -92.441406 C 40.03125 -92.730469 38.15625 -93.164062 36 -93.164062 C 20.015625 -93.164062 10.65625 -85.675781 10.65625 -64.507812 L 10.65625 -52.84375 L 4.320312 -52.84375 L 4.320312 -41.902344 L 10.511719 -41.902344 L 10.511719 0 L 25.199219 0 L 25.199219 -41.902344 L 36.429688 -41.902344 L 36.574219 -52.84375 L 25.199219 -52.84375 L 25.199219 -62.636719 C 25.199219 -74.730469 27.789062 -80.78125 36.863281 -80.78125 C 38.300781 -80.78125 39.597656 -80.636719 40.605469 -80.492188 Z M 40.605469 -80.492188 "/></g></g></g><g fill="#ffffff" fill-opacity="1"><g transform="translate(972.613721, 159.378769)"><g><path d="M 32.832031 1.726562 C 47.085938 1.726562 61.773438 -6.480469 61.773438 -26.636719 C 61.773438 -45.359375 47.660156 -54.574219 33.117188 -54.574219 C 18.863281 -54.574219 4.320312 -46.078125 4.320312 -26.351562 C 4.320312 -7.34375 18.285156 1.726562 32.832031 1.726562 Z M 18.429688 -26.207031 C 18.144531 -36.285156 25.054688 -42.191406 32.832031 -42.621094 C 40.605469 -42.910156 47.515625 -37.292969 47.804688 -26.636719 C 47.949219 -16.269531 41.324219 -10.65625 33.40625 -10.367188 C 25.34375 -10.078125 18.71875 -15.261719 18.429688 -26.207031 Z M 18.429688 -26.207031 "/></g></g></g><g fill="#ffffff" fill-opacity="1"><g transform="translate(1038.704354, 159.378769)"><g><path d="M 8.351562 0 L 22.894531 0 L 22.894531 -92.300781 L 8.351562 -92.300781 Z M 8.351562 0 "/></g></g></g><g fill="#ffffff" fill-opacity="1"><g transform="translate(1069.949835, 159.378769)"><g><path d="M 6.625 -72.140625 L 16.128906 -62.636719 L 25.628906 -72.140625 L 16.128906 -81.5 Z M 8.351562 -52.84375 L 8.351562 0 L 22.894531 0 L 22.894531 -52.84375 Z M 8.351562 -52.84375 "/></g></g></g><g fill="#ffffff" fill-opacity="1"><g transform="translate(1101.195317, 159.378769)"><g><path d="M 32.832031 1.726562 C 47.085938 1.726562 61.773438 -6.480469 61.773438 -26.636719 C 61.773438 -45.359375 47.660156 -54.574219 33.117188 -54.574219 C 18.863281 -54.574219 4.320312 -46.078125 4.320312 -26.351562 C 4.320312 -7.34375 18.285156 1.726562 32.832031 1.726562 Z M 18.429688 -26.207031 C 18.144531 -36.285156 25.054688 -42.191406 32.832031 -42.621094 C 40.605469 -42.910156 47.515625 -37.292969 47.804688 -26.636719 C 47.949219 -16.269531 41.324219 -10.65625 33.40625 -10.367188 C 25.34375 -10.078125 18.71875 -15.261719 18.429688 -26.207031 Z M 18.429688 -26.207031 "/></g></g></g></svg>