<svg xmlns="http://www.w3.org/2000/svg" xmlns:xlink="http://www.w3.org/1999/xlink" width="500" zoomAndPan="magnify" viewBox="0 0 375 374.999991" height="500" preserveAspectRatio="xMidYMid meet" version="1.0"><defs><clipPath id="f422bf971c"><path d="M 0 93.75 L 375 93.75 L 375 281.25 L 0 281.25 Z M 0 93.75 " clip-rule="nonzero"/></clipPath></defs><g clip-path="url(#f422bf971c)"><path fill="#1873cc" d="M 375 93.75 L 0 93.75 L 0 281.25 L 189.53125 281.25 Z M 156.46875 229.421875 C 150.6875 231.34375 144.171875 232.40625 137.25 232.40625 C 130.125 232.40625 123.421875 231.28125 117.515625 229.25 L 111.921875 243.75 L 80.671875 243.84375 L 82.078125 236.546875 C 81.625 236.9375 81.1875 237.34375 80.71875 237.71875 C 72.359375 244.515625 61.84375 247.65625 48.890625 247.890625 L 45.5625 247.921875 C 45.328125 247.921875 45.046875 247.921875 44.75 247.921875 C 30.359375 247.921875 16.875 244.015625 5.21875 237.25 L 16.609375 214.390625 C 28.953125 221.765625 36.703125 223.421875 47.171875 223.203125 C 52.59375 223.09375 56.515625 222.09375 59.0625 219.421875 C 60.515625 217.90625 61.421875 215.859375 61.5 213.609375 L 61.5 213.59375 C 61.609375 207.65625 53.21875 204.859375 42.984375 201.65625 C 34.6875 199.0625 25.25 195.515625 17.890625 190.046875 C 9.15625 183.578125 5 175.453125 5.203125 163.984375 C 5.28125 155.53125 8.640625 147.859375 14.0625 142.25 C 22.171875 133.765625 35.265625 128.625 50.984375 128.625 L 51.078125 128.625 C 64.5625 128.640625 81 132.5 92.890625 138.625 L 80.078125 161.203125 C 67.03125 154.828125 60.46875 154.21875 53.046875 153.828125 C 41.984375 153.234375 36.421875 157.21875 36.34375 161.53125 C 36.234375 166.78125 46.796875 171.53125 56.734375 174.765625 C 71.796875 179.59375 90.953125 186.0625 93.875 204.765625 L 121.40625 131.234375 L 153.375 131.234375 L 185.625 219.296875 L 185.515625 131.25 L 222.546875 131.25 C 257.8125 131.25 274.390625 143.3125 274.390625 171.03125 C 274.390625 195.90625 257.359375 210.734375 228.515625 210.734375 L 216.59375 210.734375 L 216.4375 243.8125 L 160.375 243.75 Z M 156.46875 229.421875 " fill-opacity="1" fill-rule="nonzero"/></g><path fill="#1873cc" d="M 244.21875 169.84375 C 244.21875 158.640625 235.5625 155 224.71875 155 L 216.578125 155 L 216.578125 185.078125 L 224.71875 185.078125 C 235.5625 185.0625 244.203125 181.4375 244.21875 169.84375 Z M 244.21875 169.84375 " fill-opacity="1" fill-rule="nonzero"/><path fill="#1873cc" d="M 137.09375 167.109375 L 125.40625 204.40625 C 128.890625 205.75 132.921875 206.5 137.234375 206.5 C 141.421875 206.5 145.359375 205.75 148.828125 204.515625 L 137.328125 167.09375 Z M 137.09375 167.109375 " fill-opacity="1" fill-rule="nonzero"/></svg>