<svg xmlns="http://www.w3.org/2000/svg" xmlns:xlink="http://www.w3.org/1999/xlink" width="500" zoomAndPan="magnify" viewBox="0 0 375 374.999991" height="500" preserveAspectRatio="xMidYMid meet" version="1.0"><defs><filter x="0%" y="0%" width="100%" height="100%" id="5394404f13"><feColorMatrix values="0 0 0 0 1 0 0 0 0 1 0 0 0 0 1 0 0 0 1 0" color-interpolation-filters="sRGB"/></filter><clipPath id="00e0d71e65"><path d="M 38 7.589844 L 337 7.589844 L 337 367.589844 L 38 367.589844 Z M 38 7.589844 " clip-rule="nonzero"/></clipPath><clipPath id="7086de5592"><path d="M 37.5 7.589844 L 188 7.589844 L 188 367.589844 L 37.5 367.589844 Z M 37.5 7.589844 " clip-rule="nonzero"/></clipPath><mask id="a1628f3bc9"><g filter="url(#5394404f13)"><rect x="-37.5" width="450" fill="#000000" y="-37.499999" height="449.999989" fill-opacity="0.149"/></g></mask><clipPath id="38c341fd10"><path d="M 1 0.589844 L 150.679688 0.589844 L 150.679688 360.589844 L 1 360.589844 Z M 1 0.589844 " clip-rule="nonzero"/></clipPath><clipPath id="df5a36a5c4"><rect x="0" width="151" y="0" height="361"/></clipPath></defs><g clip-path="url(#00e0d71e65)"><path fill="#6ca0e1" d="M 187.5 7.589844 C 105.398438 7.589844 38.84375 74.183594 38.84375 156.324219 C 38.84375 269.28125 187.5 367.589844 187.5 367.589844 C 187.5 367.589844 336.15625 269.28125 336.15625 156.324219 C 336.15625 74.183594 269.601562 7.589844 187.5 7.589844 Z M 187.5 7.589844 " fill-opacity="1" fill-rule="nonzero"/></g><g clip-path="url(#7086de5592)"><g mask="url(#a1628f3bc9)"><g transform="matrix(1, 0, 0, 1, 37, 7)"><g clip-path="url(#df5a36a5c4)"><g clip-path="url(#38c341fd10)"><path fill="#ffffff" d="M 150.5 0.589844 C 68.398438 0.589844 1.84375 67.183594 1.84375 149.324219 C 1.84375 262.28125 150.5 360.589844 150.5 360.589844 Z M 150.5 0.589844 " fill-opacity="1" fill-rule="nonzero"/></g></g></g></g></g><path fill="#27408b" d="M 303.042969 156.324219 C 303.042969 158.214844 302.996094 160.105469 302.902344 161.996094 C 302.808594 163.886719 302.671875 165.773438 302.484375 167.65625 C 302.300781 169.539062 302.070312 171.414062 301.792969 173.285156 C 301.515625 175.15625 301.191406 177.019531 300.820312 178.875 C 300.453125 180.730469 300.039062 182.578125 299.578125 184.414062 C 299.121094 186.25 298.617188 188.070312 298.066406 189.882812 C 297.519531 191.691406 296.925781 193.488281 296.289062 195.269531 C 295.652344 197.050781 294.96875 198.816406 294.246094 200.5625 C 293.523438 202.3125 292.757812 204.039062 291.949219 205.75 C 291.140625 207.460938 290.289062 209.148438 289.398438 210.816406 C 288.507812 212.488281 287.574219 214.132812 286.601562 215.753906 C 285.632812 217.378906 284.621094 218.976562 283.570312 220.550781 C 282.519531 222.121094 281.429688 223.667969 280.304688 225.1875 C 279.175781 226.707031 278.015625 228.199219 276.816406 229.660156 C 275.617188 231.125 274.378906 232.554688 273.109375 233.957031 C 271.839844 235.359375 270.539062 236.730469 269.199219 238.066406 C 267.863281 239.40625 266.496094 240.707031 265.09375 241.980469 C 263.691406 243.25 262.261719 244.484375 260.800781 245.683594 C 259.335938 246.886719 257.847656 248.050781 256.328125 249.175781 C 254.808594 250.304688 253.265625 251.390625 251.691406 252.445312 C 250.121094 253.496094 248.523438 254.507812 246.898438 255.480469 C 245.277344 256.453125 243.632812 257.382812 241.964844 258.277344 C 240.296875 259.167969 238.609375 260.019531 236.902344 260.828125 C 235.191406 261.636719 233.460938 262.402344 231.714844 263.125 C 229.96875 263.851562 228.207031 264.53125 226.425781 265.167969 C 224.644531 265.804688 222.847656 266.398438 221.039062 266.949219 C 219.230469 267.496094 217.410156 268 215.574219 268.460938 C 213.738281 268.921875 211.894531 269.335938 210.042969 269.703125 C 208.1875 270.074219 206.324219 270.398438 204.453125 270.675781 C 202.582031 270.953125 200.707031 271.183594 198.824219 271.371094 C 196.941406 271.554688 195.058594 271.695312 193.167969 271.785156 C 191.28125 271.878906 189.390625 271.925781 187.5 271.925781 C 185.609375 271.925781 183.71875 271.878906 181.832031 271.785156 C 179.941406 271.695312 178.058594 271.554688 176.175781 271.371094 C 174.292969 271.183594 172.417969 270.953125 170.546875 270.675781 C 168.675781 270.398438 166.8125 270.074219 164.957031 269.703125 C 163.105469 269.335938 161.261719 268.921875 159.425781 268.460938 C 157.589844 268 155.769531 267.496094 153.960938 266.949219 C 152.152344 266.398438 150.355469 265.804688 148.574219 265.167969 C 146.792969 264.53125 145.03125 263.851562 143.285156 263.125 C 141.535156 262.402344 139.808594 261.636719 138.097656 260.828125 C 136.390625 260.019531 134.703125 259.167969 133.035156 258.277344 C 131.367188 257.382812 129.722656 256.453125 128.101562 255.480469 C 126.476562 254.507812 124.878906 253.496094 123.308594 252.445312 C 121.734375 251.390625 120.191406 250.304688 118.671875 249.175781 C 117.152344 248.050781 115.664062 246.886719 114.199219 245.683594 C 112.738281 244.484375 111.308594 243.25 109.90625 241.980469 C 108.503906 240.707031 107.136719 239.40625 105.800781 238.066406 C 104.460938 236.730469 103.160156 235.359375 101.890625 233.957031 C 100.621094 232.554688 99.382812 231.125 98.183594 229.660156 C 96.984375 228.199219 95.824219 226.707031 94.695312 225.1875 C 93.570312 223.667969 92.480469 222.121094 91.429688 220.550781 C 90.378906 218.976562 89.367188 217.378906 88.398438 215.753906 C 87.425781 214.132812 86.492188 212.488281 85.601562 210.816406 C 84.710938 209.148438 83.859375 207.460938 83.050781 205.75 C 82.242188 204.039062 81.476562 202.3125 80.753906 200.5625 C 80.03125 198.816406 79.347656 197.050781 78.710938 195.269531 C 78.074219 193.488281 77.480469 191.691406 76.933594 189.882812 C 76.382812 188.070312 75.878906 186.25 75.421875 184.414062 C 74.960938 182.578125 74.546875 180.730469 74.179688 178.875 C 73.808594 177.019531 73.484375 175.15625 73.207031 173.285156 C 72.929688 171.414062 72.699219 169.539062 72.515625 167.65625 C 72.328125 165.773438 72.191406 163.886719 72.097656 161.996094 C 72.003906 160.105469 71.957031 158.214844 71.957031 156.324219 C 71.957031 154.433594 72.003906 152.542969 72.097656 150.652344 C 72.191406 148.761719 72.328125 146.875 72.515625 144.992188 C 72.699219 143.109375 72.929688 141.234375 73.207031 139.363281 C 73.484375 137.488281 73.808594 135.625 74.179688 133.769531 C 74.546875 131.914062 74.960938 130.070312 75.421875 128.234375 C 75.878906 126.398438 76.382812 124.578125 76.933594 122.765625 C 77.480469 120.957031 78.074219 119.160156 78.710938 117.378906 C 79.347656 115.597656 80.03125 113.832031 80.753906 112.085938 C 81.476562 110.335938 82.242188 108.609375 83.050781 106.898438 C 83.859375 105.1875 84.710938 103.5 85.601562 101.828125 C 86.492188 100.160156 87.425781 98.515625 88.398438 96.894531 C 89.367188 95.269531 90.378906 93.671875 91.429688 92.097656 C 92.480469 90.527344 93.570312 88.980469 94.695312 87.460938 C 95.824219 85.941406 96.984375 84.449219 98.183594 82.988281 C 99.382812 81.523438 100.621094 80.09375 101.890625 78.691406 C 103.160156 77.289062 104.460938 75.917969 105.800781 74.582031 C 107.136719 73.242188 108.503906 71.9375 109.90625 70.667969 C 111.308594 69.398438 112.738281 68.164062 114.199219 66.960938 C 115.664062 65.761719 117.152344 64.597656 118.671875 63.472656 C 120.191406 62.34375 121.734375 61.253906 123.308594 60.203125 C 124.878906 59.152344 126.476562 58.140625 128.101562 57.167969 C 129.722656 56.195312 131.367188 55.265625 133.035156 54.371094 C 134.703125 53.480469 136.390625 52.628906 138.097656 51.820312 C 139.808594 51.011719 141.535156 50.246094 143.285156 49.523438 C 145.03125 48.796875 146.792969 48.117188 148.574219 47.480469 C 150.355469 46.84375 152.152344 46.25 153.960938 45.699219 C 155.769531 45.152344 157.589844 44.644531 159.425781 44.1875 C 161.261719 43.726562 163.105469 43.3125 164.957031 42.941406 C 166.8125 42.574219 168.675781 42.25 170.546875 41.972656 C 172.417969 41.695312 174.292969 41.464844 176.175781 41.277344 C 178.058594 41.09375 179.941406 40.953125 181.832031 40.859375 C 183.71875 40.769531 185.609375 40.722656 187.5 40.722656 C 189.390625 40.722656 191.28125 40.769531 193.167969 40.859375 C 195.058594 40.953125 196.941406 41.09375 198.824219 41.277344 C 200.707031 41.464844 202.582031 41.695312 204.453125 41.972656 C 206.324219 42.25 208.1875 42.574219 210.042969 42.941406 C 211.894531 43.3125 213.738281 43.726562 215.574219 44.1875 C 217.410156 44.644531 219.230469 45.152344 221.039062 45.699219 C 222.847656 46.25 224.644531 46.84375 226.425781 47.480469 C 228.207031 48.117188 229.96875 48.796875 231.714844 49.523438 C 233.460938 50.246094 235.191406 51.011719 236.902344 51.820312 C 238.609375 52.628906 240.296875 53.480469 241.964844 54.371094 C 243.632812 55.265625 245.277344 56.195312 246.898438 57.167969 C 248.523438 58.140625 250.121094 59.152344 251.691406 60.203125 C 253.265625 61.253906 254.808594 62.34375 256.328125 63.472656 C 257.847656 64.597656 259.335938 65.761719 260.800781 66.960938 C 262.261719 68.164062 263.691406 69.398438 265.09375 70.667969 C 266.496094 71.9375 267.863281 73.242188 269.199219 74.582031 C 270.539062 75.917969 271.839844 77.289062 273.109375 78.691406 C 274.378906 80.09375 275.617188 81.523438 276.816406 82.988281 C 278.015625 84.449219 279.175781 85.941406 280.304688 87.460938 C 281.429688 88.980469 282.519531 90.527344 283.570312 92.097656 C 284.621094 93.671875 285.632812 95.269531 286.601562 96.894531 C 287.574219 98.515625 288.507812 100.160156 289.398438 101.828125 C 290.289062 103.5 291.140625 105.1875 291.949219 106.898438 C 292.757812 108.609375 293.523438 110.335938 294.246094 112.085938 C 294.96875 113.832031 295.652344 115.597656 296.289062 117.378906 C 296.925781 119.160156 297.519531 120.957031 298.066406 122.765625 C 298.617188 124.578125 299.121094 126.398438 299.578125 128.234375 C 300.039062 130.070312 300.453125 131.914062 300.820312 133.769531 C 301.191406 135.625 301.515625 137.488281 301.792969 139.363281 C 302.070312 141.234375 302.300781 143.109375 302.484375 144.992188 C 302.671875 146.875 302.808594 148.761719 302.902344 150.652344 C 302.996094 152.542969 303.042969 154.433594 303.042969 156.324219 Z M 303.042969 156.324219 " fill-opacity="1" fill-rule="nonzero"/><path fill="#ffffff" d="M 247.976562 126.828125 L 123.84375 126.828125 C 120.035156 126.828125 116.953125 129.925781 116.953125 133.726562 L 116.953125 202.726562 C 116.953125 206.539062 120.042969 209.628906 123.84375 209.628906 L 247.984375 209.628906 C 251.792969 209.628906 254.882812 206.53125 254.882812 202.726562 L 254.882812 133.726562 C 254.882812 129.925781 251.785156 126.828125 247.976562 126.828125 Z M 247.976562 126.828125 " fill-opacity="1" fill-rule="nonzero"/><path fill="#ffffff" d="M 165.222656 113.035156 L 199.703125 113.035156 L 199.703125 119.921875 L 213.503906 119.921875 L 213.503906 106.128906 C 213.503906 102.316406 210.40625 99.226562 206.605469 99.226562 L 158.332031 99.226562 C 154.523438 99.226562 151.441406 102.324219 151.441406 106.128906 L 151.441406 119.921875 L 165.234375 119.921875 L 165.234375 113.035156 Z M 165.222656 113.035156 " fill-opacity="1" fill-rule="nonzero"/></svg>